<?xml version="1.0" standalone="no"?>
<!DOCTYPE svg PUBLIC "-//W3C//DTD SVG 1.1//EN" "http://www.w3.org/Graphics/SVG/1.1/DTD/svg11.dtd" >
<svg xmlns="http://www.w3.org/2000/svg" xmlns:xlink="http://www.w3.org/1999/xlink" version="1.1">
<metadata>
Created by FontForge 20170731 at Sun Nov 29 09:47:46 2020
 By Aleksey,,,
Copyright 2010 Monotype Imaging Inc. All rights reserved.
</metadata>
<defs>
<font id="FelbridgePro-ThinItalic" horiz-adv-x="1167" >
  <font-face 
    font-family="Felbridge Pro Thin"
    font-weight="250"
    font-style="italic"
    font-stretch="normal"
    units-per-em="2048"
    panose-1="2 0 2 3 4 0 3 9 3 4"
    ascent="1556"
    descent="-492"
    x-height="1030"
    cap-height="1489"
    bbox="-514 -494 2646 1960"
    underline-thickness="102"
    underline-position="-307"
    slope="-11.5"
    unicode-range="U+0020-FB04"
  />
<missing-glyph horiz-adv-x="1024" 
d="M-113 0l275 1362h973l-277 -1362h-971zM299 1266l229 -498l433 498h-662zM223 1178l-203 -992q0 -1 108 123t216 249l109 124zM1001 1178l-432 -496l230 -498zM723 98l-229 496l-433 -496h662z" />
    <glyph glyph-name="f_f" unicode="ff" horiz-adv-x="1193" 
d="M410 967l-211 -1035q-19 -95 -52 -160.5t-78.5 -101t-95.5 -50.5t-114 -15q-96 0 -176 37l24 63q88 -39 166 -39q109 0 169 66.5t87 199.5l211 1035h-172l12 63h172l33 162q38 184 120.5 256t217.5 72q47 0 98.5 -11t83.5 -26l-31 -62q-92 39 -165 39q-112 0 -169 -66
t-85 -202l-33 -162h496l32 162q37 184 122 256t220 72q102 0 178 -35l-30 -55q-71 30 -166 30q-112 0 -169 -66t-85 -202l-33 -162h266l-12 -63h-266l-211 -1035q-19 -95 -52 -160.5t-78.5 -101t-95.5 -50.5t-114 -15q-96 0 -176 37l22 61q87 -37 168 -37q109 0 169 66.5
t87 199.5l211 1035h-495z" />
    <glyph glyph-name="fi" unicode="fi" horiz-adv-x="1024" 
d="M1004 1370q0 -28 -16 -43.5t-44 -15.5t-43.5 14t-15.5 37q0 18 10 41q-24 19 -86.5 40t-132.5 21q-96 0 -144.5 -66.5t-76.5 -205.5l-33 -162h424q40 0 56 -16t16 -49q0 -12 -13 -88l-178 -877h-68l172 850q15 69 15 84q0 18 -9 25.5t-30 7.5h-397l-211 -1035
q-19 -95 -52 -160.5t-78.5 -101t-95.5 -50.5t-114 -15q-96 0 -176 37l22 61q87 -37 168 -37q109 0 169 66.5t87 199.5l211 1035h-172l12 63h172l33 162q37 184 107.5 256t199.5 72q75 0 160.5 -30t128.5 -71q23 -23 23 -49z" />
    <glyph glyph-name="fl" unicode="fl" horiz-adv-x="1122" 
d="M1016 -16q-62 -15 -129 -15q-166 0 -166 168q0 39 22 158l226 1114q-116 53 -238 53q-119 0 -182.5 -60t-93.5 -210l-33 -162h266l-12 -63h-266l-211 -1035q-19 -95 -52 -160.5t-78.5 -101t-95.5 -50.5t-114 -15q-96 0 -176 37l22 61q87 -37 168 -37q109 0 169 66.5
t87 199.5l211 1035h-172l12 63h172l33 162q19 95 53 160.5t80.5 101.5t98.5 51t118 15q124 0 256 -58l70 56l-246 -1203q-24 -117 -24 -170q0 -55 24.5 -84.5t87.5 -29.5q53 0 105 14z" />
    <glyph glyph-name="f_f_i" unicode="ffi" horiz-adv-x="1589" 
d="M905 967h-495l-211 -1035q-19 -95 -52 -160.5t-78.5 -101t-95.5 -50.5t-114 -15q-96 0 -176 37l24 63q88 -39 166 -39q109 0 169 66.5t87 199.5l211 1035h-172l12 63h172l33 162q38 184 120.5 256t217.5 72q47 0 98.5 -11t83.5 -26l-31 -62q-92 39 -165 39
q-112 0 -169 -66t-85 -202l-33 -162h496l32 162q37 184 107.5 256t199.5 72q75 0 160.5 -30t128.5 -71q23 -23 23 -49q0 -28 -16 -43.5t-44 -15.5t-43.5 14t-15.5 37q0 18 10 41q-24 19 -86.5 40t-132.5 21q-96 0 -144.5 -66.5t-76.5 -205.5l-33 -162h424q39 0 55.5 -16
t16.5 -49q0 -12 -13 -88l-178 -877h-67l172 850q14 65 14 84q0 18 -9 25.5t-30 7.5h-397l-211 -1035q-19 -95 -52 -160.5t-78.5 -101t-95.5 -50.5t-114 -15q-96 0 -176 37l22 61q87 -37 168 -37q109 0 169 66.5t87 199.5z" />
    <glyph glyph-name="f_f_l" unicode="ffl" horiz-adv-x="1687" 
d="M918 1030l32 162q19 95 53 160.5t80.5 101.5t98.5 51t118 15q124 0 256 -58l70 56l-246 -1203q-24 -117 -24 -170q0 -55 24.5 -84.5t87.5 -29.5q53 0 105 14l8 -61q-63 -15 -129 -15q-166 0 -166 168q0 33 23 158l225 1114q-116 53 -238 53q-119 0 -182.5 -60t-93.5 -210
l-33 -162h266l-12 -63h-266l-211 -1035q-19 -95 -52 -160.5t-78.5 -101t-95.5 -50.5t-114 -15q-96 0 -176 37l22 61q87 -37 168 -37q109 0 169 66.5t87 199.5l211 1035h-495l-211 -1035q-19 -95 -52 -160.5t-78.5 -101t-95.5 -50.5t-114 -15q-96 0 -176 37l24 63
q88 -39 166 -39q109 0 169 66.5t87 199.5l211 1035h-172l12 63h172l33 162q38 184 120.5 256t217.5 72q47 0 98.5 -11t83.5 -26l-31 -62q-92 39 -165 39q-112 0 -169 -66t-85 -202l-33 -162h496z" />
    <glyph glyph-name=".notdef" horiz-adv-x="1024" 
d="M-113 0l275 1362h973l-277 -1362h-971zM299 1266l229 -498l433 498h-662zM223 1178l-203 -992q0 -1 108 123t216 249l109 124zM1001 1178l-432 -496l230 -498zM723 98l-229 496l-433 -496h662z" />
    <glyph glyph-name=".null" horiz-adv-x="0" 
 />
    <glyph glyph-name="nonmarkingreturn" horiz-adv-x="682" 
 />
    <glyph glyph-name="space" unicode=" " horiz-adv-x="522" 
 />
    <glyph glyph-name="exclam" unicode="!" horiz-adv-x="448" 
d="M436 1489l-231 -1106h-66l215 1106h82zM193 76q0 -90 -95 -90q-67 0 -67 51q0 92 94 92q68 0 68 -53z" />
    <glyph glyph-name="quotedbl" unicode="&#x22;" horiz-adv-x="516" 
d="M659 1520l-141 -551h-47l82 551h106zM352 1520l-141 -551h-47l82 551h106z" />
    <glyph glyph-name="numbersign" unicode="#" horiz-adv-x="1325" 
d="M1290 969h-303l-115 -449h302v-61h-316l-113 -459h-65l113 459h-316l-115 -459h-65l115 459h-295v61h307l117 449h-308v61h322l113 459h65l-112 -459h315l115 459h65l-115 -459h289v-61zM922 969h-316l-117 -449h318z" />
    <glyph glyph-name="dollar" unicode="$" horiz-adv-x="1028" 
d="M303 -246l51 250q-139 16 -233 88t-121 158l59 31q37 -86 115.5 -143t192.5 -70l122 604q-42 13 -68.5 22t-64.5 24.5t-61.5 30.5t-50 37.5t-41.5 48t-25 60t-10 74.5q0 87 35.5 153t97.5 106t141.5 59.5t173.5 17.5l46 215h63l-45 -222q116 -15 201.5 -77.5
t126.5 -153.5l-60 -29q-51 91 -117.5 140t-162.5 61l-105 -518q58 -18 101 -35.5t90.5 -46t77.5 -61.5t49.5 -82.5t19.5 -108.5q0 -178 -123.5 -282.5t-353.5 -104.5h-8l-49 -246h-64zM827 383q0 57 -20 100.5t-60.5 75t-86.5 53t-111 41.5l-119 -590h8q177 0 283 84
t106 236zM240 973q0 -41 14.5 -74.5t36.5 -56.5t59 -43t71 -32.5t83 -27.5l100 504q-54 1 -104 -6t-98 -26.5t-83.5 -50t-57 -78.5t-21.5 -109z" />
    <glyph glyph-name="percent" unicode="%" horiz-adv-x="1929" 
d="M1583 1489l-1130 -1798h-72l1130 1798h72zM889 1196q0 -88 -13 -172t-46 -167t-82 -144.5t-126.5 -99.5t-175.5 -38q-146 0 -224.5 89.5t-78.5 242.5q0 94 13 178t45.5 165.5t82 140t128.5 94t180 35.5q149 0 223 -91.5t74 -232.5zM449 637q83 0 149 34.5t107 90
t68 130.5t37.5 149.5t10.5 154.5q0 53 -11.5 97t-37 82.5t-73.5 60.5t-115 22q-81 0 -145.5 -31.5t-106 -83.5t-69 -123.5t-39 -148.5t-11.5 -162q0 -112 59 -192t177 -80zM1786 281q0 -88 -13 -172t-46 -167t-82 -144.5t-126.5 -99.5t-175.5 -38q-146 0 -224.5 89.5
t-78.5 242.5q0 94 13 178t45.5 165t82 139.5t128.5 94t180 35.5q77 0 135 -25.5t93 -71t52 -102.5t17 -124zM1346 -279q83 0 149 34.5t107 90t68 131t37.5 150t10.5 154.5q0 53 -11.5 97t-37 82.5t-73.5 60.5t-115 22q-81 0 -145.5 -31.5t-106 -83.5t-69 -123.5t-39 -148.5
t-11.5 -162q0 -112 59 -192.5t177 -80.5z" />
    <glyph glyph-name="ampersand" unicode="&#x26;" horiz-adv-x="1339" 
d="M1006 0l-88 147q-207 -178 -457 -178q-193 0 -296.5 98t-103.5 248q0 318 455 521q-60 101 -91.5 178.5t-31.5 144.5q0 160 108.5 260.5t284.5 100.5q107 0 187.5 -46.5t116.5 -117.5l-62 -37q-76 135 -246 135q-138 0 -227.5 -77.5t-89.5 -205.5q0 -67 26.5 -135
t83.5 -166l361 -614q142 148 250 362l61 -20q-121 -241 -276 -401l116 -197h-81zM469 37q219 0 414 170l-338 575q-404 -187 -404 -463q0 -130 86.5 -206t241.5 -76z" />
    <glyph glyph-name="quotesingle" unicode="'" horiz-adv-x="208" 
d="M352 1520l-141 -551h-47l82 551h106z" />
    <glyph glyph-name="parenleft" unicode="(" horiz-adv-x="684" 
d="M430 -395h-80q-237 353 -237 694q0 183 43 351.5t127.5 319t194.5 284t257 266.5h92q-121 -111 -213 -210t-176 -217.5t-137.5 -237t-85 -260t-31.5 -294.5q0 -187 64 -354t182 -342z" />
    <glyph glyph-name="parenright" unicode=")" horiz-adv-x="684" 
d="M279 1520h75q238 -354 238 -695q0 -183 -43.5 -351t-127.5 -319t-194.5 -284t-257.5 -266h-92q118 108 209.5 208t175.5 220.5t139 241.5t87 264.5t32 296.5q0 187 -61.5 348.5t-179.5 335.5z" />
    <glyph glyph-name="asterisk" unicode="*" horiz-adv-x="798" 
d="M870 1018l-30 -55l-287 167l4 -288h-65l2 288l-285 -169l-35 55l303 166l-303 164l35 57l287 -170l-4 287h65l-4 -287l287 168l30 -58l-299 -161z" />
    <glyph glyph-name="plus" unicode="+" horiz-adv-x="1329" 
d="M1178 551h-482v-481h-63v481h-481v63h481v482h63v-482h482v-63z" />
    <glyph glyph-name="comma" unicode="," horiz-adv-x="448" 
d="M207 57q0 -77 -47 -174t-115 -178h-65q47 54 86 130t49 151q-27 0 -47.5 14t-20.5 45q0 38 23 61t65 23q37 0 54.5 -20.5t17.5 -51.5z" />
    <glyph glyph-name="hyphen" unicode="-" horiz-adv-x="720" 
d="M639 473h-578l19 84h577z" />
    <glyph glyph-name="period" unicode="." horiz-adv-x="448" 
d="M217 76q0 -90 -94 -90q-31 0 -49.5 13t-18.5 38q0 92 95 92q67 0 67 -53z" />
    <glyph glyph-name="slash" unicode="/" horiz-adv-x="690" 
d="M961 1520l-1137 -1819h-76l1137 1819h76z" />
    <glyph glyph-name="zero" unicode="0" horiz-adv-x="1181" 
d="M1104 770q0 -97 -14 -190t-42.5 -184t-77.5 -167.5t-114.5 -135t-158 -91.5t-203.5 -33q-207 0 -307.5 115t-100.5 309q0 116 19.5 226t66 215.5t115.5 183.5t175 126t238 48q197 0 300.5 -117t103.5 -305zM514 39q94 0 172 30.5t132.5 84.5t95.5 123.5t64.5 153
t34.5 167.5t11 172q0 165 -84 258.5t-248 93.5q-112 0 -203.5 -44t-150.5 -115.5t-98.5 -167t-56.5 -193t-17 -199.5q0 -364 348 -364z" />
    <glyph glyph-name="one" unicode="1" horiz-adv-x="878" 
d="M655 0h-608l14 63h289l197 967q-61 -51 -156 -93t-192 -65l12 66q255 74 410 260h36l-233 -1135h246z" />
    <glyph glyph-name="two" unicode="2" horiz-adv-x="1015" 
d="M844 0h-907l14 70q50 34 228.5 153t264.5 178q131 91 204.5 148t133 119t82.5 118t23 123q0 99 -72 158t-209 59q-130 0 -225.5 -45t-181.5 -127l-47 52q84 84 192 135t266 51q164 0 259.5 -75t95.5 -202q0 -69 -21.5 -128.5t-67.5 -115t-98 -101t-133 -105.5
q-228 -170 -577 -395h788z" />
    <glyph glyph-name="three" unicode="3" horiz-adv-x="1079" 
d="M893 201q0 -248 -149 -394.5t-408 -146.5q-132 0 -238.5 52.5t-173.5 154.5l66 41q118 -178 352 -178q217 0 344 122.5t127 342.5q0 145 -92.5 225t-261.5 80q-56 0 -148 -15l4 19l615 588h-703l15 69h794l-14 -69l-549 -531q197 0 308.5 -99.5t111.5 -260.5z" />
    <glyph glyph-name="four" unicode="4" horiz-adv-x="1054" 
d="M903 63h-176l-84 -403h-70l84 403h-706l12 68l907 1079h91l-222 -1079h176zM670 131l198 977l-819 -977h621z" />
    <glyph glyph-name="five" unicode="5" horiz-adv-x="1069" 
d="M918 207q0 -252 -153.5 -399.5t-418.5 -147.5q-66 0 -125.5 14t-101 35t-77 49.5t-56.5 52t-37 48.5l63 43q113 -172 336 -172q232 0 362 124t130 339q0 148 -86 231.5t-254 83.5q-192 0 -350 -117h-23l227 770h686l-14 -69h-627l-170 -592q135 73 295 73
q180 0 287 -100.5t107 -265.5z" />
    <glyph glyph-name="six" unicode="6" 
d="M834 1452q-120 0 -228.5 -61.5t-188.5 -164t-137.5 -227t-86.5 -260.5q98 84 225 131.5t252 47.5q185 0 291 -102.5t106 -280.5q0 -95 -19.5 -178.5t-61.5 -155t-103.5 -123t-150 -80.5t-197.5 -29q-208 0 -327.5 142t-119.5 376q0 110 23.5 228t67 233.5t111 218.5
t149 182t188 125t221.5 46q212 0 330 -127l-58 -52q-100 111 -286 111zM647 848q-126 0 -250.5 -53.5t-220.5 -143.5q-10 -85 -10 -151q0 -93 22 -174t67 -146t121 -103t175 -38q108 0 192.5 37.5t137 104t79.5 153.5t27 190q0 71 -18 128t-56.5 102t-106 69.5t-159.5 24.5z
" />
    <glyph glyph-name="seven" unicode="7" horiz-adv-x="1091" 
d="M1098 1092l-875 -1432h-90l883 1432h-733l-47 -228h-70l59 297h887z" />
    <glyph glyph-name="eight" unicode="8" horiz-adv-x="1155" 
d="M248 1128q0 124 68 214.5t177.5 134t245.5 43.5q189 0 295.5 -90.5t106.5 -227.5q0 -69 -24 -127.5t-61.5 -99.5t-96 -77t-115.5 -59.5t-131 -47.5q315 -133 315 -371q0 -208 -155.5 -329.5t-395.5 -121.5q-195 0 -312.5 95.5t-117.5 244.5q0 83 27 152.5t69 117.5
t109 90t130 69t148 55q-50 21 -95 50t-89.5 70.5t-71 97t-26.5 117.5zM125 322q0 -129 97.5 -208t258.5 -79q92 0 175 23.5t149 68t104.5 116t38.5 160.5q0 242 -325 359q-60 -19 -100.5 -33.5t-97.5 -39t-95 -47.5t-80 -57.5t-67 -71.5t-41.5 -86t-16.5 -105zM1063 1190
q0 120 -81.5 192t-244.5 72q-63 0 -121 -11t-111 -35.5t-92 -60.5t-62 -90t-23 -120q0 -96 65 -172t232 -142q44 14 64 20.5t64.5 23t67.5 27.5t61.5 31t59.5 37.5t47.5 43.5t40 52.5t23.5 60.5t10 71z" />
    <glyph glyph-name="nine" unicode="9" horiz-adv-x="1187" 
d="M350 -272q119 0 226 54.5t187 149t137 218.5t85 266q-97 -82 -223 -128t-250 -46q-185 0 -292 105.5t-107 279.5q0 91 19 172.5t61 153.5t103 124.5t150 82.5t197 30q202 0 323 -135t121 -381q0 -137 -29 -277.5t-90.5 -273t-147 -235.5t-209.5 -165.5t-267 -62.5
q-107 0 -196 41t-138 92l51 51q116 -116 289 -116zM535 311q118 0 243.5 52.5t220.5 138.5q11 97 11 164q0 98 -22 178.5t-66.5 143t-118 97.5t-170.5 35q-108 0 -193.5 -38t-138.5 -103.5t-80.5 -150t-27.5 -181.5q0 -72 17 -130t55 -105.5t106.5 -74t163.5 -26.5z" />
    <glyph glyph-name="colon" unicode=":" horiz-adv-x="448" 
d="M217 76q0 -90 -94 -90q-31 0 -49.5 13t-18.5 38q0 92 95 92q67 0 67 -53zM379 883q0 -90 -94 -90q-31 0 -49.5 13t-18.5 38q0 92 94 92q68 0 68 -53z" />
    <glyph glyph-name="semicolon" unicode=";" horiz-adv-x="448" 
d="M352 883q0 -90 -94 -90q-31 0 -49.5 13t-18.5 38q0 92 95 92q67 0 67 -53zM207 57q0 -77 -47 -174t-115 -178h-65q47 54 86 130t49 151q-27 0 -47.5 14t-20.5 45q0 38 23 61t65 23q37 0 54.5 -20.5t17.5 -51.5z" />
    <glyph glyph-name="less" unicode="&#x3c;" horiz-adv-x="1329" 
d="M1116 109l-1026 460v27l1026 459v-70l-911 -403l911 -404v-69z" />
    <glyph glyph-name="equal" unicode="=" horiz-adv-x="1329" 
d="M1178 776h-1026v64h1026v-64zM1178 326h-1026v63h1026v-63z" />
    <glyph glyph-name="greater" unicode="&#x3e;" horiz-adv-x="1329" 
d="M1219 569l-1026 -460v69l911 404l-911 403v70l1026 -459v-27z" />
    <glyph glyph-name="question" unicode="?" horiz-adv-x="925" 
d="M946 1212q0 -105 -43 -186.5t-133 -161.5q-114 -101 -369 -235l-49 -246h-63l57 287q14 7 50 25.5t52.5 27t47.5 25.5t51 29.5t46.5 30t49.5 34.5q70 51 116 97.5t78.5 115.5t32.5 149q0 112 -70 182t-214 70q-122 0 -203 -39.5t-145 -107.5l-48 43q154 168 400 168
q170 0 263 -85t93 -223zM348 74q0 -88 -92 -88q-31 0 -49.5 13t-18.5 38q0 88 91 88q69 0 69 -51z" />
    <glyph glyph-name="at" unicode="@" horiz-adv-x="2011" 
d="M1939 829q0 -66 -6.5 -138t-24 -157.5t-44 -163.5t-69.5 -152.5t-97.5 -128.5t-132 -87t-168.5 -33q-86 0 -128 42t-42 116q0 27 6 57q-190 -184 -399 -184q-137 0 -211 98t-74 260q0 98 22.5 196.5t70 190t114 162t161.5 112.5t205 42q77 0 144.5 -26.5t136.5 -94.5
l20 92h90l-192 -792q-18 -77 -18 -111q0 -98 114 -98q90 0 166.5 51.5t128 134t87.5 188t52.5 211.5t16.5 207q0 294 -167 464.5t-489 170.5q-172 0 -329.5 -60t-279 -166t-212 -245.5t-138.5 -304.5t-48 -336q0 -314 185 -497t509 -183q220 0 412 58v-66q-116 -27 -209 -40
t-217 -13q-229 0 -400 90.5t-261.5 254t-90.5 378.5q0 241 84 461t228 380.5t346 255.5t428 95q176 0 314 -51t226.5 -143.5t134 -218.5t45.5 -278zM1382 868q-123 123 -266 123q-92 0 -171.5 -36.5t-135.5 -99t-96 -144t-59 -172t-19 -183.5q0 -140 57.5 -212t169.5 -72
q100 0 201 59t188 150z" />
    <glyph glyph-name="A" unicode="A" horiz-adv-x="1245" 
d="M1036 0l-82 504h-675l-287 -504h-84l862 1489h90l252 -1489h-76zM805 1423l-488 -854h627z" />
    <glyph glyph-name="B" unicode="B" horiz-adv-x="1294" 
d="M1171 467q0 -140 -69 -239.5t-193 -155.5q-158 -72 -440 -72h-387l301 1489h379q158 0 240.5 -25.5t134.5 -77.5q75 -75 75 -204q0 -154 -93.5 -257.5t-270.5 -138.5q151 -19 237 -103t86 -216zM322 817h315q144 0 254 37t178 120t68 204q0 111 -68 172q-79 73 -297 73
h-328zM168 70h305q249 0 381 51q238 93 238 340q0 149 -114 220t-351 71h-320z" />
    <glyph glyph-name="C" unicode="C" horiz-adv-x="1273" 
d="M1339 1260l-65 -39q-17 40 -36.5 71t-51.5 61.5t-72 51t-98.5 33t-130.5 12.5q-201 0 -355.5 -118.5t-236.5 -323t-82 -461.5q0 -109 26.5 -200t80.5 -160.5t142 -108.5t204 -39q190 0 358 127l39 -62q-99 -69 -190.5 -102t-215.5 -33q-247 0 -384.5 153t-137.5 415
q0 154 30 297.5t92.5 268t151 217.5t212.5 146.5t270 53.5q345 0 450 -260z" />
    <glyph glyph-name="D" unicode="D" horiz-adv-x="1417" 
d="M1346 885q0 -207 -68.5 -375.5t-177.5 -278.5q-121 -123 -287 -177t-405 -54h-326l301 1489h289q191 0 316.5 -40.5t211.5 -129.5q72 -75 109 -188t37 -246zM416 70q206 0 363 48.5t272 166.5q101 104 159 260.5t58 343.5q0 244 -131 381q-75 78 -185 113.5t-280 35.5
h-228l-276 -1349h248z" />
    <glyph glyph-name="E" unicode="E" horiz-adv-x="1189" 
d="M930 0h-848l301 1489h848l-12 -70h-775l-120 -590h708l-14 -69h-709l-141 -690h774z" />
    <glyph glyph-name="F" unicode="F" horiz-adv-x="1157" 
d="M1217 1419h-773l-116 -571h698l-14 -70h-699l-157 -778h-74l301 1489h846z" />
    <glyph glyph-name="G" unicode="G" horiz-adv-x="1394" 
d="M1343 1266l-65 -39q-103 223 -389 223q-146 0 -270 -62t-214 -175.5t-141 -282.5t-51 -375q0 -108 26 -199t79 -163t143.5 -113t210.5 -41q182 0 403 113l88 434h-375l13 65h448l-108 -538q-234 -144 -482 -144q-131 0 -232.5 44t-165 123t-96 184.5t-32.5 232.5
q0 149 27.5 287.5t88.5 263t149 216.5t216.5 146t284.5 54q323 0 444 -254z" />
    <glyph glyph-name="H" unicode="H" horiz-adv-x="1394" 
d="M1094 0h-74l149 735h-864l-149 -735h-74l301 1489h74l-140 -688h865l139 688h74z" />
    <glyph glyph-name="I" unicode="I" horiz-adv-x="661" 
d="M422 0h-432l12 63h178l277 1362h-181l13 64h434l-12 -64h-181l-276 -1362h180z" />
    <glyph glyph-name="J" unicode="J" horiz-adv-x="772" 
d="M545 328q-17 -84 -43 -145.5t-69 -111.5t-109 -76t-154 -26q-116 0 -211 56l41 63q76 -49 176 -49q136 0 200.5 74t98.5 241l219 1071h-51q-128 0 -216.5 -25t-176.5 -85l-35 55q86 61 187.5 90t238.5 29h139z" />
    <glyph glyph-name="K" unicode="K" horiz-adv-x="1245" 
d="M1296 1489l-594 -563l388 -926h-84l-359 874l-389 -368l-102 -506h-74l301 1489h74l-178 -879l919 879h98z" />
    <glyph glyph-name="L" unicode="L" horiz-adv-x="1015" 
d="M891 0h-809l301 1489h74l-289 -1419h735z" />
    <glyph glyph-name="M" unicode="M" horiz-adv-x="1638" 
d="M1337 0h-73l286 1409l-727 -956h-71l-312 954l-284 -1407h-74l301 1489h109l311 -954l723 954h112z" />
    <glyph glyph-name="N" unicode="N" horiz-adv-x="1376" 
d="M1075 0h-102l-535 1391l-282 -1391h-74l301 1489h94l541 -1405l285 1405h73z" />
    <glyph glyph-name="O" unicode="O" horiz-adv-x="1499" 
d="M1427 938q0 -221 -70 -426t-192 -330q-206 -213 -508 -213q-130 0 -232 46t-165 125.5t-95 182t-32 220.5q0 221 68.5 424.5t201.5 343.5q202 209 494 209q112 0 202 -31.5t150.5 -85.5t101 -128.5t58.5 -158.5t18 -178zM674 41q250 0 428 178q117 117 181.5 307
t64.5 412q0 105 -25 193.5t-78 161t-144.5 114t-213.5 41.5q-123 0 -233.5 -47.5t-194.5 -138.5q-118 -128 -183 -311t-65 -400q0 -146 50 -259.5t156.5 -182t256.5 -68.5z" />
    <glyph glyph-name="P" unicode="P" horiz-adv-x="1200" 
d="M1200 1124q0 -112 -35 -197.5t-94.5 -139t-147 -87.5t-183.5 -47.5t-214 -13.5h-241l-129 -639h-74l301 1489h360q257 0 365 -117q92 -99 92 -248zM299 707h147q86 0 151 3t138.5 13.5t126.5 28t104.5 48.5t83 73.5t51 104.5t19.5 140q0 134 -84 215q-91 88 -315 88h-277
z" />
    <glyph glyph-name="Q" unicode="Q" horiz-adv-x="1499" 
d="M1427 938q0 -221 -70 -426t-192 -330q-201 -207 -497 -213q-21 -54 -21 -84q0 -68 64.5 -96.5t216.5 -28.5q124 0 252 35l6 -69q-43 -13 -125.5 -23t-165.5 -10q-164 0 -247 41t-83 133q0 51 27 106q-114 11 -203 60t-144.5 127t-83.5 175t-28 208q0 221 68.5 424.5
t201.5 343.5q202 209 494 209q112 0 202 -31.5t150.5 -85.5t101 -128.5t58.5 -158.5t18 -178zM674 41q250 0 428 178q117 117 181.5 307t64.5 412q0 105 -25 193.5t-78 161t-144.5 114t-213.5 41.5q-123 0 -233.5 -47.5t-194.5 -138.5q-118 -128 -183 -311t-65 -400
q0 -146 50 -259.5t156.5 -182t256.5 -68.5z" />
    <glyph glyph-name="R" unicode="R" horiz-adv-x="1294" 
d="M1063 0h-78l-27 440q-6 115 -48 166t-154 51h-467l-133 -657h-74l301 1489h399q257 0 371 -111q90 -90 90 -235q0 -344 -356 -445q39 -10 66.5 -30t42 -48t21 -56t9.5 -64zM301 725h313q96 0 176.5 13t150.5 43t118.5 76.5t76 117t27.5 160.5q0 128 -76 198
q-93 88 -313 88h-330z" />
    <glyph glyph-name="S" unicode="S" horiz-adv-x="1241" 
d="M1081 436q0 -145 -70 -252t-187.5 -161t-266.5 -54q-86 0 -162.5 17.5t-131.5 46.5t-99.5 68t-72 78.5t-44.5 82.5l68 37q52 -116 165.5 -189t290.5 -73q86 0 162 24t136 70.5t95 123t35 173.5q0 48 -11 87t-35.5 70t-53 54.5t-73.5 45.5t-86 37.5t-101 35.5
q-59 19 -99.5 35t-90.5 39.5t-83 49.5t-63 60t-44.5 77.5t-14.5 94.5q0 126 68 219.5t179 140t248 46.5q184 0 299.5 -79.5t165.5 -201.5l-67 -35q-50 114 -149.5 181t-248.5 67q-190 0 -303.5 -90t-113.5 -240q0 -49 19 -89.5t46.5 -68.5t76 -54t91 -43t107.5 -38
q60 -20 103.5 -37.5t96 -43t88.5 -55t67.5 -67t47.5 -86t16 -104.5z" />
    <glyph glyph-name="T" unicode="T" horiz-adv-x="1079" 
d="M1247 1419h-499l-289 -1419h-74l289 1419h-500l12 70h1074z" />
    <glyph glyph-name="U" unicode="U" horiz-adv-x="1355" 
d="M1180 569q-33 -160 -80.5 -270.5t-119 -185.5t-169 -109.5t-229.5 -34.5q-119 0 -202.5 28t-130 81t-67 119t-20.5 153q0 102 31 250l180 889h73l-176 -868q-34 -163 -34 -269q0 -72 16.5 -126t55.5 -98t109.5 -66.5t172.5 -22.5q122 0 209 34t146.5 107t96.5 168.5
t66 237.5l184 903h74z" />
    <glyph glyph-name="V" unicode="V" horiz-adv-x="1173" 
d="M1337 1489l-815 -1489h-96l-211 1489h76l194 -1413l772 1413h80z" />
    <glyph glyph-name="W" unicode="W" horiz-adv-x="1759" 
d="M1903 1489l-676 -1489h-107l-153 1016l-576 -1016h-104l-51 1489h73l47 -1415l572 1011h104l152 -1009l643 1413h76z" />
    <glyph glyph-name="X" unicode="X" horiz-adv-x="1185" 
d="M-66 0l644 758l-338 731h82l309 -670l567 670h92l-626 -739l348 -750h-82l-320 688l-583 -688h-93z" />
    <glyph glyph-name="Y" unicode="Y" horiz-adv-x="1140" 
d="M1292 1489l-706 -879l-123 -610h-74l123 608l-356 881h77l326 -801l645 801h88z" />
    <glyph glyph-name="Z" unicode="Z" horiz-adv-x="1134" 
d="M952 0h-985l10 55l1133 1364h-821l12 70h932l-6 -37l-1145 -1382h883z" />
    <glyph glyph-name="bracketleft" unicode="[" horiz-adv-x="655" 
d="M451 -395h-420l383 1884h420l-13 -62h-346l-358 -1761h346z" />
    <glyph glyph-name="backslash" unicode="\" horiz-adv-x="690" 
d="M594 -299h-66l-397 1819h66z" />
    <glyph glyph-name="bracketright" unicode="]" horiz-adv-x="655" 
d="M231 -395h-417l12 61h344l358 1761h-346l13 62h419z" />
    <glyph glyph-name="asciicircum" unicode="^" horiz-adv-x="1126" 
d="M1001 711h-63l-346 745l-348 -745h-64l367 790h88z" />
    <glyph glyph-name="underscore" unicode="_" horiz-adv-x="1024" 
d="M934 -256h-1049v102h1049v-102z" />
    <glyph glyph-name="grave" unicode="`" horiz-adv-x="1024" 
d="M549 1208h-62l-219 361h115z" />
    <glyph glyph-name="a" unicode="a" horiz-adv-x="1107" 
d="M1036 1030l-207 -1030h-55l27 178q-189 -209 -381 -209q-109 0 -185.5 56.5t-110.5 147t-34 206.5q0 94 21 188.5t66.5 184t109 158t156.5 110t202 41.5q156 0 318 -66l47 35h26zM948 932q-82 33 -148 49t-155 16t-167 -34.5t-134.5 -94.5t-97.5 -138.5t-61.5 -168
t-20.5 -182.5q0 -165 68 -254.5t198 -89.5q98 0 190.5 61t192.5 174z" />
    <glyph glyph-name="b" unicode="b" horiz-adv-x="1146" 
d="M1057 659q0 -107 -22 -207t-68.5 -188t-113.5 -153.5t-162.5 -103.5t-209.5 -38q-164 0 -323 68l-49 -51h-31l305 1503h70l-127 -615q87 81 193.5 134t215.5 53q165 0 243.5 -107.5t78.5 -294.5zM485 35q154 0 268 80.5t172 219t58 316.5q0 72 -12.5 130.5t-40 108
t-78 76.5t-121.5 27q-198 0 -422 -205l-137 -684q152 -69 313 -69z" />
    <glyph glyph-name="c" unicode="c" horiz-adv-x="972" 
d="M981 891l-61 -37q-81 139 -267 139q-120 0 -215 -50.5t-154 -136t-89.5 -192.5t-30.5 -225q0 -153 80 -252.5t229 -99.5q85 0 150.5 25.5t134.5 74.5l35 -59q-147 -109 -318 -109q-187 0 -286 115t-99 299q0 100 20 195t65 183.5t110 154.5t162 105.5t215 39.5
q110 0 194 -46.5t125 -123.5z" />
    <glyph glyph-name="d" unicode="d" horiz-adv-x="1142" 
d="M1153 1489l-303 -1489h-55l26 178q-189 -209 -393 -209q-165 0 -251.5 112t-86.5 298q0 93 22 187.5t68.5 183.5t111 158t158.5 111t203 42q168 0 330 -66l102 494h68zM969 932q-162 65 -316 65q-111 0 -204.5 -53t-155 -141t-95.5 -198t-34 -226q0 -170 71 -257t203 -87
q188 0 396 235z" />
    <glyph glyph-name="e" unicode="e" horiz-adv-x="1001" 
d="M365 481l-199 -12q-4 -62 -4 -94q0 -159 78 -249.5t233 -90.5q75 0 136.5 22t131.5 72l41 -55q-139 -105 -323 -105q-165 0 -267 100t-102 293q0 106 22.5 207t69 190.5t112 156.5t158 106t199.5 39q83 0 147 -20.5t100.5 -55.5t54.5 -76.5t18 -87.5q0 -107 -55.5 -175.5
t-190 -110.5t-360.5 -54zM897 813q0 34 -12 64.5t-39 58.5t-78.5 44.5t-122.5 16.5q-180 0 -305.5 -132.5t-163.5 -336.5l164 11q309 19 433 79.5t124 194.5z" />
    <glyph glyph-name="f" unicode="f" horiz-adv-x="628" 
d="M129 -68l211 1035h-172l12 63h172l33 162q38 184 120.5 256t217.5 72q47 0 98.5 -11t83.5 -26l-31 -62q-92 39 -165 39q-112 0 -169 -66t-85 -202l-33 -162h266l-12 -63h-266l-211 -1035q-19 -95 -52 -160.5t-78.5 -101t-95.5 -50.5t-114 -15q-96 0 -176 37l24 63
q88 -39 166 -39q109 0 169 66.5t87 199.5z" />
    <glyph glyph-name="g" unicode="g" horiz-adv-x="1148" 
d="M1221 1020l-15 -55q-54 20 -82 20q-47 0 -68 -28.5t-40 -116.5l-170 -840q-40 -199 -146 -297t-317 -98q-98 0 -191 22t-135 45l29 64q122 -64 303 -64q174 0 265 77t126 253l41 201q-93 -101 -188.5 -152t-208.5 -51q-159 0 -246.5 105t-87.5 264q0 100 22.5 198.5
t69 187.5t111.5 157t157.5 108.5t200.5 40.5q173 0 324 -109q36 90 145 90q45 0 101 -22zM840 299l116 584q-131 114 -319 114q-89 0 -166 -36t-132.5 -97t-95.5 -141t-59.5 -170t-19.5 -182q0 -131 68 -218t196 -87q103 0 197 53.5t215 179.5z" />
    <glyph glyph-name="h" unicode="h" horiz-adv-x="1142" 
d="M868 0h-67l129 643q24 118 24 168q0 91 -46 139.5t-156 48.5q-193 0 -447 -219l-158 -780h-69l301 1489h67l-127 -629q134 111 242 156t213 45q121 0 185.5 -65t64.5 -158q0 -75 -18 -160z" />
    <glyph glyph-name="i" unicode="i" horiz-adv-x="497" 
d="M201 0h-68l172 850q19 89 19 108q0 20 -6.5 29.5t-24.5 9.5q-40 0 -146 -67l-24 47q131 84 196 84q76 0 76 -80q0 -30 -16 -104zM467 1346q0 -80 -70 -80q-28 0 -40.5 12t-12.5 39q0 78 70 78q53 0 53 -49z" />
    <glyph glyph-name="j" unicode="j" horiz-adv-x="518" 
d="M397 877l-196 -965q-34 -162 -105 -234.5t-215 -72.5q-48 0 -96.5 8.5t-71.5 19.5l29 64q64 -27 158 -27q59 0 99 16.5t67.5 55.5t44 88t32.5 127l181 895q18 85 18 109q0 36 -31 36q-39 0 -145 -67l-25 47q131 84 197 84q76 0 76 -80q0 -25 -17 -104zM487 1346
q0 -80 -69 -80q-28 0 -40.5 12t-12.5 39q0 78 69 78q53 0 53 -49z" />
    <glyph glyph-name="k" unicode="k" horiz-adv-x="952" 
d="M952 1030l-454 -424l250 -518q21 -47 63 -47q20 0 53 10l10 -57q-66 -17 -83 -17q-37 0 -64 24.5t-51 76.5l-227 481l-234 -219l-68 -340h-69l301 1489h70l-216 -1049l625 590h94z" />
    <glyph glyph-name="l" unicode="l" horiz-adv-x="514" 
d="M408 -16q-62 -15 -129 -15q-166 0 -166 168q0 39 22 158l236 1159l82 64l-246 -1203q-25 -122 -25 -170q0 -55 25 -84.5t88 -29.5q52 0 104 14z" />
    <glyph glyph-name="m" unicode="m" horiz-adv-x="1718" 
d="M1446 0h-68l127 623q27 132 27 196q0 93 -39.5 136.5t-130.5 43.5q-84 0 -200 -69.5t-214 -159.5q-3 -14 -9 -54.5t-9 -56.5l-133 -659h-70l127 623q23 113 23 188q0 99 -37 143.5t-125 44.5q-49 0 -105 -20t-113 -56.5t-99 -68t-93 -74.5l-158 -780h-69l209 1030h67
l-35 -170q119 104 217 152.5t195 48.5q213 0 213 -223q244 223 430 223q225 0 225 -238q0 -65 -16 -153z" />
    <glyph glyph-name="n" unicode="n" horiz-adv-x="1142" 
d="M1024 834q0 -59 -18 -154l-138 -680h-67l139 694q14 79 14 123q0 182 -198 182q-110 0 -233 -66.5t-218 -152.5l-158 -780h-69l209 1030h67l-35 -170q221 201 457 201q122 0 185 -60.5t63 -166.5z" />
    <glyph glyph-name="o" unicode="o" horiz-adv-x="1114" 
d="M1024 662q0 -102 -21 -200.5t-66 -188t-108.5 -157t-155.5 -107.5t-200 -40q-172 0 -277.5 106t-105.5 294q0 101 20.5 198.5t65 187.5t108.5 157.5t158 108t207 40.5q165 0 270 -106t105 -293zM487 37q138 0 245 86t162.5 227t55.5 309q0 150 -79.5 242t-233.5 92
q-111 0 -202 -51.5t-149.5 -138t-90 -196.5t-31.5 -230q0 -158 80 -249t243 -91z" />
    <glyph glyph-name="p" unicode="p" horiz-adv-x="1146" 
d="M1057 678q0 -104 -19.5 -203.5t-63.5 -192t-106.5 -161.5t-156 -110.5t-205.5 -41.5q-90 0 -177 39t-157 105l-102 -508h-72l291 1425h35l18 -100q97 65 187 98t194 33q88 0 154.5 -32t104.5 -87.5t56.5 -121.5t18.5 -142zM518 37q114 0 205 55t146 146.5t83.5 201.5
t28.5 228q0 68 -13.5 123.5t-43.5 102.5t-84 73t-129 26q-99 0 -186.5 -33.5t-200.5 -113.5l-136 -656q60 -64 144 -108.5t186 -44.5z" />
    <glyph glyph-name="q" unicode="q" horiz-adv-x="1128" 
d="M768 -395h-70l121 569q-79 -89 -180.5 -147t-216.5 -58q-84 0 -149 33t-104 90t-59 128.5t-20 154.5q0 97 22.5 193t69.5 185t113 157.5t160.5 109.5t203.5 41q159 0 324 -66l47 35h27zM834 270l133 660q-3 1 -37 14t-53 18.5t-56.5 15t-78.5 13.5t-87 4
q-93 0 -173.5 -35t-137.5 -95.5t-98.5 -140.5t-61.5 -169.5t-20 -183.5q0 -96 26 -169t88 -120t156 -47q189 0 400 235z" />
    <glyph glyph-name="r" unicode="r" horiz-adv-x="706" 
d="M768 1032l-27 -65q-31 8 -59 8q-76 0 -165.5 -62.5t-217.5 -189.5l-149 -723h-72l209 1030h71l-43 -217q131 133 215.5 183.5t165.5 50.5q42 0 72 -15z" />
    <glyph glyph-name="s" unicode="s" horiz-adv-x="921" 
d="M778 266q0 -144 -107.5 -220.5t-289.5 -76.5q-122 0 -215.5 43.5t-145.5 120.5l58 39q99 -137 307 -137q67 0 122 11.5t101.5 37t72.5 71.5t26 109q0 38 -16.5 69.5t-39 52.5t-67.5 44t-78.5 36.5t-95.5 35.5q-113 40 -178.5 101t-65.5 157q0 75 32 134t85.5 94.5
t117.5 54t134 18.5q104 0 195 -40t140 -114l-57 -39q-93 127 -287 127q-122 0 -204 -60.5t-82 -168.5q0 -73 53.5 -121t144.5 -82q53 -19 78 -29t69 -29t65.5 -33.5t50.5 -37.5t42.5 -46t24 -54.5t10.5 -67.5z" />
    <glyph glyph-name="t" unicode="t" horiz-adv-x="673" 
d="M520 -4q-93 -27 -178 -27q-97 0 -147 38.5t-50 123.5q0 28 23 141l141 695h-217l12 63h218l69 318l80 53l-80 -371h273l-13 -63h-272l-141 -693q-19 -111 -19 -129q0 -54 29.5 -82t101.5 -28q86 0 156 24z" />
    <glyph glyph-name="u" unicode="u" horiz-adv-x="1130" 
d="M113 197q0 58 18 153l137 680h68l-139 -694q-15 -84 -15 -123q0 -182 207 -182q51 0 107.5 17t99 38t95 57.5t77 56t63.5 52.5l158 778h70l-209 -1030h-68l35 170q-51 -46 -111 -87t-154 -77.5t-181 -36.5q-126 0 -192 61t-66 167z" />
    <glyph glyph-name="v" unicode="v" horiz-adv-x="940" 
d="M991 1030l-598 -1030h-90l-180 1030h74l163 -960l553 960h78z" />
    <glyph glyph-name="w" unicode="w" horiz-adv-x="1380" 
d="M1421 1030l-442 -1030h-74l-178 725l-438 -725h-88l-37 1030h72l30 -940l432 717h78l176 -713l394 936h75z" />
    <glyph glyph-name="x" unicode="x" horiz-adv-x="890" 
d="M952 1030l-460 -518l245 -512h-80l-217 455l-403 -455h-88l461 520l-244 510h80l215 -452l399 452h92z" />
    <glyph glyph-name="y" unicode="y" horiz-adv-x="946" 
d="M997 1030l-641 -1104q-108 -187 -190 -254t-205 -67q-42 0 -83 8.5t-52 15.5l22 64q73 -25 132 -25q77 0 141.5 50.5t152.5 199.5l86 150l-233 962h72l215 -880l501 880h82z" />
    <glyph glyph-name="z" unicode="z" horiz-adv-x="880" 
d="M846 -111l-15 -61h-67q-61 0 -109 17.5t-84.5 43t-77.5 51t-108.5 43t-157.5 17.5h-237l16 80l799 889h-631l14 61h713l-16 -74l-807 -895h125q109 0 190.5 -17.5t127 -43t81.5 -51t76 -43t88 -17.5h80z" />
    <glyph glyph-name="braceleft" unicode="{" horiz-adv-x="737" 
d="M510 -395h-10q-117 0 -172.5 61t-55.5 172q0 47 13 117l39 188q14 66 14 125q0 124 -63 186t-171 62h-26l18 92h25q152 0 243.5 91.5t129.5 283.5l38 186q37 178 120 264.5t239 86.5h10l-12 -62h-15q-116 0 -182.5 -79.5t-99.5 -245.5l-33 -164q-39 -190 -124.5 -289
t-241.5 -119q215 -47 215 -272q0 -59 -15 -133l-33 -162q-18 -92 -18 -146q0 -93 38 -136.5t130 -43.5h14z" />
    <glyph glyph-name="bar" unicode="|" horiz-adv-x="741" 
d="M446 -395h-69v1915h69v-1915z" />
    <glyph glyph-name="braceright" unicode="}" horiz-adv-x="737" 
d="M219 1520h10q117 0 172.5 -61.5t55.5 -172.5q0 -47 -13 -117l-38 -188q-15 -71 -15 -125q0 -124 63 -186t171 -62h26l-18 -92h-25q-152 0 -243 -91t-129 -284l-39 -186q-37 -177 -120 -263.5t-239 -86.5h-10l12 61h15q116 0 182.5 79.5t99.5 246.5l33 164
q39 190 125 288.5t242 118.5q-215 47 -215 273q0 64 14 133l33 161q18 92 18 146q0 93 -38 136.5t-130 43.5h-14z" />
    <glyph glyph-name="asciitilde" unicode="~" horiz-adv-x="1296" 
d="M1161 578q-72 -66 -130 -86.5t-142 -20.5q-28 0 -59.5 6t-55 12.5t-55.5 20.5t-46.5 21t-44.5 22.5t-34 17.5q-124 62 -195 62q-80 0 -135.5 -26.5t-128.5 -102.5v80q41 45 108 76.5t152 31.5q33 0 65 -5.5t68 -19t53 -21t56.5 -27.5t42.5 -21q140 -68 217 -68
q79 0 140.5 29t123.5 98v-79z" />
    <glyph glyph-name="uni00A0" unicode="&#xa0;" horiz-adv-x="522" 
 />
    <glyph glyph-name="exclamdown" unicode="&#xa1;" horiz-adv-x="448" 
d="M41 -395l231 1106h66l-215 -1106h-82zM274 975q0 90 95 90q67 0 67 -51q0 -92 -94 -92q-68 0 -68 53z" />
    <glyph glyph-name="cent" unicode="&#xa2;" horiz-adv-x="978" 
d="M-51 -340l264 463q-131 113 -131 332q0 100 20 195t64.5 183.5t109.5 154.5t162 105.5t215 39.5q65 0 127 -19l232 406h69l-245 -428q92 -47 137 -129l-62 -37q-44 70 -110 104l-504 -876q70 -45 168 -45q85 0 150.5 25.5t134.5 74.5l34 -59q-147 -109 -317 -109
q-123 0 -205 49l-246 -430h-67zM156 461q0 -179 96 -271l491 863q-43 12 -98 12q-120 0 -215 -50.5t-154 -136t-89.5 -192.5t-30.5 -225z" />
    <glyph glyph-name="sterling" unicode="&#xa3;" horiz-adv-x="1150" 
d="M993 0h-989l16 76q96 41 170 143t109.5 219.5t38.5 231.5h-172l12 69h160q0 38 -8 122.5t-8 129.5q0 239 137 384t379 145q122 0 229 -53t162 -160l-64 -43q-105 186 -329 186q-204 0 -320.5 -120.5t-116.5 -334.5q0 -46 7.5 -137.5t7.5 -118.5h434l-12 -69h-422
q-3 -104 -33 -214t-97.5 -218.5t-160.5 -167.5h885z" />
    <glyph glyph-name="currency" unicode="&#xa4;" horiz-adv-x="1144" 
d="M1094 303l-47 -49l-201 201q-112 -86 -242 -86q-129 0 -239 88l-205 -203l-47 49l200 203q-88 110 -88 239q0 140 86 242l-198 203l47 47l200 -197q111 90 244 90q135 0 244 -88l199 195l47 -47l-195 -199q88 -109 88 -246q0 -122 -88 -243zM913 745q0 129 -86 223.5
t-223 94.5q-133 0 -220 -94.5t-87 -223.5q0 -127 89.5 -219t217.5 -92q133 0 221 91t88 220z" />
    <glyph glyph-name="yen" unicode="&#xa5;" horiz-adv-x="1236" 
d="M1389 1489l-578 -719h319l-12 -65h-360l-76 -95l-20 -106h415l-14 -66h-416l-88 -438h-74l88 438h-417l14 66h418l20 104l-37 97h-360l12 65h320l-291 719h84l323 -805l650 805h80z" />
    <glyph glyph-name="brokenbar" unicode="&#xa6;" horiz-adv-x="741" 
d="M446 883h-69v637h69v-637zM446 -395h-69v637h69v-637z" />
    <glyph glyph-name="section" unicode="&#xa7;" horiz-adv-x="958" 
d="M287 1194q0 104 58 179.5t149.5 111t203.5 35.5q104 0 187.5 -36.5t132.5 -88.5l-62 -47q-104 104 -268 104q-55 0 -109 -14t-103.5 -42t-80 -78t-30.5 -114q0 -54 28.5 -101.5t73.5 -84.5t100 -72.5t110 -73t100 -77.5t73.5 -94.5t28.5 -116.5q0 -57 -19.5 -108t-50 -89
t-79 -75.5t-94.5 -64t-110 -57.5q78 -60 120 -121t42 -139q0 -104 -58 -179t-150 -110.5t-204 -35.5q-104 0 -187 36.5t-132 88.5l61 47q105 -105 269 -105q55 0 109 14t103.5 42t80 78t30.5 114q0 54 -28.5 101.5t-73.5 84.5t-100 73t-110 73t-100 77.5t-73.5 95
t-28.5 116.5q0 57 19.5 107t49.5 88t78.5 75.5t95 64t110.5 58.5q-77 58 -119.5 119t-42.5 141zM803 575q0 34 -14 67t-31.5 56.5t-54.5 54.5t-60 47.5t-73 49.5t-70 47q-328 -143 -328 -348q0 -26 8 -51t19 -45.5t32 -43t38.5 -38.5t47.5 -38t49.5 -35t55 -36t53.5 -35
q47 21 84.5 40.5t85.5 53t80.5 68.5t55 84t22.5 102z" />
    <glyph glyph-name="dieresis" unicode="&#xa8;" horiz-adv-x="1024" 
d="M416 1329q0 -42 -21.5 -64t-60.5 -22q-64 0 -64 55q0 84 82 84q64 0 64 -53zM745 1329q0 -86 -81 -86q-64 0 -64 55q0 84 82 84q63 0 63 -53z" />
    <glyph glyph-name="copyright" unicode="&#xa9;" horiz-adv-x="1914" 
d="M1806 670q0 -170 -67 -327.5t-180 -270.5q-114 -114 -272.5 -182t-328.5 -68t-328 68t-272 182t-181.5 271t-67.5 327t67.5 328t179.5 272q114 114 272 182t330 68t329.5 -68t271.5 -182q112 -114 179.5 -272t67.5 -328zM1741 670q0 159 -62 304t-167 249.5t-250 166.5
t-304 62t-304 -62t-250.5 -166.5t-167.5 -249.5t-62 -304t62 -303.5t167.5 -248.5t250.5 -165.5t304 -61.5q213 0 393 104t285 283.5t105 391.5zM1317 983l-57 -43q-35 62 -98.5 103.5t-155.5 41.5q-178 0 -256 -106t-78 -307q0 -205 81 -306.5t255 -101.5q75 0 128 22.5
t109 63.5l41 -57q-69 -52 -134.5 -73t-143.5 -21q-203 0 -306.5 113.5t-103.5 359.5t103.5 363.5t306.5 117.5q217 0 309 -170z" />
    <glyph glyph-name="ordfeminine" unicode="&#xaa;" horiz-adv-x="727" 
d="M819 1499l-143 -674h-45l8 113q-121 -131 -262 -131q-62 0 -107 21.5t-69.5 60t-35.5 84t-11 100.5q0 79 24 156.5t69 142.5t119.5 105.5t165.5 40.5q106 0 222 -41l49 22h16zM739 1421q-98 41 -211 41q-75 0 -135.5 -37.5t-97 -96.5t-55.5 -125.5t-19 -129.5
q0 -209 168 -209q68 0 129 37.5t139 116.5z" />
    <glyph glyph-name="guillemotleft" unicode="&#xab;" horiz-adv-x="1017" 
d="M453 53h-84l-297 465l487 463h94l-489 -471zM858 53h-84l-297 465l488 463h94l-490 -471z" />
    <glyph glyph-name="logicalnot" unicode="&#xac;" horiz-adv-x="1329" 
d="M1178 326h-64v450h-962v64h1026v-514z" />
    <glyph glyph-name="uni00AD" unicode="&#xad;" horiz-adv-x="720" 
d="M639 473h-578l19 84h577z" />
    <glyph glyph-name="registered" unicode="&#xae;" horiz-adv-x="1914" 
d="M1806 670q0 -170 -67 -327.5t-180 -270.5q-114 -114 -272.5 -182t-328.5 -68t-328 68t-272 182t-181.5 271t-67.5 327t67.5 328t179.5 272q114 114 272 182t330 68t329.5 -68t271.5 -182q112 -114 179.5 -272t67.5 -328zM1741 670q0 159 -62 304t-167 249.5t-250 166.5
t-304 62t-304 -62t-250.5 -166.5t-167.5 -249.5t-62 -304t62 -303.5t167.5 -248.5t250.5 -165.5t304 -61.5q213 0 393 104t285 283.5t105 391.5zM1296 215h-73l-76 274q-18 65 -46 93t-79 28h-293v-395h-70v915h273q154 0 237.5 -57t83.5 -194q0 -186 -155 -240
q50 -13 73 -38.5t37 -76.5zM1184 883q0 100 -61.5 141t-200.5 41h-193v-389h191q154 0 209 42.5t55 164.5z" />
    <glyph glyph-name="macron" unicode="&#xaf;" horiz-adv-x="1024" 
d="M791 1350h-578l18 88h578z" />
    <glyph glyph-name="degree" unicode="&#xb0;" horiz-adv-x="735" 
d="M735 1237q0 -119 -83.5 -202t-198.5 -83q-118 0 -203.5 83t-85.5 202q0 117 85 200t202 83q119 0 201.5 -83.5t82.5 -199.5zM668 1233q0 91 -62.5 155t-152.5 64q-93 0 -157.5 -64t-64.5 -151q0 -91 65 -154t157 -63q91 0 153 62t62 151z" />
    <glyph glyph-name="plusminus" unicode="&#xb1;" horiz-adv-x="1329" 
d="M1178 524h-482v-383h-63v383h-481v64h481v436h63v-436h482v-64zM1178 0h-1026v63h1026v-63z" />
    <glyph glyph-name="twosuperior" unicode="&#xb2;" horiz-adv-x="890" 
d="M795 600h-695l15 68l315 206q20 13 57 36.5t58.5 37.5t55.5 36.5t54.5 38t48 38.5t44.5 41.5t35.5 42.5t29 46.5t17 48.5t6.5 52q0 78 -55.5 124t-170.5 46q-96 0 -169.5 -33.5t-147.5 -101.5l-39 39q150 154 362 154q135 0 211 -57.5t76 -157.5q0 -48 -14 -92.5
t-45.5 -85t-62 -72t-85 -70t-91 -62.5t-103.5 -65t-101 -63l-215 -138h621z" />
    <glyph glyph-name="threesuperior" unicode="&#xb3;" horiz-adv-x="870" 
d="M788 905q0 -104 -59 -181t-148 -113t-194 -36q-202 0 -289 132l54 36q70 -108 243 -108q62 0 117.5 14.5t103 44.5t75.5 83.5t28 123.5q0 170 -252 170q-68 0 -141 -16l4 20l458 369h-509l10 57h588l-11 -59l-395 -318q10 2 33 2q137 0 210.5 -60.5t73.5 -160.5z" />
    <glyph glyph-name="acute" unicode="&#xb4;" horiz-adv-x="1024" 
d="M813 1569l-358 -361h-72l305 361h125z" />
    <glyph glyph-name="mu" unicode="&#xb5;" horiz-adv-x="1157" 
d="M866 0h-71l28 143q-181 -174 -368 -174q-89 0 -157 29.5t-136 99.5l-101 -493h-71l289 1425h71l-172 -846q67 -80 134 -110.5t155 -30.5q169 0 373 184l164 803h71z" />
    <glyph glyph-name="paragraph" unicode="&#xb6;" horiz-adv-x="1138" 
d="M1276 1432h-217l-371 -1827h-72l371 1827h-256l-371 -1827h-71l221 1085q-164 5 -262 85.5t-98 234.5q0 213 147.5 346t380.5 133h610z" />
    <glyph glyph-name="periodcentered" unicode="&#xb7;" horiz-adv-x="448" 
d="M315 600q0 -90 -94 -90q-67 0 -67 51q0 92 94 92q67 0 67 -53z" />
    <glyph glyph-name="cedilla" unicode="&#xb8;" horiz-adv-x="1024" 
d="M688 -172q0 -102 -80.5 -162.5t-197.5 -60.5q-88 0 -203 39l35 61q93 -41 192 -41q74 0 129 40t55 112q0 53 -48 81.5t-113 28.5l59 92h59l-32 -49q145 -29 145 -141z" />
    <glyph glyph-name="onesuperior" unicode="&#xb9;" horiz-adv-x="757" 
d="M635 600h-471l10 51h223l150 729q-146 -102 -273 -125l11 52q191 59 327 213h23l-176 -869h186z" />
    <glyph glyph-name="ordmasculine" unicode="&#xba;" horiz-adv-x="743" 
d="M784 1257q0 -88 -22 -166t-65.5 -141.5t-116.5 -101t-168 -37.5q-126 0 -192 69.5t-66 190.5q0 86 21.5 164t64 143t116 103.5t168.5 38.5q121 0 190.5 -71t69.5 -192zM420 868q74 0 132.5 32t93.5 86.5t53 121t18 139.5q0 95 -50 155t-151 60q-74 0 -132 -32.5t-93 -87
t-52.5 -121.5t-17.5 -140q0 -42 9.5 -77.5t31 -67.5t62 -50t96.5 -18z" />
    <glyph glyph-name="guillemotright" unicode="&#xbb;" horiz-adv-x="1017" 
d="M565 981h84l297 -465l-487 -463h-94l489 471zM160 981h84l297 -465l-488 -463h-94l490 471z" />
    <glyph glyph-name="onequarter" unicode="&#xbc;" horiz-adv-x="2000" 
d="M662 600h-472l11 51h223l147 723q-137 -95 -270 -119l10 52q199 61 328 213h23l-177 -869h187zM1638 1489l-1165 -1798h-78l1166 1798h77zM1767 -70h-149l-55 -272h-58l56 272h-482l11 52l628 620h45l-135 -620h150zM1571 -18l115 516l-525 -516h410z" />
    <glyph glyph-name="onehalf" unicode="&#xbd;" horiz-adv-x="2000" 
d="M1616 1489l-1165 -1798h-78l1165 1798h78zM645 600h-471l10 51h224l147 723q-137 -95 -270 -119l10 52q199 61 328 213h22l-176 -869h186zM1808 -315h-692l14 67q242 160 369 246q76 52 121 84t95 73.5t76 74t43 71t17 78.5q0 78 -55 125t-166 47q-101 0 -176 -36
t-147 -105l-39 41q149 153 366 153q132 0 207.5 -59.5t75.5 -155.5q0 -36 -12 -71.5t-27.5 -64.5t-47 -63t-55 -56t-68 -55.5t-69 -50.5l-73.5 -51q-61 -42 -110 -74t-120.5 -77.5t-130.5 -83.5h617z" />
    <glyph glyph-name="threequarters" unicode="&#xbe;" horiz-adv-x="2000" 
d="M1681 1489l-1165 -1798h-78l1166 1798h77zM748 907q0 -153 -110 -239t-278 -86q-104 0 -181.5 39.5t-117.5 105.5l54 37q81 -125 258 -125q61 0 113.5 14.5t96.5 44t69.5 82.5t25.5 123q0 170 -242 170q-71 0 -147 -22l4 18l463 375h-518l10 57h600l-10 -59l-398 -322
q10 2 33 2q128 0 201.5 -58t73.5 -157zM1788 -70h-150l-55 -272h-57l55 272h-481l10 52l629 620h45l-135 -620h149zM1591 -18l115 516l-524 -516h409z" />
    <glyph glyph-name="questiondown" unicode="&#xbf;" horiz-adv-x="925" 
d="M12 -88q0 105 43 186.5t133 161.5q117 103 369 236l49 245h64l-58 -286q-206 -107 -297 -172q-70 -50 -116 -97t-78.5 -116.5t-32.5 -149.5q0 -112 70.5 -182t214.5 -70q122 0 202.5 40t145.5 108l47 -43q-154 -168 -399 -168q-170 0 -263.5 84.5t-93.5 222.5zM604 977
q0 88 92 88q31 0 49.5 -13t18.5 -38q0 -88 -90 -88q-30 0 -50 12.5t-20 38.5z" />
    <glyph glyph-name="Agrave" unicode="&#xc0;" horiz-adv-x="1245" 
d="M1036 0l-82 504h-675l-287 -504h-84l862 1489h90l252 -1489h-76zM805 1423l-488 -854h627zM883 1597h-62l-219 361h115z" />
    <glyph glyph-name="Aacute" unicode="&#xc1;" horiz-adv-x="1245" 
d="M1036 0l-82 504h-675l-287 -504h-84l862 1489h90l252 -1489h-76zM805 1423l-488 -854h627zM1188 1958l-359 -361h-71l305 361h125z" />
    <glyph glyph-name="Acircumflex" unicode="&#xc2;" horiz-adv-x="1245" 
d="M1036 0l-82 504h-675l-287 -504h-84l862 1489h90l252 -1489h-76zM805 1423l-488 -854h627zM1085 1597h-57l-156 275l-270 -275h-61l305 361h86z" />
    <glyph glyph-name="Atilde" unicode="&#xc3;" horiz-adv-x="1245" 
d="M1036 0l-82 504h-675l-287 -504h-84l862 1489h90l252 -1489h-76zM805 1423l-488 -854h627zM1198 1858q-50 -246 -213 -246q-26 0 -48.5 7t-43.5 24t-32.5 28.5t-32.5 37t-27 32.5q-47 51 -88 51q-38 0 -68.5 -34t-45 -71t-21.5 -75h-64q54 246 223 246q43 0 76 -21.5
t66 -60.5q5 -6 19.5 -23t21 -24t19 -19.5t22 -18t22 -10t25.5 -4.5q24 0 44.5 13.5t33 31t24.5 46.5t17 46t12 44h59z" />
    <glyph glyph-name="Adieresis" unicode="&#xc4;" horiz-adv-x="1245" 
d="M1036 0l-82 504h-675l-287 -504h-84l862 1489h90l252 -1489h-76zM805 1423l-488 -854h627zM752 1683q0 -42 -21.5 -64t-60.5 -22q-64 0 -64 56q0 84 82 84q64 0 64 -54zM1081 1683q0 -42 -21.5 -64t-60.5 -22q-63 0 -63 56q0 84 82 84q63 0 63 -54z" />
    <glyph glyph-name="Aring" unicode="&#xc5;" horiz-adv-x="1245" 
d="M1036 0l-82 504h-675l-287 -504h-84l837 1446q-96 29 -96 143q0 109 61 183.5t173 74.5q83 0 125.5 -41.5t42.5 -115.5q0 -97 -48.5 -163t-136.5 -83l246 -1444h-76zM805 1423l-488 -854h627zM817 1491q75 0 121.5 53t46.5 142q0 54 -27.5 80t-87.5 26q-75 0 -116 -51
t-41 -142q0 -55 24.5 -81.5t79.5 -26.5z" />
    <glyph glyph-name="AE" unicode="&#xc6;" horiz-adv-x="1759" 
d="M1499 0h-774l106 524h-530l-309 -524h-84l893 1489h999l-12 -70h-701l-120 -590h635l-15 -69h-635l-141 -690h700zM844 590l170 829h-176l-498 -829h504z" />
    <glyph glyph-name="Ccedilla" unicode="&#xc7;" horiz-adv-x="1273" 
d="M791 -172q0 -102 -81 -162.5t-198 -60.5q-88 0 -203 39l35 61q93 -41 193 -41q74 0 129 40t55 112q0 53 -48.5 81.5t-113.5 28.5l29 47q-216 20 -335.5 170t-119.5 394q0 154 30 297.5t92.5 268t151 217.5t212.5 146.5t270 53.5q345 0 450 -260l-65 -39q-17 40 -36.5 71
t-51.5 61.5t-72 51t-98.5 33t-130.5 12.5q-201 0 -355.5 -118.5t-236.5 -323t-82 -461.5q0 -109 26.5 -200t80.5 -160.5t142 -108.5t204 -39q190 0 358 127l39 -62q-99 -69 -190.5 -102t-215.5 -33h-10q146 -29 146 -141z" />
    <glyph glyph-name="Egrave" unicode="&#xc8;" horiz-adv-x="1189" 
d="M930 0h-848l301 1489h848l-12 -70h-775l-120 -590h708l-14 -69h-709l-141 -690h774zM944 1597h-61l-219 361h114z" />
    <glyph glyph-name="Eacute" unicode="&#xc9;" horiz-adv-x="1189" 
d="M930 0h-848l301 1489h848l-12 -70h-775l-120 -590h708l-14 -69h-709l-141 -690h774zM1081 1958l-358 -361h-72l305 361h125z" />
    <glyph glyph-name="Ecircumflex" unicode="&#xca;" horiz-adv-x="1189" 
d="M930 0h-848l301 1489h848l-12 -70h-775l-120 -590h708l-14 -69h-709l-141 -690h774zM1098 1597h-58l-155 275l-271 -275h-61l305 361h86z" />
    <glyph glyph-name="Edieresis" unicode="&#xcb;" horiz-adv-x="1189" 
d="M930 0h-848l301 1489h848l-12 -70h-775l-120 -590h708l-14 -69h-709l-141 -690h774zM743 1683q0 -86 -81 -86q-64 0 -64 56q0 84 82 84q63 0 63 -54zM1073 1683q0 -42 -21.5 -64t-60.5 -22q-63 0 -63 56q0 84 82 84q63 0 63 -54z" />
    <glyph glyph-name="Igrave" unicode="&#xcc;" horiz-adv-x="661" 
d="M422 0h-432l12 63h178l277 1362h-181l13 64h434l-12 -64h-181l-276 -1362h180zM627 1597h-62l-219 361h115z" />
    <glyph glyph-name="Iacute" unicode="&#xcd;" horiz-adv-x="661" 
d="M422 0h-432l12 63h178l277 1362h-181l13 64h434l-12 -64h-181l-276 -1362h180zM782 1958l-358 -361h-72l305 361h125z" />
    <glyph glyph-name="Icircumflex" unicode="&#xce;" horiz-adv-x="661" 
d="M422 0h-432l12 63h178l277 1362h-181l13 64h434l-12 -64h-181l-276 -1362h180zM793 1597h-58l-155 275l-271 -275h-61l305 361h86z" />
    <glyph glyph-name="Idieresis" unicode="&#xcf;" horiz-adv-x="661" 
d="M422 0h-432l12 63h178l277 1362h-181l13 64h434l-12 -64h-181l-276 -1362h180zM442 1683q0 -42 -21.5 -64t-60.5 -22q-63 0 -63 56q0 84 82 84q63 0 63 -54zM772 1683q0 -42 -21.5 -64t-60.5 -22q-63 0 -63 56q0 84 82 84q63 0 63 -54z" />
    <glyph glyph-name="Eth" unicode="&#xd0;" horiz-adv-x="1417" 
d="M1346 885q0 -207 -68.5 -375.5t-177.5 -278.5q-121 -123 -287 -177t-405 -54h-326l145 721h-198l14 70h199l141 698h289q191 0 316.5 -40.5t211.5 -129.5q72 -75 109 -188t37 -246zM416 70q206 0 363 48.5t272 166.5q101 104 159 260.5t58 343.5q0 244 -131 381
q-75 78 -185 113.5t-280 35.5h-228l-129 -628h420l-14 -70h-420l-133 -651h248z" />
    <glyph glyph-name="Ntilde" unicode="&#xd1;" horiz-adv-x="1376" 
d="M1075 0h-102l-535 1391l-282 -1391h-74l301 1489h94l541 -1405l285 1405h73zM1260 1858q-50 -246 -213 -246q-26 0 -48.5 7t-44 24.5t-32.5 28t-32.5 37t-27.5 32.5q-47 51 -88 51q-38 0 -68.5 -34t-45 -71t-21.5 -75h-64q54 246 224 246q43 0 75 -21.5t66 -60.5
q5 -6 19.5 -23t21 -24t19 -19.5t22 -18t22 -10t25.5 -4.5q24 0 44.5 13.5t33 31t24.5 46.5t17 46t12 44h60z" />
    <glyph glyph-name="Ograve" unicode="&#xd2;" horiz-adv-x="1499" 
d="M1427 938q0 -221 -70 -426t-192 -330q-206 -213 -508 -213q-130 0 -232 46t-165 125.5t-95 182t-32 220.5q0 221 68.5 424.5t201.5 343.5q202 209 494 209q112 0 202 -31.5t150.5 -85.5t101 -128.5t58.5 -158.5t18 -178zM674 41q250 0 428 178q117 117 181.5 307
t64.5 412q0 105 -25 193.5t-78 161t-144.5 114t-213.5 41.5q-123 0 -233.5 -47.5t-194.5 -138.5q-118 -128 -183 -311t-65 -400q0 -146 50 -259.5t156.5 -182t256.5 -68.5zM1067 1597h-61l-220 361h115z" />
    <glyph glyph-name="Oacute" unicode="&#xd3;" horiz-adv-x="1499" 
d="M1427 938q0 -221 -70 -426t-192 -330q-206 -213 -508 -213q-130 0 -232 46t-165 125.5t-95 182t-32 220.5q0 221 68.5 424.5t201.5 343.5q202 209 494 209q112 0 202 -31.5t150.5 -85.5t101 -128.5t58.5 -158.5t18 -178zM674 41q250 0 428 178q117 117 181.5 307
t64.5 412q0 105 -25 193.5t-78 161t-144.5 114t-213.5 41.5q-123 0 -233.5 -47.5t-194.5 -138.5q-118 -128 -183 -311t-65 -400q0 -146 50 -259.5t156.5 -182t256.5 -68.5zM1202 1958l-358 -361h-72l305 361h125z" />
    <glyph glyph-name="Ocircumflex" unicode="&#xd4;" horiz-adv-x="1499" 
d="M1427 938q0 -221 -70 -426t-192 -330q-206 -213 -508 -213q-130 0 -232 46t-165 125.5t-95 182t-32 220.5q0 221 68.5 424.5t201.5 343.5q202 209 494 209q112 0 202 -31.5t150.5 -85.5t101 -128.5t58.5 -158.5t18 -178zM674 41q250 0 428 178q117 117 181.5 307
t64.5 412q0 105 -25 193.5t-78 161t-144.5 114t-213.5 41.5q-123 0 -233.5 -47.5t-194.5 -138.5q-118 -128 -183 -311t-65 -400q0 -146 50 -259.5t156.5 -182t256.5 -68.5zM1157 1597h-57l-156 275l-270 -275h-62l306 361h86z" />
    <glyph glyph-name="Otilde" unicode="&#xd5;" horiz-adv-x="1499" 
d="M1427 938q0 -221 -70 -426t-192 -330q-206 -213 -508 -213q-130 0 -232 46t-165 125.5t-95 182t-32 220.5q0 221 68.5 424.5t201.5 343.5q202 209 494 209q112 0 202 -31.5t150.5 -85.5t101 -128.5t58.5 -158.5t18 -178zM674 41q250 0 428 178q117 117 181.5 307
t64.5 412q0 105 -25 193.5t-78 161t-144.5 114t-213.5 41.5q-123 0 -233.5 -47.5t-194.5 -138.5q-118 -128 -183 -311t-65 -400q0 -146 50 -259.5t156.5 -182t256.5 -68.5zM1264 1858q-50 -246 -213 -246q-26 0 -48.5 7t-44 24.5t-32.5 28t-32.5 37t-27.5 32.5
q-47 51 -88 51q-38 0 -68.5 -34t-45 -71t-21.5 -75h-63q54 246 223 246q43 0 75 -21.5t66 -60.5q5 -6 19.5 -23t21 -24t19 -19.5t22 -18t22 -10t25.5 -4.5q24 0 44.5 13.5t33 31t24.5 46.5t17 46t12 44h60z" />
    <glyph glyph-name="Odieresis" unicode="&#xd6;" horiz-adv-x="1499" 
d="M1427 938q0 -221 -70 -426t-192 -330q-206 -213 -508 -213q-130 0 -232 46t-165 125.5t-95 182t-32 220.5q0 221 68.5 424.5t201.5 343.5q202 209 494 209q112 0 202 -31.5t150.5 -85.5t101 -128.5t58.5 -158.5t18 -178zM674 41q250 0 428 178q117 117 181.5 307
t64.5 412q0 105 -25 193.5t-78 161t-144.5 114t-213.5 41.5q-123 0 -233.5 -47.5t-194.5 -138.5q-118 -128 -183 -311t-65 -400q0 -146 50 -259.5t156.5 -182t256.5 -68.5zM834 1683q0 -42 -21.5 -64t-60.5 -22q-64 0 -64 56q0 84 82 84q64 0 64 -54zM1163 1683
q0 -42 -21.5 -64t-60.5 -22q-63 0 -63 56q0 84 82 84q63 0 63 -54z" />
    <glyph glyph-name="multiply" unicode="&#xd7;" horiz-adv-x="1329" 
d="M1114 180l-45 -45l-405 404l-402 -404l-45 45l404 402l-402 401l45 45l400 -401l401 401l45 -45l-401 -401z" />
    <glyph glyph-name="Oslash" unicode="&#xd8;" horiz-adv-x="1499" 
d="M1427 946q0 -147 -25.5 -283t-84.5 -264t-146 -222t-220.5 -151t-297.5 -57q-236 0 -372 146l-201 -230h-92l248 285q-103 147 -103 373q0 119 20 234.5t59 226t103 203.5t147 163.5t195.5 110t243.5 39.5q242 0 383 -154l172 199h94l-223 -254q100 -146 100 -365z
M211 551q0 -192 80 -320l942 1078q-121 141 -346 141q-151 0 -278.5 -70t-214 -190.5t-135 -285.5t-48.5 -353zM668 39q165 0 296 69.5t214 191.5t126.5 284.5t43.5 353.5q0 183 -74 311l-940 -1075q122 -135 334 -135z" />
    <glyph glyph-name="Ugrave" unicode="&#xd9;" horiz-adv-x="1355" 
d="M1180 569q-33 -160 -80.5 -270.5t-119 -185.5t-169 -109.5t-229.5 -34.5q-119 0 -202.5 28t-130 81t-67 119t-20.5 153q0 102 31 250l180 889h73l-176 -868q-34 -163 -34 -269q0 -72 16.5 -126t55.5 -98t109.5 -66.5t172.5 -22.5q122 0 209 34t146.5 107t96.5 168.5
t66 237.5l184 903h74zM1018 1597h-62l-219 361h115z" />
    <glyph glyph-name="Uacute" unicode="&#xda;" horiz-adv-x="1355" 
d="M1180 569q-33 -160 -80.5 -270.5t-119 -185.5t-169 -109.5t-229.5 -34.5q-119 0 -202.5 28t-130 81t-67 119t-20.5 153q0 102 31 250l180 889h73l-176 -868q-34 -163 -34 -269q0 -72 16.5 -126t55.5 -98t109.5 -66.5t172.5 -22.5q122 0 209 34t146.5 107t96.5 168.5
t66 237.5l184 903h74zM1194 1958l-358 -361h-72l305 361h125z" />
    <glyph glyph-name="Ucircumflex" unicode="&#xdb;" horiz-adv-x="1355" 
d="M1180 569q-33 -160 -80.5 -270.5t-119 -185.5t-169 -109.5t-229.5 -34.5q-119 0 -202.5 28t-130 81t-67 119t-20.5 153q0 102 31 250l180 889h73l-176 -868q-34 -163 -34 -269q0 -72 16.5 -126t55.5 -98t109.5 -66.5t172.5 -22.5q122 0 209 34t146.5 107t96.5 168.5
t66 237.5l184 903h74zM1155 1597h-57l-156 275l-270 -275h-62l305 361h86z" />
    <glyph glyph-name="Udieresis" unicode="&#xdc;" horiz-adv-x="1355" 
d="M1180 569q-33 -160 -80.5 -270.5t-119 -185.5t-169 -109.5t-229.5 -34.5q-119 0 -202.5 28t-130 81t-67 119t-20.5 153q0 102 31 250l180 889h73l-176 -868q-34 -163 -34 -269q0 -72 16.5 -126t55.5 -98t109.5 -66.5t172.5 -22.5q122 0 209 34t146.5 107t96.5 168.5
t66 237.5l184 903h74zM813 1683q0 -42 -21.5 -64t-60.5 -22q-63 0 -63 56q0 84 82 84q63 0 63 -54zM1143 1683q0 -42 -21.5 -64t-60.5 -22q-64 0 -64 56q0 84 82 84q64 0 64 -54z" />
    <glyph glyph-name="Yacute" unicode="&#xdd;" horiz-adv-x="1140" 
d="M1292 1489l-706 -879l-123 -610h-74l123 608l-356 881h77l326 -801l645 801h88zM1053 1958l-359 -361h-71l305 361h125z" />
    <glyph glyph-name="Thorn" unicode="&#xde;" horiz-adv-x="1200" 
d="M1141 858q0 -251 -159 -372t-454 -121h-299l-73 -365h-74l301 1489h74l-60 -293h295q129 0 228 -35.5t160 -113t61 -189.5zM485 432q105 0 187.5 11t157 39.5t124 74.5t78.5 119t29 170q0 282 -389 282h-287l-143 -696h243z" />
    <glyph glyph-name="germandbls" unicode="&#xdf;" horiz-adv-x="1230" 
d="M129 -68l225 1115q22 110 56 192.5t87.5 147.5t133.5 99t184 34q154 0 245 -81.5t91 -203.5q0 -160 -105 -258t-280 -119q162 -15 248 -97.5t86 -223.5q0 -117 -33.5 -218.5t-97.5 -180t-166 -124t-230 -45.5q-131 0 -225 37l14 70q115 -39 224 -39q200 0 319 137.5
t119 349.5q0 87 -32.5 147t-97.5 93t-148 47t-199 14l12 66q516 0 516 336q0 103 -68 164t-202 61q-72 0 -130 -21t-97.5 -55.5t-70 -87.5t-48.5 -108t-33 -125l-227 -1123q-19 -95 -52 -160.5t-78.5 -101t-95.5 -50.5t-114 -15q-96 0 -176 37l24 63q88 -39 166 -39
q109 0 169 66.5t87 199.5z" />
    <glyph glyph-name="agrave" unicode="&#xe0;" horiz-adv-x="1107" 
d="M1036 1030l-207 -1030h-55l27 178q-189 -209 -381 -209q-109 0 -185.5 56.5t-110.5 147t-34 206.5q0 94 21 188.5t66.5 184t109 158t156.5 110t202 41.5q156 0 318 -66l47 35h26zM948 932q-82 33 -148 49t-155 16t-167 -34.5t-134.5 -94.5t-97.5 -138.5t-61.5 -168
t-20.5 -182.5q0 -165 68 -254.5t198 -89.5q98 0 190.5 61t192.5 174zM856 1208h-61l-220 361h115z" />
    <glyph glyph-name="aacute" unicode="&#xe1;" horiz-adv-x="1107" 
d="M1036 1030l-207 -1030h-55l27 178q-189 -209 -381 -209q-109 0 -185.5 56.5t-110.5 147t-34 206.5q0 94 21 188.5t66.5 184t109 158t156.5 110t202 41.5q156 0 318 -66l47 35h26zM948 932q-82 33 -148 49t-155 16t-167 -34.5t-134.5 -94.5t-97.5 -138.5t-61.5 -168
t-20.5 -182.5q0 -165 68 -254.5t198 -89.5q98 0 190.5 61t192.5 174zM1038 1569l-358 -361h-72l305 361h125z" />
    <glyph glyph-name="acircumflex" unicode="&#xe2;" horiz-adv-x="1107" 
d="M1036 1030l-207 -1030h-55l27 178q-189 -209 -381 -209q-109 0 -185.5 56.5t-110.5 147t-34 206.5q0 94 21 188.5t66.5 184t109 158t156.5 110t202 41.5q156 0 318 -66l47 35h26zM948 932q-82 33 -148 49t-155 16t-167 -34.5t-134.5 -94.5t-97.5 -138.5t-61.5 -168
t-20.5 -182.5q0 -165 68 -254.5t198 -89.5q98 0 190.5 61t192.5 174zM973 1208h-58l-155 275l-271 -275h-61l305 361h86z" />
    <glyph glyph-name="atilde" unicode="&#xe3;" horiz-adv-x="1107" 
d="M1036 1030l-207 -1030h-55l27 178q-189 -209 -381 -209q-109 0 -185.5 56.5t-110.5 147t-34 206.5q0 94 21 188.5t66.5 184t109 158t156.5 110t202 41.5q156 0 318 -66l47 35h26zM948 932q-82 33 -148 49t-155 16t-167 -34.5t-134.5 -94.5t-97.5 -138.5t-61.5 -168
t-20.5 -182.5q0 -165 68 -254.5t198 -89.5q98 0 190.5 61t192.5 174zM1057 1511q-50 -245 -213 -245q-26 0 -48.5 7t-44 24.5t-32.5 28t-32.5 37t-27.5 32.5q-47 51 -88 51q-38 0 -68.5 -34t-45 -71t-21.5 -75h-63q54 245 223 245q43 0 75.5 -21t65.5 -60q5 -6 19.5 -23
t21 -24t19 -19.5t22 -18t22 -10t25.5 -4.5q24 0 44.5 13.5t33 31t24.5 46t17 46t12 43.5h60z" />
    <glyph glyph-name="adieresis" unicode="&#xe4;" horiz-adv-x="1107" 
d="M1036 1030l-207 -1030h-55l27 178q-189 -209 -381 -209q-109 0 -185.5 56.5t-110.5 147t-34 206.5q0 94 21 188.5t66.5 184t109 158t156.5 110t202 41.5q156 0 318 -66l47 35h26zM948 932q-82 33 -148 49t-155 16t-167 -34.5t-134.5 -94.5t-97.5 -138.5t-61.5 -168
t-20.5 -182.5q0 -165 68 -254.5t198 -89.5q98 0 190.5 61t192.5 174zM600 1329q0 -42 -21.5 -64t-60.5 -22q-63 0 -63 55q0 84 82 84q63 0 63 -53zM930 1329q0 -42 -21.5 -64t-60.5 -22q-64 0 -64 55q0 84 82 84q64 0 64 -53z" />
    <glyph glyph-name="aring" unicode="&#xe5;" horiz-adv-x="1107" 
d="M1036 1030l-207 -1030h-55l27 178q-189 -209 -381 -209q-109 0 -185.5 56.5t-110.5 147t-34 206.5q0 94 21 188.5t66.5 184t109 158t156.5 110t202 41.5q156 0 318 -66l47 35h26zM948 932q-82 33 -148 49t-155 16t-167 -34.5t-134.5 -94.5t-97.5 -138.5t-61.5 -168
t-20.5 -182.5q0 -165 68 -254.5t198 -89.5q98 0 190.5 61t192.5 174zM879 1386q0 -92 -52 -151t-145 -59q-65 0 -98 36t-33 93q0 90 49.5 150.5t140.5 60.5q67 0 102.5 -35t35.5 -95zM690 1227q62 0 97.5 40.5t35.5 112.5q0 84 -90 84q-60 0 -92.5 -40t-32.5 -113
q0 -84 82 -84z" />
    <glyph glyph-name="ae" unicode="&#xe6;" horiz-adv-x="1761" 
d="M1036 1030l-41 -196q157 227 422 227q86 0 149 -20.5t98 -56t51 -76t16 -87.5q0 -106 -56 -174.5t-190 -110t-361 -55.5l-198 -12q-4 -62 -4 -94q0 -159 78 -249.5t233 -90.5q76 0 139 22t133 72l37 -55q-139 -105 -323 -105q-127 0 -219.5 68.5t-125.5 191.5l-45 -229
h-55l27 178q-189 -209 -381 -209q-109 0 -185.5 56.5t-110.5 147t-34 206.5q0 94 21 188.5t66.5 184t109 158t156.5 110t202 41.5q156 0 318 -66l47 35h26zM948 932q-82 33 -148 49t-155 16t-167 -34.5t-134.5 -94.5t-97.5 -138.5t-61.5 -168t-20.5 -182.5q0 -165 68 -254.5
t198 -89.5q98 0 190.5 61t192.5 174zM1657 813q0 35 -11 65t-37 58t-78 44.5t-126 16.5q-175 0 -298.5 -124t-166.5 -320l-4 -25l164 11q309 19 433 79.5t124 194.5z" />
    <glyph glyph-name="ccedilla" unicode="&#xe7;" horiz-adv-x="972" 
d="M627 -172q0 -102 -81 -162.5t-198 -60.5q-88 0 -203 39l35 61q93 -41 193 -41q74 0 129 40t55 112q0 53 -48.5 81.5t-113.5 28.5l29 45q-163 17 -248.5 129t-85.5 283q0 100 20 195t65 183.5t110 154.5t162 105.5t215 39.5q110 0 194 -46.5t125 -123.5l-61 -37
q-81 139 -267 139q-120 0 -215 -50.5t-154 -136t-89.5 -192.5t-30.5 -225q0 -153 80 -252.5t229 -99.5q85 0 150.5 25.5t134.5 74.5l35 -59q-141 -106 -312 -109q146 -29 146 -141z" />
    <glyph glyph-name="egrave" unicode="&#xe8;" horiz-adv-x="1001" 
d="M365 481l-199 -12q-4 -62 -4 -94q0 -159 78 -249.5t233 -90.5q75 0 136.5 22t131.5 72l41 -55q-139 -105 -323 -105q-165 0 -267 100t-102 293q0 106 22.5 207t69 190.5t112 156.5t158 106t199.5 39q83 0 147 -20.5t100.5 -55.5t54.5 -76.5t18 -87.5q0 -107 -55.5 -175.5
t-190 -110.5t-360.5 -54zM897 813q0 34 -12 64.5t-39 58.5t-78.5 44.5t-122.5 16.5q-180 0 -305.5 -132.5t-163.5 -336.5l164 11q309 19 433 79.5t124 194.5zM782 1208h-61l-219 361h114z" />
    <glyph glyph-name="eacute" unicode="&#xe9;" horiz-adv-x="1001" 
d="M365 481l-199 -12q-4 -62 -4 -94q0 -159 78 -249.5t233 -90.5q75 0 136.5 22t131.5 72l41 -55q-139 -105 -323 -105q-165 0 -267 100t-102 293q0 106 22.5 207t69 190.5t112 156.5t158 106t199.5 39q83 0 147 -20.5t100.5 -55.5t54.5 -76.5t18 -87.5q0 -107 -55.5 -175.5
t-190 -110.5t-360.5 -54zM897 813q0 34 -12 64.5t-39 58.5t-78.5 44.5t-122.5 16.5q-180 0 -305.5 -132.5t-163.5 -336.5l164 11q309 19 433 79.5t124 194.5zM961 1569l-359 -361h-72l306 361h125z" />
    <glyph glyph-name="ecircumflex" unicode="&#xea;" horiz-adv-x="1001" 
d="M365 481l-199 -12q-4 -62 -4 -94q0 -159 78 -249.5t233 -90.5q75 0 136.5 22t131.5 72l41 -55q-139 -105 -323 -105q-165 0 -267 100t-102 293q0 106 22.5 207t69 190.5t112 156.5t158 106t199.5 39q83 0 147 -20.5t100.5 -55.5t54.5 -76.5t18 -87.5q0 -107 -55.5 -175.5
t-190 -110.5t-360.5 -54zM897 813q0 34 -12 64.5t-39 58.5t-78.5 44.5t-122.5 16.5q-180 0 -305.5 -132.5t-163.5 -336.5l164 11q309 19 433 79.5t124 194.5zM967 1208h-58l-155 275l-271 -275h-61l305 361h86z" />
    <glyph glyph-name="edieresis" unicode="&#xeb;" horiz-adv-x="1001" 
d="M365 481l-199 -12q-4 -62 -4 -94q0 -159 78 -249.5t233 -90.5q75 0 136.5 22t131.5 72l41 -55q-139 -105 -323 -105q-165 0 -267 100t-102 293q0 106 22.5 207t69 190.5t112 156.5t158 106t199.5 39q83 0 147 -20.5t100.5 -55.5t54.5 -76.5t18 -87.5q0 -107 -55.5 -175.5
t-190 -110.5t-360.5 -54zM897 813q0 34 -12 64.5t-39 58.5t-78.5 44.5t-122.5 16.5q-180 0 -305.5 -132.5t-163.5 -336.5l164 11q309 19 433 79.5t124 194.5zM610 1329q0 -42 -21.5 -64t-60.5 -22q-63 0 -63 55q0 84 82 84q63 0 63 -53zM940 1329q0 -42 -21.5 -64t-60.5 -22
q-63 0 -63 55q0 84 82 84q63 0 63 -53z" />
    <glyph glyph-name="igrave" unicode="&#xec;" horiz-adv-x="497" 
d="M201 0h-68l172 850q19 89 19 108q0 20 -6.5 29.5t-24.5 9.5q-40 0 -146 -67l-24 47q131 84 196 84q76 0 76 -80q0 -30 -16 -104zM498 1208h-62l-219 361h115z" />
    <glyph glyph-name="iacute" unicode="&#xed;" horiz-adv-x="497" 
d="M201 0h-68l172 850q19 89 19 108q0 20 -6.5 29.5t-24.5 9.5q-40 0 -146 -67l-24 47q131 84 196 84q76 0 76 -80q0 -30 -16 -104zM662 1569l-359 -361h-72l306 361h125z" />
    <glyph glyph-name="icircumflex" unicode="&#xee;" horiz-adv-x="497" 
d="M201 0h-68l172 850q19 89 19 108q0 20 -6.5 29.5t-24.5 9.5q-40 0 -146 -67l-24 47q131 84 196 84q76 0 76 -80q0 -30 -16 -104zM614 1208h-57l-156 275l-270 -275h-61l305 361h86z" />
    <glyph glyph-name="idieresis" unicode="&#xef;" horiz-adv-x="497" 
d="M201 0h-68l172 850q19 89 19 108q0 20 -6.5 29.5t-24.5 9.5q-40 0 -146 -67l-24 47q131 84 196 84q76 0 76 -80q0 -30 -16 -104zM272 1329q0 -42 -21.5 -64t-60.5 -22q-63 0 -63 55q0 84 82 84q63 0 63 -53zM602 1329q0 -42 -21.5 -64t-60.5 -22q-63 0 -63 55q0 84 82 84
q63 0 63 -53z" />
    <glyph glyph-name="eth" unicode="&#xf0;" horiz-adv-x="1118" 
d="M459 1262l237 116q-68 77 -145 142h92q63 -53 115 -111l186 92l21 -45l-172 -86q233 -283 233 -639q0 -114 -19 -220.5t-63 -206t-109 -173t-164.5 -118t-221.5 -44.5q-93 0 -164 33t-113 90.5t-63 129t-21 153.5q0 104 21 200t65.5 179t107.5 144.5t152 96.5t195 35
q211 0 313 -160q-38 256 -211 469l-250 -122zM463 37q91 0 170 35.5t135 94.5t96 136t59 160.5t19 167.5q0 142 -78 237t-229 95t-258.5 -77t-160 -208.5t-52.5 -302.5q0 -69 16.5 -128t51 -107t93.5 -75.5t138 -27.5z" />
    <glyph glyph-name="ntilde" unicode="&#xf1;" horiz-adv-x="1142" 
d="M1024 834q0 -59 -18 -154l-138 -680h-67l139 694q14 79 14 123q0 182 -198 182q-110 0 -233 -66.5t-218 -152.5l-158 -780h-69l209 1030h67l-35 -170q221 201 457 201q122 0 185 -60.5t63 -166.5zM1067 1511q-50 -245 -213 -245q-26 0 -48.5 7t-43.5 24t-32.5 28.5
t-32.5 37t-27 32.5q-47 51 -88 51q-29 0 -54 -19t-41 -49t-26 -57.5t-15 -54.5h-63q54 245 223 245q43 0 76 -21.5t66 -59.5q5 -6 19.5 -23t21 -24t19 -19.5t22 -18t22 -10t25.5 -4.5q24 0 44.5 13.5t33 31t24.5 46t17 46t12 43.5h59z" />
    <glyph glyph-name="ograve" unicode="&#xf2;" horiz-adv-x="1114" 
d="M1024 662q0 -102 -21 -200.5t-66 -188t-108.5 -157t-155.5 -107.5t-200 -40q-172 0 -277.5 106t-105.5 294q0 101 20.5 198.5t65 187.5t108.5 157.5t158 108t207 40.5q165 0 270 -106t105 -293zM487 37q138 0 245 86t162.5 227t55.5 309q0 150 -79.5 242t-233.5 92
q-111 0 -202 -51.5t-149.5 -138t-90 -196.5t-31.5 -230q0 -158 80 -249t243 -91zM782 1208h-61l-219 361h114z" />
    <glyph glyph-name="oacute" unicode="&#xf3;" horiz-adv-x="1114" 
d="M1024 662q0 -102 -21 -200.5t-66 -188t-108.5 -157t-155.5 -107.5t-200 -40q-172 0 -277.5 106t-105.5 294q0 101 20.5 198.5t65 187.5t108.5 157.5t158 108t207 40.5q165 0 270 -106t105 -293zM487 37q138 0 245 86t162.5 227t55.5 309q0 150 -79.5 242t-233.5 92
q-111 0 -202 -51.5t-149.5 -138t-90 -196.5t-31.5 -230q0 -158 80 -249t243 -91zM979 1569l-358 -361h-72l305 361h125z" />
    <glyph glyph-name="ocircumflex" unicode="&#xf4;" horiz-adv-x="1114" 
d="M1024 662q0 -102 -21 -200.5t-66 -188t-108.5 -157t-155.5 -107.5t-200 -40q-172 0 -277.5 106t-105.5 294q0 101 20.5 198.5t65 187.5t108.5 157.5t158 108t207 40.5q165 0 270 -106t105 -293zM487 37q138 0 245 86t162.5 227t55.5 309q0 150 -79.5 242t-233.5 92
q-111 0 -202 -51.5t-149.5 -138t-90 -196.5t-31.5 -230q0 -158 80 -249t243 -91zM920 1208h-58l-155 275l-271 -275h-61l305 361h86z" />
    <glyph glyph-name="otilde" unicode="&#xf5;" horiz-adv-x="1114" 
d="M1024 662q0 -102 -21 -200.5t-66 -188t-108.5 -157t-155.5 -107.5t-200 -40q-172 0 -277.5 106t-105.5 294q0 101 20.5 198.5t65 187.5t108.5 157.5t158 108t207 40.5q165 0 270 -106t105 -293zM487 37q138 0 245 86t162.5 227t55.5 309q0 150 -79.5 242t-233.5 92
q-111 0 -202 -51.5t-149.5 -138t-90 -196.5t-31.5 -230q0 -158 80 -249t243 -91zM1004 1511q-50 -245 -213 -245q-26 0 -48.5 7t-44 24.5t-32.5 28t-32.5 37t-27.5 32.5q-47 51 -88 51q-38 0 -68.5 -34t-45 -71t-21.5 -75h-64q54 245 224 245q43 0 75.5 -21t65.5 -60
q5 -6 19.5 -23t21 -24t19 -19.5t22 -18t22 -10t25.5 -4.5q24 0 44.5 13.5t33 31t24.5 46t17 46t12 43.5h60z" />
    <glyph glyph-name="odieresis" unicode="&#xf6;" horiz-adv-x="1114" 
d="M1024 662q0 -102 -21 -200.5t-66 -188t-108.5 -157t-155.5 -107.5t-200 -40q-172 0 -277.5 106t-105.5 294q0 101 20.5 198.5t65 187.5t108.5 157.5t158 108t207 40.5q165 0 270 -106t105 -293zM487 37q138 0 245 86t162.5 227t55.5 309q0 150 -79.5 242t-233.5 92
q-111 0 -202 -51.5t-149.5 -138t-90 -196.5t-31.5 -230q0 -158 80 -249t243 -91zM578 1329q0 -42 -21.5 -64t-60.5 -22q-64 0 -64 55q0 84 82 84q64 0 64 -53zM907 1329q0 -42 -21.5 -64t-60.5 -22q-63 0 -63 55q0 84 82 84q63 0 63 -53z" />
    <glyph glyph-name="divide" unicode="&#xf7;" horiz-adv-x="1329" 
d="M735 1020q0 -41 -15.5 -57.5t-53.5 -16.5q-25 0 -40.5 6t-22 18.5t-8 22.5t-1.5 27q0 39 14 56.5t58 17.5q25 0 40 -6t21 -19.5t7 -22t1 -26.5zM1178 551h-1026v63h1026v-63zM735 145q0 -41 -15.5 -57t-53.5 -16q-25 0 -40.5 6t-22 18t-8 22t-1.5 27q0 39 14 56.5
t58 17.5q25 0 40 -6t21 -19.5t7 -22t1 -26.5z" />
    <glyph glyph-name="oslash" unicode="&#xf8;" horiz-adv-x="1112" 
d="M1022 662q0 -97 -21 -194t-66 -187t-108.5 -159.5t-155.5 -111t-200 -41.5q-161 0 -266 97l-125 -142h-80l164 189q-76 107 -76 256q0 100 22 198t68.5 187.5t111 157.5t157 108.5t200.5 40.5q165 0 262 -94l123 139h80l-162 -186q72 -101 72 -258zM162 377
q0 -126 51 -209l649 743q-79 82 -227 82q-111 0 -202 -51.5t-149.5 -138t-90 -196.5t-31.5 -230zM485 37q88 0 164 35.5t130 96t93 140.5t57.5 169t18.5 181q0 126 -49 203l-647 -741q84 -84 233 -84z" />
    <glyph glyph-name="ugrave" unicode="&#xf9;" horiz-adv-x="1130" 
d="M113 197q0 58 18 153l137 680h68l-139 -694q-15 -84 -15 -123q0 -182 207 -182q51 0 107.5 17t99 38t95 57.5t77 56t63.5 52.5l158 778h70l-209 -1030h-68l35 170q-51 -46 -111 -87t-154 -77.5t-181 -36.5q-126 0 -192 61t-66 167zM844 1208h-62l-219 361h115z" />
    <glyph glyph-name="uacute" unicode="&#xfa;" horiz-adv-x="1130" 
d="M113 197q0 58 18 153l137 680h68l-139 -694q-15 -84 -15 -123q0 -182 207 -182q51 0 107.5 17t99 38t95 57.5t77 56t63.5 52.5l158 778h70l-209 -1030h-68l35 170q-51 -46 -111 -87t-154 -77.5t-181 -36.5q-126 0 -192 61t-66 167zM977 1569l-359 -361h-71l305 361h125z
" />
    <glyph glyph-name="ucircumflex" unicode="&#xfb;" horiz-adv-x="1130" 
d="M113 197q0 58 18 153l137 680h68l-139 -694q-15 -84 -15 -123q0 -182 207 -182q51 0 107.5 17t99 38t95 57.5t77 56t63.5 52.5l158 778h70l-209 -1030h-68l35 170q-51 -46 -111 -87t-154 -77.5t-181 -36.5q-126 0 -192 61t-66 167zM979 1208h-57l-156 275l-270 -275h-62
l305 361h86z" />
    <glyph glyph-name="udieresis" unicode="&#xfc;" horiz-adv-x="1130" 
d="M113 197q0 58 18 153l137 680h68l-139 -694q-15 -84 -15 -123q0 -182 207 -182q51 0 107.5 17t99 38t95 57.5t77 56t63.5 52.5l158 778h70l-209 -1030h-68l35 170q-51 -46 -111 -87t-154 -77.5t-181 -36.5q-126 0 -192 61t-66 167zM631 1329q0 -42 -21.5 -64t-60.5 -22
q-64 0 -64 55q0 84 82 84q64 0 64 -53zM961 1329q0 -42 -21.5 -64t-60.5 -22q-64 0 -64 55q0 84 82 84q64 0 64 -53z" />
    <glyph glyph-name="yacute" unicode="&#xfd;" horiz-adv-x="946" 
d="M997 1030l-641 -1104q-108 -187 -190 -254t-205 -67q-42 0 -83 8.5t-52 15.5l22 64q73 -25 132 -25q77 0 141.5 50.5t152.5 199.5l86 150l-233 962h72l215 -880l501 880h82zM885 1569l-359 -361h-71l305 361h125z" />
    <glyph glyph-name="thorn" unicode="&#xfe;" horiz-adv-x="1146" 
d="M1057 678q0 -104 -19.5 -203.5t-63.5 -192t-106.5 -161.5t-156 -110.5t-205.5 -41.5q-184 0 -334 144l-102 -508h-72l387 1884h68l-115 -561q195 133 385 133q88 0 154.5 -32t104.5 -87.5t56.5 -121.5t18.5 -142zM518 37q114 0 205 55t146 146.5t83.5 201.5t28.5 228
q0 68 -13.5 123.5t-43.5 102.5t-84 73t-129 26q-99 0 -186.5 -33.5t-200.5 -113.5l-136 -653q60 -63 144.5 -109.5t185.5 -46.5z" />
    <glyph glyph-name="ydieresis" unicode="&#xff;" horiz-adv-x="946" 
d="M997 1030l-641 -1104q-108 -187 -190 -254t-205 -67q-42 0 -83 8.5t-52 15.5l22 64q73 -25 132 -25q77 0 141.5 50.5t152.5 199.5l86 150l-233 962h72l215 -880l501 880h82zM492 1329q0 -42 -21.5 -64t-60.5 -22q-64 0 -64 55q0 84 82 84q64 0 64 -53zM821 1329
q0 -42 -21.5 -64t-60.5 -22q-63 0 -63 55q0 84 82 84q63 0 63 -53z" />
    <glyph glyph-name="Amacron" unicode="&#x100;" horiz-adv-x="1245" 
d="M1036 0l-82 504h-675l-287 -504h-84l862 1489h90l252 -1489h-76zM805 1423l-488 -854h627zM1126 1614h-577l18 88h578z" />
    <glyph glyph-name="amacron" unicode="&#x101;" horiz-adv-x="1107" 
d="M1036 1030l-207 -1030h-55l27 178q-189 -209 -381 -209q-109 0 -185.5 56.5t-110.5 147t-34 206.5q0 94 21 188.5t66.5 184t109 158t156.5 110t202 41.5q156 0 318 -66l47 35h26zM948 932q-82 33 -148 49t-155 16t-167 -34.5t-134.5 -94.5t-97.5 -138.5t-61.5 -168
t-20.5 -182.5q0 -165 68 -254.5t198 -89.5q98 0 190.5 61t192.5 174zM1008 1350h-578l19 88h577z" />
    <glyph glyph-name="Abreve" unicode="&#x102;" horiz-adv-x="1245" 
d="M1036 0l-82 504h-675l-287 -504h-84l862 1489h90l252 -1489h-76zM805 1423l-488 -854h627zM1155 1880q-126 -283 -338 -283q-58 0 -101 28t-64.5 73t-31.5 90.5t-10 91.5h52q15 -92 53.5 -138t122.5 -46q161 0 254 184h63z" />
    <glyph glyph-name="abreve" unicode="&#x103;" horiz-adv-x="1107" 
d="M1036 1030l-207 -1030h-55l27 178q-189 -209 -381 -209q-109 0 -185.5 56.5t-110.5 147t-34 206.5q0 94 21 188.5t66.5 184t109 158t156.5 110t202 41.5q156 0 318 -66l47 35h26zM948 932q-82 33 -148 49t-155 16t-167 -34.5t-134.5 -94.5t-97.5 -138.5t-61.5 -168
t-20.5 -182.5q0 -165 68 -254.5t198 -89.5q98 0 190.5 61t192.5 174zM995 1530q-126 -283 -338 -283q-58 0 -101 28t-64.5 73t-31 90.5t-9.5 91.5h51q15 -92 53.5 -138t122.5 -46q161 0 254 184h63z" />
    <glyph glyph-name="Aogonek" unicode="&#x104;" horiz-adv-x="1245" 
d="M1036 0l-82 504h-675l-287 -504h-84l862 1489h90l252 -1489q-76 -124 -76 -227q0 -54 31 -77.5t94 -23.5q80 0 180 47l15 -51q-112 -63 -228 -63q-86 0 -128 42t-42 113q0 99 78 240zM805 1423l-488 -854h627z" />
    <glyph glyph-name="aogonek" unicode="&#x105;" horiz-adv-x="1107" 
d="M1036 1030l-207 -1030q-75 -124 -75 -227q0 -54 31 -77.5t94 -23.5q57 0 180 47l14 -51q-112 -63 -227 -63q-86 0 -128 42t-42 113q0 112 104 281l21 137q-189 -209 -381 -209q-109 0 -185.5 56.5t-110.5 147t-34 206.5q0 94 21 188.5t66.5 184t109 158t156.5 110
t202 41.5q156 0 318 -66l47 35h26zM948 932q-82 33 -148 49t-155 16t-167 -34.5t-134.5 -94.5t-97.5 -138.5t-61.5 -168t-20.5 -182.5q0 -165 68 -254.5t198 -89.5q98 0 190.5 61t192.5 174z" />
    <glyph glyph-name="Cacute" unicode="&#x106;" horiz-adv-x="1273" 
d="M1339 1260l-65 -39q-17 40 -36.5 71t-51.5 61.5t-72 51t-98.5 33t-130.5 12.5q-201 0 -355.5 -118.5t-236.5 -323t-82 -461.5q0 -109 26.5 -200t80.5 -160.5t142 -108.5t204 -39q190 0 358 127l39 -62q-99 -69 -190.5 -102t-215.5 -33q-247 0 -384.5 153t-137.5 415
q0 154 30 297.5t92.5 268t151 217.5t212.5 146.5t270 53.5q345 0 450 -260zM1163 1958l-358 -361h-72l305 361h125z" />
    <glyph glyph-name="cacute" unicode="&#x107;" horiz-adv-x="972" 
d="M981 891l-61 -37q-81 139 -267 139q-120 0 -215 -50.5t-154 -136t-89.5 -192.5t-30.5 -225q0 -153 80 -252.5t229 -99.5q85 0 150.5 25.5t134.5 74.5l35 -59q-147 -109 -318 -109q-187 0 -286 115t-99 299q0 100 20 195t65 183.5t110 154.5t162 105.5t215 39.5
q110 0 194 -46.5t125 -123.5zM936 1569l-358 -361h-72l305 361h125z" />
    <glyph glyph-name="Ccircumflex" unicode="&#x108;" horiz-adv-x="1273" 
d="M1339 1260l-65 -39q-17 40 -36.5 71t-51.5 61.5t-72 51t-98.5 33t-130.5 12.5q-201 0 -355.5 -118.5t-236.5 -323t-82 -461.5q0 -109 26.5 -200t80.5 -160.5t142 -108.5t204 -39q190 0 358 127l39 -62q-99 -69 -190.5 -102t-215.5 -33q-247 0 -384.5 153t-137.5 415
q0 154 30 297.5t92.5 268t151 217.5t212.5 146.5t270 53.5q345 0 450 -260zM1186 1597h-58l-155 275l-271 -275h-61l305 361h86z" />
    <glyph glyph-name="ccircumflex" unicode="&#x109;" horiz-adv-x="972" 
d="M981 891l-61 -37q-81 139 -267 139q-120 0 -215 -50.5t-154 -136t-89.5 -192.5t-30.5 -225q0 -153 80 -252.5t229 -99.5q85 0 150.5 25.5t134.5 74.5l35 -59q-147 -109 -318 -109q-187 0 -286 115t-99 299q0 100 20 195t65 183.5t110 154.5t162 105.5t215 39.5
q110 0 194 -46.5t125 -123.5zM961 1208h-58l-155 275l-271 -275h-61l305 361h86z" />
    <glyph glyph-name="Cdotaccent" unicode="&#x10a;" horiz-adv-x="1273" 
d="M1339 1260l-65 -39q-17 40 -36.5 71t-51.5 61.5t-72 51t-98.5 33t-130.5 12.5q-201 0 -355.5 -118.5t-236.5 -323t-82 -461.5q0 -109 26.5 -200t80.5 -160.5t142 -108.5t204 -39q190 0 358 127l39 -62q-99 -69 -190.5 -102t-215.5 -33q-247 0 -384.5 153t-137.5 415
q0 154 30 297.5t92.5 268t151 217.5t212.5 146.5t270 53.5q345 0 450 -260zM993 1683q0 -86 -80 -86q-30 0 -44.5 13.5t-14.5 44.5q0 84 80 84q32 0 45.5 -13t13.5 -43z" />
    <glyph glyph-name="cdotaccent" unicode="&#x10b;" horiz-adv-x="972" 
d="M981 891l-61 -37q-81 139 -267 139q-120 0 -215 -50.5t-154 -136t-89.5 -192.5t-30.5 -225q0 -153 80 -252.5t229 -99.5q85 0 150.5 25.5t134.5 74.5l35 -59q-147 -109 -318 -109q-187 0 -286 115t-99 299q0 100 20 195t65 183.5t110 154.5t162 105.5t215 39.5
q110 0 194 -46.5t125 -123.5zM766 1329q0 -86 -80 -86q-30 0 -44.5 13t-14.5 44q0 84 80 84q32 0 45.5 -13t13.5 -42z" />
    <glyph glyph-name="Ccaron" unicode="&#x10c;" horiz-adv-x="1273" 
d="M1339 1260l-65 -39q-17 40 -36.5 71t-51.5 61.5t-72 51t-98.5 33t-130.5 12.5q-201 0 -355.5 -118.5t-236.5 -323t-82 -461.5q0 -109 26.5 -200t80.5 -160.5t142 -108.5t204 -39q190 0 358 127l39 -62q-99 -69 -190.5 -102t-215.5 -33q-247 0 -384.5 153t-137.5 415
q0 154 30 297.5t92.5 268t151 217.5t212.5 146.5t270 53.5q345 0 450 -260zM1249 1958l-299 -361h-86l-159 361h55l162 -275l264 275h63z" />
    <glyph glyph-name="ccaron" unicode="&#x10d;" horiz-adv-x="972" 
d="M981 891l-61 -37q-81 139 -267 139q-120 0 -215 -50.5t-154 -136t-89.5 -192.5t-30.5 -225q0 -153 80 -252.5t229 -99.5q85 0 150.5 25.5t134.5 74.5l35 -59q-147 -109 -318 -109q-187 0 -286 115t-99 299q0 100 20 195t65 183.5t110 154.5t162 105.5t215 39.5
q110 0 194 -46.5t125 -123.5zM995 1569l-299 -361h-86l-159 361h55l162 -275l264 275h63z" />
    <glyph glyph-name="Dcaron" unicode="&#x10e;" horiz-adv-x="1417" 
d="M1346 885q0 -207 -68.5 -375.5t-177.5 -278.5q-121 -123 -287 -177t-405 -54h-326l301 1489h289q191 0 316.5 -40.5t211.5 -129.5q72 -75 109 -188t37 -246zM416 70q206 0 363 48.5t272 166.5q101 104 159 260.5t58 343.5q0 244 -131 381q-75 78 -185 113.5t-280 35.5
h-228l-276 -1349h248zM1102 1958l-299 -361h-86l-160 361h55l162 -275l264 275h64z" />
    <glyph glyph-name="dcaron" unicode="&#x10f;" horiz-adv-x="1142" 
d="M1153 1489l-303 -1489h-55l26 178q-189 -209 -393 -209q-165 0 -251.5 112t-86.5 298q0 93 22 187.5t68.5 183.5t111 158t158.5 111t203 42q168 0 330 -66l102 494h68zM969 932q-162 65 -316 65q-111 0 -204.5 -53t-155 -141t-95.5 -198t-34 -226q0 -170 71 -257t203 -87
q188 0 396 235zM1227 1409q0 35 21 57.5t61 22.5q36 0 54.5 -20t18.5 -54q0 -74 -46 -172t-115 -178h-66q41 46 84 129t51 152q-63 0 -63 63z" />
    <glyph glyph-name="Dcroat" unicode="&#x110;" horiz-adv-x="1417" 
d="M1346 885q0 -207 -68.5 -375.5t-177.5 -278.5q-121 -123 -287 -177t-405 -54h-326l145 721h-198l14 70h199l141 698h289q191 0 316.5 -40.5t211.5 -129.5q72 -75 109 -188t37 -246zM416 70q206 0 363 48.5t272 166.5q101 104 159 260.5t58 343.5q0 244 -131 381
q-75 78 -185 113.5t-280 35.5h-228l-129 -628h420l-14 -70h-420l-133 -651h248z" />
    <glyph glyph-name="dcroat" unicode="&#x111;" horiz-adv-x="1142" 
d="M1153 1489l-31 -146h201l-14 -63h-199l-260 -1280h-55l26 178q-189 -209 -393 -209q-165 0 -251.5 112t-86.5 298q0 93 22 187.5t68.5 183.5t111 158t158.5 111t203 42q168 0 330 -66l59 285h-311l14 63h310l30 146h68zM969 932q-162 65 -316 65q-111 0 -204.5 -53
t-155 -141t-95.5 -198t-34 -226q0 -170 71 -257t203 -87q188 0 396 235z" />
    <glyph glyph-name="Emacron" unicode="&#x112;" horiz-adv-x="1189" 
d="M930 0h-848l301 1489h848l-12 -70h-775l-120 -590h708l-14 -69h-709l-141 -690h774zM1102 1614h-578l19 88h577z" />
    <glyph glyph-name="emacron" unicode="&#x113;" horiz-adv-x="1001" 
d="M365 481l-199 -12q-4 -62 -4 -94q0 -159 78 -249.5t233 -90.5q75 0 136.5 22t131.5 72l41 -55q-139 -105 -323 -105q-165 0 -267 100t-102 293q0 106 22.5 207t69 190.5t112 156.5t158 106t199.5 39q83 0 147 -20.5t100.5 -55.5t54.5 -76.5t18 -87.5q0 -107 -55.5 -175.5
t-190 -110.5t-360.5 -54zM897 813q0 34 -12 64.5t-39 58.5t-78.5 44.5t-122.5 16.5q-180 0 -305.5 -132.5t-163.5 -336.5l164 11q309 19 433 79.5t124 194.5zM985 1350h-577l18 88h578z" />
    <glyph glyph-name="Ebreve" unicode="&#x114;" horiz-adv-x="1189" 
d="M930 0h-848l301 1489h848l-12 -70h-775l-120 -590h708l-14 -69h-709l-141 -690h774zM1153 1880q-126 -283 -338 -283q-58 0 -101 28t-64.5 73t-31.5 90.5t-10 91.5h51q15 -92 54 -138t123 -46q161 0 254 184h63z" />
    <glyph glyph-name="ebreve" unicode="&#x115;" horiz-adv-x="1001" 
d="M365 481l-199 -12q-4 -62 -4 -94q0 -159 78 -249.5t233 -90.5q75 0 136.5 22t131.5 72l41 -55q-139 -105 -323 -105q-165 0 -267 100t-102 293q0 106 22.5 207t69 190.5t112 156.5t158 106t199.5 39q83 0 147 -20.5t100.5 -55.5t54.5 -76.5t18 -87.5q0 -107 -55.5 -175.5
t-190 -110.5t-360.5 -54zM897 813q0 34 -12 64.5t-39 58.5t-78.5 44.5t-122.5 16.5q-180 0 -305.5 -132.5t-163.5 -336.5l164 11q309 19 433 79.5t124 194.5zM991 1530q-126 -283 -338 -283q-58 0 -101 28t-64.5 73t-31.5 90.5t-10 91.5h52q15 -92 53.5 -138t122.5 -46
q161 0 254 184h63z" />
    <glyph glyph-name="Edotaccent" unicode="&#x116;" horiz-adv-x="1189" 
d="M930 0h-848l301 1489h848l-12 -70h-775l-120 -590h708l-14 -69h-709l-141 -690h774zM897 1683q0 -86 -80 -86q-30 0 -44.5 13.5t-14.5 44.5q0 84 80 84q32 0 45.5 -13t13.5 -43z" />
    <glyph glyph-name="edotaccent" unicode="&#x117;" horiz-adv-x="1001" 
d="M365 481l-199 -12q-4 -62 -4 -94q0 -159 78 -249.5t233 -90.5q75 0 136.5 22t131.5 72l41 -55q-139 -105 -323 -105q-165 0 -267 100t-102 293q0 106 22.5 207t69 190.5t112 156.5t158 106t199.5 39q83 0 147 -20.5t100.5 -55.5t54.5 -76.5t18 -87.5q0 -107 -55.5 -175.5
t-190 -110.5t-360.5 -54zM897 813q0 34 -12 64.5t-39 58.5t-78.5 44.5t-122.5 16.5q-180 0 -305.5 -132.5t-163.5 -336.5l164 11q309 19 433 79.5t124 194.5zM770 1329q0 -86 -80 -86q-30 0 -44.5 13t-14.5 44q0 84 80 84q32 0 45.5 -13t13.5 -42z" />
    <glyph glyph-name="Eogonek" unicode="&#x118;" horiz-adv-x="1189" 
d="M1073 -332q-112 -63 -227 -63q-86 0 -128 42t-42 113q0 102 80 240h-674l301 1489h848l-12 -70h-775l-120 -590h708l-14 -69h-709l-141 -690h774l-12 -70h-105q-71 -124 -71 -227q0 -54 31 -77.5t94 -23.5q57 0 180 47z" />
    <glyph glyph-name="eogonek" unicode="&#x119;" horiz-adv-x="1001" 
d="M365 481l-199 -12q-4 -62 -4 -94q0 -159 78 -249.5t233 -90.5q75 0 136.5 22t131.5 72l41 -55q-99 -76 -223 -97q-59 -99 -59 -204q0 -54 31 -77.5t94 -23.5q57 0 180 47l14 -51q-112 -63 -227 -63q-86 0 -128 42t-42 113q0 96 65 209h-28q-165 0 -267 100t-102 293
q0 106 22.5 207t69 190.5t112 156.5t158 106t199.5 39q83 0 147 -20.5t100.5 -55.5t54.5 -76.5t18 -87.5q0 -107 -55.5 -175.5t-190 -110.5t-360.5 -54zM897 813q0 34 -12 64.5t-39 58.5t-78.5 44.5t-122.5 16.5q-180 0 -305.5 -132.5t-163.5 -336.5l164 11q309 19 433 79.5
t124 194.5z" />
    <glyph glyph-name="Ecaron" unicode="&#x11a;" horiz-adv-x="1189" 
d="M930 0h-848l301 1489h848l-12 -70h-775l-120 -590h708l-14 -69h-709l-141 -690h774zM1171 1958l-299 -361h-86l-159 361h55l162 -275l264 275h63z" />
    <glyph glyph-name="ecaron" unicode="&#x11b;" horiz-adv-x="1001" 
d="M365 481l-199 -12q-4 -62 -4 -94q0 -159 78 -249.5t233 -90.5q75 0 136.5 22t131.5 72l41 -55q-139 -105 -323 -105q-165 0 -267 100t-102 293q0 106 22.5 207t69 190.5t112 156.5t158 106t199.5 39q83 0 147 -20.5t100.5 -55.5t54.5 -76.5t18 -87.5q0 -107 -55.5 -175.5
t-190 -110.5t-360.5 -54zM897 813q0 34 -12 64.5t-39 58.5t-78.5 44.5t-122.5 16.5q-180 0 -305.5 -132.5t-163.5 -336.5l164 11q309 19 433 79.5t124 194.5zM1004 1569l-299 -361h-87l-159 361h55l162 -275l264 275h64z" />
    <glyph glyph-name="Gcircumflex" unicode="&#x11c;" horiz-adv-x="1394" 
d="M1343 1266l-65 -39q-103 223 -389 223q-146 0 -270 -62t-214 -175.5t-141 -282.5t-51 -375q0 -108 26 -199t79 -163t143.5 -113t210.5 -41q182 0 403 113l88 434h-375l13 65h448l-108 -538q-234 -144 -482 -144q-131 0 -232.5 44t-165 123t-96 184.5t-32.5 232.5
q0 149 27.5 287.5t88.5 263t149 216.5t216.5 146t284.5 54q323 0 444 -254zM1200 1597h-57l-156 275l-270 -275h-62l306 361h86z" />
    <glyph glyph-name="gcircumflex" unicode="&#x11d;" horiz-adv-x="1148" 
d="M1221 1020l-15 -55q-54 20 -82 20q-47 0 -68 -28.5t-40 -116.5l-170 -840q-40 -199 -146 -297t-317 -98q-98 0 -191 22t-135 45l29 64q122 -64 303 -64q174 0 265 77t126 253l41 201q-93 -101 -188.5 -152t-208.5 -51q-159 0 -246.5 105t-87.5 264q0 100 22.5 198.5
t69 187.5t111.5 157t157.5 108.5t200.5 40.5q173 0 324 -109q36 90 145 90q45 0 101 -22zM840 299l116 584q-131 114 -319 114q-89 0 -166 -36t-132.5 -97t-95.5 -141t-59.5 -170t-19.5 -182q0 -131 68 -218t196 -87q103 0 197 53.5t215 179.5zM958 1208h-57l-156 275
l-270 -275h-61l305 361h86z" />
    <glyph glyph-name="Gbreve" unicode="&#x11e;" horiz-adv-x="1394" 
d="M1343 1266l-65 -39q-103 223 -389 223q-146 0 -270 -62t-214 -175.5t-141 -282.5t-51 -375q0 -108 26 -199t79 -163t143.5 -113t210.5 -41q182 0 403 113l88 434h-375l13 65h448l-108 -538q-234 -144 -482 -144q-131 0 -232.5 44t-165 123t-96 184.5t-32.5 232.5
q0 149 27.5 287.5t88.5 263t149 216.5t216.5 146t284.5 54q323 0 444 -254zM1231 1880q-126 -283 -338 -283q-58 0 -101 28t-64.5 73t-31.5 90.5t-10 91.5h51q15 -92 53.5 -138t122.5 -46q161 0 254 184h64z" />
    <glyph glyph-name="gbreve" unicode="&#x11f;" horiz-adv-x="1148" 
d="M1221 1020l-15 -55q-54 20 -82 20q-47 0 -68 -28.5t-40 -116.5l-170 -840q-40 -199 -146 -297t-317 -98q-98 0 -191 22t-135 45l29 64q122 -64 303 -64q174 0 265 77t126 253l41 201q-93 -101 -188.5 -152t-208.5 -51q-159 0 -246.5 105t-87.5 264q0 100 22.5 198.5
t69 187.5t111.5 157t157.5 108.5t200.5 40.5q173 0 324 -109q36 90 145 90q45 0 101 -22zM840 299l116 584q-131 114 -319 114q-89 0 -166 -36t-132.5 -97t-95.5 -141t-59.5 -170t-19.5 -182q0 -131 68 -218t196 -87q103 0 197 53.5t215 179.5zM1028 1530
q-126 -283 -338 -283q-58 0 -101 28t-64.5 73t-31.5 90.5t-10 91.5h52q15 -92 53.5 -138t122.5 -46q161 0 254 184h63z" />
    <glyph glyph-name="Gdotaccent" unicode="&#x120;" horiz-adv-x="1394" 
d="M1343 1266l-65 -39q-103 223 -389 223q-146 0 -270 -62t-214 -175.5t-141 -282.5t-51 -375q0 -108 26 -199t79 -163t143.5 -113t210.5 -41q182 0 403 113l88 434h-375l13 65h448l-108 -538q-234 -144 -482 -144q-131 0 -232.5 44t-165 123t-96 184.5t-32.5 232.5
q0 149 27.5 287.5t88.5 263t149 216.5t216.5 146t284.5 54q323 0 444 -254zM989 1683q0 -86 -80 -86q-30 0 -44.5 13.5t-14.5 44.5q0 84 80 84q32 0 45.5 -13t13.5 -43z" />
    <glyph glyph-name="gdotaccent" unicode="&#x121;" horiz-adv-x="1148" 
d="M1221 1020l-15 -55q-54 20 -82 20q-47 0 -68 -28.5t-40 -116.5l-170 -840q-40 -199 -146 -297t-317 -98q-98 0 -191 22t-135 45l29 64q122 -64 303 -64q174 0 265 77t126 253l41 201q-93 -101 -188.5 -152t-208.5 -51q-159 0 -246.5 105t-87.5 264q0 100 22.5 198.5
t69 187.5t111.5 157t157.5 108.5t200.5 40.5q173 0 324 -109q36 90 145 90q45 0 101 -22zM840 299l116 584q-131 114 -319 114q-89 0 -166 -36t-132.5 -97t-95.5 -141t-59.5 -170t-19.5 -182q0 -131 68 -218t196 -87q103 0 197 53.5t215 179.5zM768 1329q0 -86 -80 -86
q-30 0 -44.5 13t-14.5 44q0 84 80 84q32 0 45.5 -13t13.5 -42z" />
    <glyph glyph-name="Gcommaaccent" unicode="&#x122;" horiz-adv-x="1394" 
d="M1343 1266l-65 -39q-103 223 -389 223q-146 0 -270 -62t-214 -175.5t-141 -282.5t-51 -375q0 -108 26 -199t79 -163t143.5 -113t210.5 -41q182 0 403 113l88 434h-375l13 65h448l-108 -538q-234 -144 -482 -144q-131 0 -232.5 44t-165 123t-96 184.5t-32.5 232.5
q0 149 27.5 287.5t88.5 263t149 216.5t216.5 146t284.5 54q323 0 444 -254zM580 -139q0 35 21 57.5t61 22.5q37 0 55 -19t18 -49q0 -67 -38.5 -149t-73.5 -119h-66q73 82 86 192q-63 0 -63 64z" />
    <glyph glyph-name="gcommaaccent" unicode="&#x123;" horiz-adv-x="1148" 
d="M1221 1020l-15 -55q-54 20 -82 20q-47 0 -68 -28.5t-40 -116.5l-170 -840q-40 -199 -146 -297t-317 -98q-98 0 -191 22t-135 45l29 64q122 -64 303 -64q174 0 265 77t126 253l41 201q-93 -101 -188.5 -152t-208.5 -51q-159 0 -246.5 105t-87.5 264q0 100 22.5 198.5
t69 187.5t111.5 157t157.5 108.5t200.5 40.5q173 0 324 -109q36 90 145 90q45 0 101 -22zM840 299l116 584q-131 114 -319 114q-89 0 -166 -36t-132.5 -97t-95.5 -141t-59.5 -170t-19.5 -182q0 -131 68 -218t196 -87q103 0 197 53.5t215 179.5zM801 1325q0 -35 -21 -57.5
t-61 -22.5q-38 0 -56 19t-18 49q0 67 39 149t74 119h65q-73 -82 -86 -192q64 0 64 -64z" />
    <glyph glyph-name="Hcircumflex" unicode="&#x124;" horiz-adv-x="1394" 
d="M1094 0h-74l149 735h-864l-149 -735h-74l301 1489h74l-140 -688h865l139 688h74zM1147 1597h-57l-156 275l-270 -275h-62l305 361h86z" />
    <glyph glyph-name="hcircumflex" unicode="&#x125;" horiz-adv-x="1142" 
d="M868 0h-67l129 643q24 118 24 168q0 91 -46 139.5t-156 48.5q-193 0 -447 -219l-158 -780h-69l301 1489h67l-127 -629q134 111 242 156t213 45q121 0 185.5 -65t64.5 -158q0 -75 -18 -160zM885 1597h-58l-155 275l-271 -275h-61l305 361h86z" />
    <glyph glyph-name="Hbar" unicode="&#x126;" horiz-adv-x="1394" 
d="M1094 0h-74l149 735h-864l-149 -735h-74l225 1116h-139l14 66h137l64 307h74l-64 -307h864l64 307h74l-64 -307h125l-14 -66h-123zM317 801h865l63 315h-864z" />
    <glyph glyph-name="hbar" unicode="&#x127;" horiz-adv-x="1142" 
d="M868 0h-67l129 643q24 118 24 168q0 91 -46 139.5t-156 48.5q-193 0 -447 -219l-158 -780h-69l258 1280h-117l14 63h115l31 146h67l-30 -146h395l-14 -63h-394l-84 -420q134 111 242 156t213 45q121 0 185.5 -65t64.5 -158q0 -75 -18 -160z" />
    <glyph glyph-name="Itilde" unicode="&#x128;" horiz-adv-x="661" 
d="M422 0h-432l12 63h178l277 1362h-181l13 64h434l-12 -64h-181l-276 -1362h180zM889 1858q-50 -246 -213 -246q-26 0 -48.5 7t-43.5 24t-32.5 28.5t-32.5 37t-27 32.5q-47 51 -89 51q-38 0 -68.5 -34t-45 -71t-21.5 -75h-63q54 246 223 246q43 0 75 -21.5t66 -60.5
q5 -6 19.5 -23t21 -24t19 -19.5t22 -18t22 -10t25.5 -4.5q24 0 44.5 13.5t33 31t24.5 46.5t17 46t12 44h60z" />
    <glyph glyph-name="itilde" unicode="&#x129;" horiz-adv-x="497" 
d="M201 0h-68l172 850q19 89 19 108q0 20 -6.5 29.5t-24.5 9.5q-40 0 -146 -67l-24 47q131 84 196 84q76 0 76 -80q0 -30 -16 -104zM711 1511q-50 -245 -213 -245q-26 0 -48.5 7t-44 24.5t-32.5 28t-32.5 37t-27.5 32.5q-47 51 -88 51q-38 0 -68.5 -34t-45 -71t-21.5 -75
h-63q54 245 223 245q43 0 75.5 -21t65.5 -60q5 -6 19.5 -23t21 -24t19 -19.5t22 -18t22 -10t25.5 -4.5q24 0 44.5 13.5t33 31t24.5 46t17 46t12 43.5h60z" />
    <glyph glyph-name="Imacron" unicode="&#x12a;" horiz-adv-x="661" 
d="M422 0h-432l12 63h178l277 1362h-181l13 64h434l-12 -64h-181l-276 -1362h180zM815 1614h-577l18 88h578z" />
    <glyph glyph-name="imacron" unicode="&#x12b;" horiz-adv-x="497" 
d="M201 0h-68l172 850q19 89 19 108q0 20 -6.5 29.5t-24.5 9.5q-40 0 -146 -67l-24 47q131 84 196 84q76 0 76 -80q0 -30 -16 -104zM651 1350h-577l18 88h578z" />
    <glyph glyph-name="Ibreve" unicode="&#x12c;" horiz-adv-x="661" 
d="M422 0h-432l12 63h178l277 1362h-181l13 64h434l-12 -64h-181l-276 -1362h180zM842 1880q-126 -283 -338 -283q-58 0 -101 28t-64.5 73t-31.5 90.5t-10 91.5h51q15 -92 53.5 -138t122.5 -46q161 0 254 184h64z" />
    <glyph glyph-name="ibreve" unicode="&#x12d;" horiz-adv-x="497" 
d="M201 0h-68l172 850q19 89 19 108q0 20 -6.5 29.5t-24.5 9.5q-40 0 -146 -67l-24 47q131 84 196 84q76 0 76 -80q0 -30 -16 -104zM690 1530q-126 -283 -338 -283q-58 0 -101 28t-64.5 73t-31.5 90.5t-10 91.5h52q15 -92 53.5 -138t122.5 -46q161 0 254 184h63z" />
    <glyph glyph-name="Iogonek" unicode="&#x12e;" horiz-adv-x="661" 
d="M489 -332q-112 -63 -227 -63q-86 0 -128 42t-42 113q0 102 80 240h-182l12 63h178l277 1362h-181l13 64h434l-12 -64h-181l-276 -1362h180l-12 -63h-180q-72 -126 -72 -227q0 -54 31 -77.5t94 -23.5q57 0 180 47z" />
    <glyph glyph-name="iogonek" unicode="&#x12f;" horiz-adv-x="497" 
d="M201 0q-72 -123 -72 -227q0 -54 31 -77.5t94 -23.5q57 0 180 47l15 -51q-112 -63 -228 -63q-86 0 -128 42t-42 113q0 106 84 248l170 842q19 89 19 108q0 20 -6.5 29.5t-24.5 9.5q-40 0 -146 -67l-24 47q131 84 196 84q76 0 76 -80q0 -30 -16 -104zM467 1346
q0 -80 -70 -80q-28 0 -40.5 12t-12.5 39q0 78 70 78q53 0 53 -49z" />
    <glyph glyph-name="Idotaccent" unicode="&#x130;" horiz-adv-x="661" 
d="M422 0h-432l12 63h178l277 1362h-181l13 64h434l-12 -64h-181l-276 -1362h180zM600 1683q0 -86 -80 -86q-30 0 -44.5 13.5t-14.5 44.5q0 84 80 84q32 0 45.5 -13t13.5 -43z" />
    <glyph glyph-name="dotlessi" unicode="&#x131;" horiz-adv-x="497" 
d="M201 0h-68l172 850q19 89 19 108q0 20 -6.5 29.5t-24.5 9.5q-40 0 -146 -67l-24 47q131 84 196 84q76 0 76 -80q0 -30 -16 -104z" />
    <glyph glyph-name="IJ" unicode="&#x132;" horiz-adv-x="1437" 
d="M422 0h-432l12 63h178l277 1362h-181l13 64h434l-12 -64h-181l-276 -1362h180zM1210 328q-17 -84 -43 -145.5t-68.5 -111.5t-108.5 -76t-154 -26q-116 0 -211 56l41 63q76 -49 176 -49q136 0 200.5 74t98.5 241l219 1071h-51q-129 0 -217.5 -25t-176.5 -85l-34 55
q86 61 187.5 90t238.5 29h139z" />
    <glyph glyph-name="ij" unicode="&#x133;" horiz-adv-x="1024" 
d="M201 0h-68l172 850q19 89 19 108q0 20 -6.5 29.5t-24.5 9.5q-40 0 -146 -67l-24 47q131 84 196 84q76 0 76 -80q0 -30 -16 -104zM467 1346q0 -80 -70 -80q-28 0 -40.5 12t-12.5 39q0 78 70 78q53 0 53 -49zM903 877l-196 -965q-34 -162 -105 -234.5t-215 -72.5
q-48 0 -96.5 8.5t-71.5 19.5l29 64q64 -27 158 -27q59 0 99 16.5t67.5 55.5t44 88t32.5 127l180 895q19 89 19 109q0 36 -31 36q-39 0 -145 -67l-25 47q131 84 197 84q76 0 76 -80q0 -25 -17 -104zM993 1346q0 -80 -69 -80q-28 0 -41 12t-13 39q0 78 70 78q53 0 53 -49z" />
    <glyph glyph-name="Jcircumflex" unicode="&#x134;" horiz-adv-x="772" 
d="M545 328q-17 -84 -43 -145.5t-69 -111.5t-109 -76t-154 -26q-116 0 -211 56l41 63q76 -49 176 -49q136 0 200.5 74t98.5 241l219 1071h-51q-128 0 -216.5 -25t-176.5 -85l-35 55q86 61 187.5 90t238.5 29h139zM831 1597h-57l-156 275l-270 -275h-61l305 361h86z" />
    <glyph glyph-name="jcircumflex" unicode="&#x135;" horiz-adv-x="518" 
d="M397 877l-196 -965q-34 -162 -105 -234.5t-215 -72.5q-48 0 -96.5 8.5t-71.5 19.5l33 66q69 -29 154 -29q59 0 99 16.5t67.5 55.5t44 88t32.5 127l181 895q18 85 18 109q0 38 -31 38q-45 0 -145 -63l-25 41q131 84 197 84q76 0 76 -80q0 -25 -17 -104zM629 1208h-58
l-155 275l-271 -275h-61l305 361h86z" />
    <glyph glyph-name="Kcommaaccent" unicode="&#x136;" horiz-adv-x="1245" 
d="M1296 1489l-594 -563l388 -926h-84l-359 874l-389 -368l-102 -506h-74l301 1489h74l-178 -879l919 879h98zM461 -139q0 35 21 57.5t61 22.5q37 0 55 -19t18 -49q0 -67 -38.5 -149t-73.5 -119h-66q73 82 86 192q-63 0 -63 64z" />
    <glyph glyph-name="kcommaaccent" unicode="&#x137;" horiz-adv-x="952" 
d="M952 1030l-454 -424l250 -518q21 -47 63 -47q20 0 53 10l10 -57q-66 -17 -83 -17q-37 0 -64 24.5t-51 76.5l-227 481l-234 -219l-68 -340h-69l301 1489h70l-216 -1049l625 590h94zM356 -139q0 35 21 57.5t61 22.5q38 0 56 -19t18 -49q0 -67 -39 -149t-74 -119h-65
q73 82 86 192q-64 0 -64 64z" />
    <glyph glyph-name="kgreenlandic" unicode="&#x138;" horiz-adv-x="952" 
d="M952 1030l-454 -426l250 -516q21 -47 63 -47q20 0 53 10l10 -57q-66 -17 -86 -17q-39 0 -65 24t-51 77l-223 479l-234 -217l-68 -340h-69l207 1030h69l-121 -590l627 590h92z" />
    <glyph glyph-name="Lacute" unicode="&#x139;" horiz-adv-x="1015" 
d="M891 0h-809l301 1489h74l-289 -1419h735zM827 1958l-358 -361h-72l305 361h125z" />
    <glyph glyph-name="lacute" unicode="&#x13a;" horiz-adv-x="514" 
d="M408 -16q-62 -15 -129 -15q-166 0 -166 168q0 39 22 158l236 1159l82 64l-246 -1203q-25 -122 -25 -170q0 -55 25 -84.5t88 -29.5q52 0 104 14zM817 1958l-358 -361h-72l305 361h125z" />
    <glyph glyph-name="Lcommaaccent" unicode="&#x13b;" horiz-adv-x="1015" 
d="M891 0h-809l301 1489h74l-289 -1419h735zM449 -139q0 36 20.5 58t60.5 22q38 0 56 -19t18 -49q0 -67 -38.5 -149t-73.5 -119h-66q73 82 86 192q-63 0 -63 64z" />
    <glyph glyph-name="lcommaaccent" unicode="&#x13c;" horiz-adv-x="514" 
d="M408 -16q-62 -15 -129 -15q-166 0 -166 168q0 39 22 158l236 1159l82 64l-246 -1203q-25 -122 -25 -170q0 -55 25 -84.5t88 -29.5q52 0 104 14zM197 -139q0 35 21 57.5t61 22.5q37 0 55 -19t18 -49q0 -67 -38.5 -149t-73.5 -119h-66q73 82 86 192q-63 0 -63 64z" />
    <glyph glyph-name="Lcaron" unicode="&#x13d;" horiz-adv-x="1015" 
d="M891 0h-809l301 1489h74l-289 -1419h735zM725 1409q0 35 21 57.5t61 22.5q36 0 55 -20.5t19 -53.5q0 -73 -46.5 -171.5t-115.5 -178.5h-66q41 46 84 129t51 152q-63 0 -63 63z" />
    <glyph glyph-name="lcaron" unicode="&#x13e;" horiz-adv-x="514" 
d="M408 -16q-62 -15 -129 -15q-166 0 -166 168q0 39 22 158l236 1159l82 64l-246 -1203q-25 -122 -25 -170q0 -55 25 -84.5t88 -29.5q52 0 104 14zM539 1409q0 35 21 57.5t61 22.5q36 0 54.5 -20t18.5 -54q0 -73 -46.5 -171.5t-115.5 -178.5h-65q41 46 84 129t51 152
q-63 0 -63 63z" />
    <glyph glyph-name="Ldot" unicode="&#x13f;" horiz-adv-x="1015" 
d="M891 0h-809l301 1489h74l-289 -1419h735zM823 672q0 -90 -94 -90q-67 0 -67 51q0 92 94 92q67 0 67 -53z" />
    <glyph glyph-name="ldot" unicode="&#x140;" horiz-adv-x="514" 
d="M408 -16q-62 -15 -129 -15q-166 0 -166 168q0 39 22 158l236 1159l82 64l-246 -1203q-25 -122 -25 -170q0 -55 25 -84.5t88 -29.5q52 0 104 14zM584 676q0 -86 -80 -86q-31 0 -45.5 13t-14.5 44q0 84 80 84q32 0 46 -13t14 -42z" />
    <glyph glyph-name="Lslash" unicode="&#x141;" horiz-adv-x="1015" 
d="M891 0h-809l125 623l-197 -136l15 88l200 138l158 776h74l-146 -717l336 232l-14 -89l-340 -233l-125 -612h735z" />
    <glyph glyph-name="lslash" unicode="&#x142;" horiz-adv-x="514" 
d="M408 -16q-62 -15 -129 -15q-166 0 -166 168q0 39 22 158l72 354l-211 -168l10 84l219 176l146 713l82 64l-146 -713l213 172l-10 -84l-221 -178l-82 -400q-25 -122 -25 -170q0 -55 25 -84.5t88 -29.5q52 0 104 14z" />
    <glyph glyph-name="Nacute" unicode="&#x143;" horiz-adv-x="1376" 
d="M1075 0h-102l-535 1391l-282 -1391h-74l301 1489h94l541 -1405l285 1405h73zM1149 1958l-358 -361h-72l305 361h125z" />
    <glyph glyph-name="nacute" unicode="&#x144;" horiz-adv-x="1142" 
d="M1024 834q0 -59 -18 -154l-138 -680h-67l139 694q14 79 14 123q0 182 -198 182q-110 0 -233 -66.5t-218 -152.5l-158 -780h-69l209 1030h67l-35 -170q221 201 457 201q122 0 185 -60.5t63 -166.5zM995 1569l-358 -361h-72l305 361h125z" />
    <glyph glyph-name="Ncommaaccent" unicode="&#x145;" horiz-adv-x="1376" 
d="M1075 0h-102l-535 1391l-282 -1391h-74l301 1489h94l541 -1405l285 1405h73zM526 -139q0 35 21 57.5t61 22.5q38 0 56 -19t18 -49q0 -67 -39 -149t-74 -119h-65q73 82 86 192q-64 0 -64 64z" />
    <glyph glyph-name="ncommaaccent" unicode="&#x146;" horiz-adv-x="1142" 
d="M1024 834q0 -59 -18 -154l-138 -680h-67l139 694q14 79 14 123q0 182 -198 182q-110 0 -233 -66.5t-218 -152.5l-158 -780h-69l209 1030h67l-35 -170q221 201 457 201q122 0 185 -60.5t63 -166.5zM399 -139q0 35 21 57.5t61 22.5q38 0 56 -19t18 -49q0 -67 -39 -149
t-74 -119h-65q73 82 86 192q-64 0 -64 64z" />
    <glyph glyph-name="Ncaron" unicode="&#x147;" horiz-adv-x="1376" 
d="M1075 0h-102l-535 1391l-282 -1391h-74l301 1489h94l541 -1405l285 1405h73zM1241 1958l-299 -361h-86l-160 361h56l161 -275l265 275h63z" />
    <glyph glyph-name="ncaron" unicode="&#x148;" horiz-adv-x="1142" 
d="M1024 834q0 -59 -18 -154l-138 -680h-67l139 694q14 79 14 123q0 182 -198 182q-110 0 -233 -66.5t-218 -152.5l-158 -780h-69l209 1030h67l-35 -170q221 201 457 201q122 0 185 -60.5t63 -166.5zM1053 1569l-299 -361h-86l-160 361h55l162 -275l264 275h64z" />
    <glyph glyph-name="napostrophe" unicode="&#x149;" horiz-adv-x="1142" 
d="M1024 834q0 -59 -18 -154l-138 -680h-67l139 694q14 79 14 123q0 182 -198 182q-110 0 -233 -66.5t-218 -152.5l-158 -780h-69l209 1030h67l-35 -170q221 201 457 201q122 0 185 -60.5t63 -166.5zM129 1456q0 35 21 57.5t61 22.5q36 0 55 -20.5t19 -53.5
q0 -73 -46.5 -171.5t-115.5 -178.5h-66q42 47 85 129.5t51 151.5q-64 0 -64 63z" />
    <glyph glyph-name="Eng" unicode="&#x14a;" horiz-adv-x="1415" 
d="M1098 -37q-14 -69 -30 -118t-44.5 -97.5t-66.5 -77.5t-96.5 -47t-135.5 -18q-124 0 -217 51l43 68q77 -50 190 -50q70 0 118.5 18.5t81 61t52.5 97t37 139.5l189 925q36 166 36 281q0 126 -56 190t-189 64q-75 0 -158 -26t-165.5 -73.5t-152 -96.5t-147.5 -113
l-231 -1141h-74l303 1489h74l-53 -256q181 146 329.5 216.5t294.5 70.5q301 0 301 -308q0 -89 -31 -247z" />
    <glyph glyph-name="eng" unicode="&#x14b;" horiz-adv-x="1142" 
d="M1024 834q0 -59 -18 -154l-156 -768q-32 -161 -103.5 -234t-216.5 -73q-48 0 -96.5 8.5t-71.5 19.5l33 66q69 -29 154 -29q112 0 162.5 65.5t81.5 221.5l147 737q14 79 14 123q0 182 -206 182q-109 0 -226.5 -66t-216.5 -153l-158 -780h-69l209 1030h67l-35 -170
q221 201 457 201q122 0 185 -60.5t63 -166.5z" />
    <glyph glyph-name="Omacron" unicode="&#x14c;" horiz-adv-x="1499" 
d="M1427 938q0 -221 -70 -426t-192 -330q-206 -213 -508 -213q-130 0 -232 46t-165 125.5t-95 182t-32 220.5q0 221 68.5 424.5t201.5 343.5q202 209 494 209q112 0 202 -31.5t150.5 -85.5t101 -128.5t58.5 -158.5t18 -178zM674 41q250 0 428 178q117 117 181.5 307
t64.5 412q0 105 -25 193.5t-78 161t-144.5 114t-213.5 41.5q-123 0 -233.5 -47.5t-194.5 -138.5q-118 -128 -183 -311t-65 -400q0 -146 50 -259.5t156.5 -182t256.5 -68.5zM1217 1614h-578l18 88h578z" />
    <glyph glyph-name="omacron" unicode="&#x14d;" horiz-adv-x="1114" 
d="M1024 662q0 -102 -21 -200.5t-66 -188t-108.5 -157t-155.5 -107.5t-200 -40q-172 0 -277.5 106t-105.5 294q0 101 20.5 198.5t65 187.5t108.5 157.5t158 108t207 40.5q165 0 270 -106t105 -293zM487 37q138 0 245 86t162.5 227t55.5 309q0 150 -79.5 242t-233.5 92
q-111 0 -202 -51.5t-149.5 -138t-90 -196.5t-31.5 -230q0 -158 80 -249t243 -91zM961 1350h-578l18 88h578z" />
    <glyph glyph-name="Obreve" unicode="&#x14e;" horiz-adv-x="1499" 
d="M1427 938q0 -221 -70 -426t-192 -330q-206 -213 -508 -213q-130 0 -232 46t-165 125.5t-95 182t-32 220.5q0 221 68.5 424.5t201.5 343.5q202 209 494 209q112 0 202 -31.5t150.5 -85.5t101 -128.5t58.5 -158.5t18 -178zM674 41q250 0 428 178q117 117 181.5 307
t64.5 412q0 105 -25 193.5t-78 161t-144.5 114t-213.5 41.5q-123 0 -233.5 -47.5t-194.5 -138.5q-118 -128 -183 -311t-65 -400q0 -146 50 -259.5t156.5 -182t256.5 -68.5zM1225 1880q-126 -283 -338 -283q-58 0 -101 28t-64.5 73t-31.5 90.5t-10 91.5h51q15 -92 53.5 -138
t122.5 -46q161 0 254 184h64z" />
    <glyph glyph-name="obreve" unicode="&#x14f;" horiz-adv-x="1114" 
d="M1024 662q0 -102 -21 -200.5t-66 -188t-108.5 -157t-155.5 -107.5t-200 -40q-172 0 -277.5 106t-105.5 294q0 101 20.5 198.5t65 187.5t108.5 157.5t158 108t207 40.5q165 0 270 -106t105 -293zM487 37q138 0 245 86t162.5 227t55.5 309q0 150 -79.5 242t-233.5 92
q-111 0 -202 -51.5t-149.5 -138t-90 -196.5t-31.5 -230q0 -158 80 -249t243 -91zM987 1530q-126 -283 -338 -283q-58 0 -101 28t-64.5 73t-31.5 90.5t-10 91.5h52q15 -92 53.5 -138t122.5 -46q161 0 254 184h63z" />
    <glyph glyph-name="Ohungarumlaut" unicode="&#x150;" horiz-adv-x="1499" 
d="M1427 938q0 -221 -70 -426t-192 -330q-206 -213 -508 -213q-130 0 -232 46t-165 125.5t-95 182t-32 220.5q0 221 68.5 424.5t201.5 343.5q202 209 494 209q112 0 202 -31.5t150.5 -85.5t101 -128.5t58.5 -158.5t18 -178zM674 41q250 0 428 178q117 117 181.5 307
t64.5 412q0 105 -25 193.5t-78 161t-144.5 114t-213.5 41.5q-123 0 -233.5 -47.5t-194.5 -138.5q-118 -128 -183 -311t-65 -400q0 -146 50 -259.5t156.5 -182t256.5 -68.5zM1411 1958l-362 -361h-68l309 361h121zM1061 1958l-361 -361h-67l307 361h121z" />
    <glyph glyph-name="ohungarumlaut" unicode="&#x151;" horiz-adv-x="1114" 
d="M1024 662q0 -102 -21 -200.5t-66 -188t-108.5 -157t-155.5 -107.5t-200 -40q-172 0 -277.5 106t-105.5 294q0 101 20.5 198.5t65 187.5t108.5 157.5t158 108t207 40.5q165 0 270 -106t105 -293zM487 37q138 0 245 86t162.5 227t55.5 309q0 150 -79.5 242t-233.5 92
q-111 0 -202 -51.5t-149.5 -138t-90 -196.5t-31.5 -230q0 -158 80 -249t243 -91zM1196 1569l-362 -361h-68l309 361h121zM846 1569l-361 -361h-67l307 361h121z" />
    <glyph glyph-name="OE" unicode="&#x152;" horiz-adv-x="1931" 
d="M1671 0h-809q-118 -31 -213 -31q-127 0 -227.5 45t-162.5 124t-94 179.5t-32 217.5q0 146 26.5 283t87 266t149 224.5t223 153.5t299.5 58q139 0 241 -31h813l-12 -70h-682l-121 -590h617l-15 -69h-616l-142 -690h682zM932 86l268 1317q-135 47 -295 47q-131 0 -243 -46
t-194.5 -128.5t-140.5 -195.5t-87 -249.5t-29 -287.5q0 -102 27.5 -191.5t81.5 -160t141 -111.5t198 -41q130 0 273 47z" />
    <glyph glyph-name="oe" unicode="&#x153;" horiz-adv-x="1839" 
d="M1202 481l-198 -12q-5 -78 -5 -94q0 -159 78.5 -249.5t233.5 -90.5q75 0 136.5 22t131.5 72l41 -55q-139 -105 -324 -105q-144 0 -241 76t-121 225q-68 -138 -184.5 -219.5t-276.5 -81.5q-172 0 -277.5 106t-105.5 294q0 101 20.5 198.5t65 187.5t108.5 157.5t158 108
t207 40.5q142 0 241.5 -81.5t123.5 -227.5q71 142 192 225.5t283 83.5q83 0 146.5 -20.5t100 -56t54.5 -76.5t18 -87q0 -107 -55.5 -175.5t-190 -110.5t-360.5 -54zM487 37q138 0 245 86t162.5 227t55.5 309q0 150 -79.5 242t-233.5 92q-111 0 -202 -51.5t-149.5 -138
t-90 -196.5t-31.5 -230q0 -158 80 -249t243 -91zM1735 813q0 34 -12 64.5t-39 58.5t-78.5 44.5t-122.5 16.5q-180 0 -305.5 -132.5t-163.5 -336.5l164 11q309 19 433 79.5t124 194.5z" />
    <glyph glyph-name="Racute" unicode="&#x154;" horiz-adv-x="1294" 
d="M1063 0h-78l-27 440q-6 115 -48 166t-154 51h-467l-133 -657h-74l301 1489h399q257 0 371 -111q90 -90 90 -235q0 -344 -356 -445q39 -10 66.5 -30t42 -48t21 -56t9.5 -64zM301 725h313q96 0 176.5 13t150.5 43t118.5 76.5t76 117t27.5 160.5q0 128 -76 198
q-93 88 -313 88h-330zM1067 1958l-358 -361h-72l305 361h125z" />
    <glyph glyph-name="racute" unicode="&#x155;" horiz-adv-x="706" 
d="M768 1032l-27 -65q-31 8 -59 8q-76 0 -165.5 -62.5t-217.5 -189.5l-149 -723h-72l209 1030h71l-43 -217q131 133 215.5 183.5t165.5 50.5q42 0 72 -15zM885 1569l-359 -361h-71l305 361h125z" />
    <glyph glyph-name="Rcommaaccent" unicode="&#x156;" horiz-adv-x="1294" 
d="M1063 0h-78l-27 440q-6 115 -48 166t-154 51h-467l-133 -657h-74l301 1489h399q257 0 371 -111q90 -90 90 -235q0 -344 -356 -445q39 -10 66.5 -30t42 -48t21 -56t9.5 -64zM301 725h313q96 0 176.5 13t150.5 43t118.5 76.5t76 117t27.5 160.5q0 128 -76 198
q-93 88 -313 88h-330zM485 -139q0 35 21 57.5t61 22.5q38 0 56 -19t18 -49q0 -67 -39 -149t-74 -119h-65q73 82 86 192q-64 0 -64 64z" />
    <glyph glyph-name="rcommaaccent" unicode="&#x157;" horiz-adv-x="706" 
d="M768 1032l-27 -65q-31 8 -59 8q-76 0 -165.5 -62.5t-217.5 -189.5l-149 -723h-72l209 1030h71l-43 -217q131 133 215.5 183.5t165.5 50.5q42 0 72 -15zM63 -139q0 35 21 57.5t61 22.5q38 0 56 -19t18 -49q0 -67 -39 -149t-74 -119h-65q73 82 86 192q-64 0 -64 64z" />
    <glyph glyph-name="Rcaron" unicode="&#x158;" horiz-adv-x="1294" 
d="M1063 0h-78l-27 440q-6 115 -48 166t-154 51h-467l-133 -657h-74l301 1489h399q257 0 371 -111q90 -90 90 -235q0 -344 -356 -445q39 -10 66.5 -30t42 -48t21 -56t9.5 -64zM301 725h313q96 0 176.5 13t150.5 43t118.5 76.5t76 117t27.5 160.5q0 128 -76 198
q-93 88 -313 88h-330zM1112 1958l-299 -361h-86l-160 361h56l161 -275l265 275h63z" />
    <glyph glyph-name="rcaron" unicode="&#x159;" horiz-adv-x="706" 
d="M768 1032l-27 -65q-31 8 -59 8q-76 0 -165.5 -62.5t-217.5 -189.5l-149 -723h-72l209 1030h71l-43 -217q131 133 215.5 183.5t165.5 50.5q42 0 72 -15zM887 1569l-299 -361h-86l-160 361h55l162 -275l264 275h64z" />
    <glyph glyph-name="Sacute" unicode="&#x15a;" horiz-adv-x="1241" 
d="M1081 436q0 -145 -70 -252t-187.5 -161t-266.5 -54q-86 0 -162.5 17.5t-131.5 46.5t-99.5 68t-72 78.5t-44.5 82.5l68 37q52 -116 165.5 -189t290.5 -73q86 0 162 24t136 70.5t95 123t35 173.5q0 48 -11 87t-35.5 70t-53 54.5t-73.5 45.5t-86 37.5t-101 35.5
q-59 19 -99.5 35t-90.5 39.5t-83 49.5t-63 60t-44.5 77.5t-14.5 94.5q0 126 68 219.5t179 140t248 46.5q184 0 299.5 -79.5t165.5 -201.5l-67 -35q-50 114 -149.5 181t-248.5 67q-190 0 -303.5 -90t-113.5 -240q0 -49 19 -89.5t46.5 -68.5t76 -54t91 -43t107.5 -38
q60 -20 103.5 -37.5t96 -43t88.5 -55t67.5 -67t47.5 -86t16 -104.5zM1024 1958l-358 -361h-72l305 361h125z" />
    <glyph glyph-name="sacute" unicode="&#x15b;" horiz-adv-x="921" 
d="M778 266q0 -144 -107.5 -220.5t-289.5 -76.5q-122 0 -215.5 43.5t-145.5 120.5l58 39q99 -137 307 -137q67 0 122 11.5t101.5 37t72.5 71.5t26 109q0 38 -16.5 69.5t-39 52.5t-67.5 44t-78.5 36.5t-95.5 35.5q-113 40 -178.5 101t-65.5 157q0 75 32 134t85.5 94.5
t117.5 54t134 18.5q104 0 195 -40t140 -114l-57 -39q-93 127 -287 127q-122 0 -204 -60.5t-82 -168.5q0 -73 53.5 -121t144.5 -82q53 -19 78 -29t69 -29t65.5 -33.5t50.5 -37.5t42.5 -46t24 -54.5t10.5 -67.5zM870 1569l-358 -361h-72l305 361h125z" />
    <glyph glyph-name="Scircumflex" unicode="&#x15c;" horiz-adv-x="1241" 
d="M1081 436q0 -145 -70 -252t-187.5 -161t-266.5 -54q-86 0 -162.5 17.5t-131.5 46.5t-99.5 68t-72 78.5t-44.5 82.5l68 37q52 -116 165.5 -189t290.5 -73q86 0 162 24t136 70.5t95 123t35 173.5q0 48 -11 87t-35.5 70t-53 54.5t-73.5 45.5t-86 37.5t-101 35.5
q-59 19 -99.5 35t-90.5 39.5t-83 49.5t-63 60t-44.5 77.5t-14.5 94.5q0 126 68 219.5t179 140t248 46.5q184 0 299.5 -79.5t165.5 -201.5l-67 -35q-50 114 -149.5 181t-248.5 67q-190 0 -303.5 -90t-113.5 -240q0 -49 19 -89.5t46.5 -68.5t76 -54t91 -43t107.5 -38
q60 -20 103.5 -37.5t96 -43t88.5 -55t67.5 -67t47.5 -86t16 -104.5zM1042 1597h-57l-156 275l-270 -275h-61l305 361h86z" />
    <glyph glyph-name="scircumflex" unicode="&#x15d;" horiz-adv-x="921" 
d="M778 266q0 -144 -107.5 -220.5t-289.5 -76.5q-122 0 -215.5 43.5t-145.5 120.5l58 39q99 -137 307 -137q67 0 122 11.5t101.5 37t72.5 71.5t26 109q0 38 -16.5 69.5t-39 52.5t-67.5 44t-78.5 36.5t-95.5 35.5q-113 40 -178.5 101t-65.5 157q0 75 32 134t85.5 94.5
t117.5 54t134 18.5q104 0 195 -40t140 -114l-57 -39q-93 127 -287 127q-122 0 -204 -60.5t-82 -168.5q0 -73 53.5 -121t144.5 -82q53 -19 78 -29t69 -29t65.5 -33.5t50.5 -37.5t42.5 -46t24 -54.5t10.5 -67.5zM854 1208h-57l-156 275l-270 -275h-62l305 361h86z" />
    <glyph glyph-name="Scedilla" unicode="&#x15e;" horiz-adv-x="1241" 
d="M670 -172q0 -102 -81 -162.5t-198 -60.5q-88 0 -203 39l35 61q93 -41 193 -41q74 0 129 40t55 112q0 53 -48.5 81.5t-113.5 28.5l31 47q-87 10 -160.5 39t-124.5 70.5t-84.5 86.5t-52.5 93l68 37q52 -116 165.5 -189t290.5 -73q86 0 162 24t136 70.5t95 123t35 173.5
q0 48 -11 87t-35.5 70t-53 54.5t-73.5 45.5t-86 37.5t-101 35.5q-59 19 -99.5 35t-90.5 39.5t-83 49.5t-63 60t-44.5 77.5t-14.5 94.5q0 126 68 219.5t179 140t248 46.5q184 0 299.5 -79.5t165.5 -201.5l-67 -35q-50 114 -149.5 181t-248.5 67q-190 0 -303.5 -90
t-113.5 -240q0 -49 19 -89.5t46.5 -68.5t76 -54t91 -43t107.5 -38q60 -20 103.5 -37.5t96 -43t88.5 -55t67.5 -67t47.5 -86t16 -104.5q0 -145 -70 -252t-187.5 -161t-266.5 -54h-33q146 -29 146 -141z" />
    <glyph glyph-name="scedilla" unicode="&#x15f;" horiz-adv-x="921" 
d="M545 -172q0 -102 -81 -162.5t-198 -60.5q-88 0 -203 39l35 61q93 -41 193 -41q74 0 129 40t55 112q0 53 -48.5 81.5t-113.5 28.5l29 45q-108 6 -191.5 49t-130.5 113l58 39q99 -137 307 -137q67 0 122 11.5t101.5 37t72.5 71.5t26 109q0 38 -16.5 69.5t-39 52.5t-67.5 44
t-78.5 36.5t-95.5 35.5q-113 40 -178.5 101t-65.5 157q0 75 32 134t85.5 94.5t117.5 54t134 18.5q104 0 195 -40t140 -114l-57 -39q-93 127 -287 127q-122 0 -204 -60.5t-82 -168.5q0 -73 53.5 -121t144.5 -82q53 -19 78 -29t69 -29t65.5 -33.5t50.5 -37.5t42.5 -46
t24 -54.5t10.5 -67.5q0 -141 -102.5 -216.5t-276.5 -80.5q146 -29 146 -141z" />
    <glyph glyph-name="Scaron" unicode="&#x160;" horiz-adv-x="1241" 
d="M1081 436q0 -145 -70 -252t-187.5 -161t-266.5 -54q-86 0 -162.5 17.5t-131.5 46.5t-99.5 68t-72 78.5t-44.5 82.5l68 37q52 -116 165.5 -189t290.5 -73q86 0 162 24t136 70.5t95 123t35 173.5q0 48 -11 87t-35.5 70t-53 54.5t-73.5 45.5t-86 37.5t-101 35.5
q-59 19 -99.5 35t-90.5 39.5t-83 49.5t-63 60t-44.5 77.5t-14.5 94.5q0 126 68 219.5t179 140t248 46.5q184 0 299.5 -79.5t165.5 -201.5l-67 -35q-50 114 -149.5 181t-248.5 67q-190 0 -303.5 -90t-113.5 -240q0 -49 19 -89.5t46.5 -68.5t76 -54t91 -43t107.5 -38
q60 -20 103.5 -37.5t96 -43t88.5 -55t67.5 -67t47.5 -86t16 -104.5zM1087 1958l-299 -361h-86l-159 361h55l162 -275l264 275h63z" />
    <glyph glyph-name="scaron" unicode="&#x161;" horiz-adv-x="921" 
d="M778 266q0 -144 -107.5 -220.5t-289.5 -76.5q-122 0 -215.5 43.5t-145.5 120.5l58 39q99 -137 307 -137q67 0 122 11.5t101.5 37t72.5 71.5t26 109q0 38 -16.5 69.5t-39 52.5t-67.5 44t-78.5 36.5t-95.5 35.5q-113 40 -178.5 101t-65.5 157q0 75 32 134t85.5 94.5
t117.5 54t134 18.5q104 0 195 -40t140 -114l-57 -39q-93 127 -287 127q-122 0 -204 -60.5t-82 -168.5q0 -73 53.5 -121t144.5 -82q53 -19 78 -29t69 -29t65.5 -33.5t50.5 -37.5t42.5 -46t24 -54.5t10.5 -67.5zM903 1569l-299 -361h-86l-160 361h56l161 -275l265 275h63z" />
    <glyph glyph-name="uni0162" unicode="&#x162;" horiz-adv-x="1079" 
d="M1247 1419h-499l-289 -1419h-74l289 1419h-500l12 70h1074zM311 -139q0 35 21 57.5t61 22.5q38 0 56 -19t18 -49q0 -67 -39 -149t-74 -119h-65q73 82 86 192q-64 0 -64 64z" />
    <glyph glyph-name="uni0163" unicode="&#x163;" horiz-adv-x="673" 
d="M520 -4q-93 -27 -178 -27q-97 0 -147 38.5t-50 123.5q0 28 23 141l141 695h-217l12 63h218l69 318l80 53l-80 -371h273l-13 -63h-272l-141 -693q-19 -111 -19 -129q0 -54 29.5 -82t101.5 -28q86 0 156 24zM250 -139q0 35 21 57.5t61 22.5q38 0 56 -19t18 -49
q0 -67 -39 -149t-74 -119h-66q73 82 86 192q-63 0 -63 64z" />
    <glyph glyph-name="Tcaron" unicode="&#x164;" horiz-adv-x="1079" 
d="M1247 1419h-499l-289 -1419h-74l289 1419h-500l12 70h1074zM1061 1958l-299 -361h-86l-160 361h55l162 -275l264 275h64z" />
    <glyph glyph-name="tcaron" unicode="&#x165;" horiz-adv-x="673" 
d="M520 -4q-93 -27 -178 -27q-97 0 -147 38.5t-50 123.5q0 28 23 141l141 695h-217l12 63h218l69 318l80 53l-80 -371h273l-13 -63h-272l-141 -693q-19 -111 -19 -129q0 -54 29.5 -82t101.5 -28q86 0 156 24zM588 1321q0 35 21 57.5t61 22.5q37 0 55 -19t18 -49
q0 -67 -38.5 -149t-73.5 -119h-66q73 82 86 192q-63 0 -63 64z" />
    <glyph glyph-name="Tbar" unicode="&#x166;" horiz-adv-x="1079" 
d="M1247 1419h-499l-121 -588h319l-14 -69h-320l-153 -762h-74l154 762h-310l15 69h309l121 588h-500l12 70h1074z" />
    <glyph glyph-name="tbar" unicode="&#x167;" horiz-adv-x="673" 
d="M520 -4q-93 -27 -178 -27q-97 0 -147 38.5t-50 123.5q0 28 23 141l63 318h-192l14 63h193l63 314h-217l12 63h218l69 318l80 53l-80 -371h273l-13 -63h-272l-64 -314h295l-14 -63h-295l-63 -316q-19 -111 -19 -129q0 -54 29.5 -82t101.5 -28q86 0 156 24z" />
    <glyph glyph-name="Utilde" unicode="&#x168;" horiz-adv-x="1355" 
d="M1180 569q-33 -160 -80.5 -270.5t-119 -185.5t-169 -109.5t-229.5 -34.5q-119 0 -202.5 28t-130 81t-67 119t-20.5 153q0 102 31 250l180 889h73l-176 -868q-34 -163 -34 -269q0 -72 16.5 -126t55.5 -98t109.5 -66.5t172.5 -22.5q122 0 209 34t146.5 107t96.5 168.5
t66 237.5l184 903h74zM1243 1849q-50 -245 -213 -245q-26 0 -48.5 7t-43.5 24t-32.5 28.5t-32.5 37t-27 32.5q-47 51 -88 51q-38 0 -68.5 -34t-45 -71t-21.5 -75h-64q54 245 223 245q43 0 76 -21.5t66 -60.5q5 -5 20 -23t20.5 -24t19 -19t22.5 -18t21.5 -9.5t25.5 -4.5
q24 0 44.5 13.5t33 31t24.5 46t17 46t12 43.5h59z" />
    <glyph glyph-name="utilde" unicode="&#x169;" horiz-adv-x="1130" 
d="M113 197q0 58 18 153l137 680h68l-139 -694q-15 -84 -15 -123q0 -182 207 -182q51 0 107.5 17t99 38t95 57.5t77 56t63.5 52.5l158 778h70l-209 -1030h-68l35 170q-51 -46 -111 -87t-154 -77.5t-181 -36.5q-126 0 -192 61t-66 167zM1059 1511q-50 -245 -213 -245
q-26 0 -48.5 7t-43.5 24t-32.5 28.5t-32.5 37t-27 32.5q-47 51 -89 51q-38 0 -68.5 -34t-45 -71t-21.5 -75h-63q54 245 223 245q43 0 75.5 -21t65.5 -60q5 -6 19.5 -23t21 -24t19 -19.5t22 -18t22 -10t25.5 -4.5q24 0 44.5 13.5t33 31t24.5 46t17 46t12 43.5h60z" />
    <glyph glyph-name="Umacron" unicode="&#x16a;" horiz-adv-x="1355" 
d="M1180 569q-33 -160 -80.5 -270.5t-119 -185.5t-169 -109.5t-229.5 -34.5q-119 0 -202.5 28t-130 81t-67 119t-20.5 153q0 102 31 250l180 889h73l-176 -868q-34 -163 -34 -269q0 -72 16.5 -126t55.5 -98t109.5 -66.5t172.5 -22.5q122 0 209 34t146.5 107t96.5 168.5
t66 237.5l184 903h74zM1188 1614h-578l19 88h577z" />
    <glyph glyph-name="umacron" unicode="&#x16b;" horiz-adv-x="1130" 
d="M113 197q0 58 18 153l137 680h68l-139 -694q-15 -84 -15 -123q0 -182 207 -182q51 0 107.5 17t99 38t95 57.5t77 56t63.5 52.5l158 778h70l-209 -1030h-68l35 170q-51 -46 -111 -87t-154 -77.5t-181 -36.5q-126 0 -192 61t-66 167zM997 1350h-577l18 88h578z" />
    <glyph glyph-name="Ubreve" unicode="&#x16c;" horiz-adv-x="1355" 
d="M1180 569q-33 -160 -80.5 -270.5t-119 -185.5t-169 -109.5t-229.5 -34.5q-119 0 -202.5 28t-130 81t-67 119t-20.5 153q0 102 31 250l180 889h73l-176 -868q-34 -163 -34 -269q0 -72 16.5 -126t55.5 -98t109.5 -66.5t172.5 -22.5q122 0 209 34t146.5 107t96.5 168.5
t66 237.5l184 903h74zM1202 1880q-126 -283 -338 -283q-58 0 -101 28t-64.5 73t-31.5 90.5t-10 91.5h52q15 -92 53.5 -138t122.5 -46q161 0 254 184h63z" />
    <glyph glyph-name="ubreve" unicode="&#x16d;" horiz-adv-x="1130" 
d="M113 197q0 58 18 153l137 680h68l-139 -694q-15 -84 -15 -123q0 -182 207 -182q51 0 107.5 17t99 38t95 57.5t77 56t63.5 52.5l158 778h70l-209 -1030h-68l35 170q-51 -46 -111 -87t-154 -77.5t-181 -36.5q-126 0 -192 61t-66 167zM1018 1530q-126 -283 -338 -283
q-58 0 -101 28t-64.5 73t-31.5 90.5t-10 91.5h51q15 -92 53.5 -138t122.5 -46q161 0 254 184h64z" />
    <glyph glyph-name="Uring" unicode="&#x16e;" horiz-adv-x="1355" 
d="M1100 1696q0 -111 -65 -184.5t-177 -73.5q-81 0 -120.5 43.5t-39.5 113.5q0 109 61 183.5t173 74.5q84 0 126 -41t42 -116zM864 1493q79 0 125.5 54t46.5 145q0 52 -28.5 81t-85.5 29q-74 0 -115 -53t-41 -145q0 -111 98 -111zM1180 569q-33 -160 -80.5 -270.5
t-119 -185.5t-169 -109.5t-229.5 -34.5q-119 0 -202.5 28t-130 81t-67 119t-20.5 153q0 102 31 250l180 889h73l-176 -868q-34 -163 -34 -269q0 -72 16.5 -126t55.5 -98t109.5 -66.5t172.5 -22.5q122 0 209 34t146.5 107t96.5 168.5t66 237.5l184 903h74z" />
    <glyph glyph-name="uring" unicode="&#x16f;" horiz-adv-x="1130" 
d="M113 197q0 58 18 153l137 680h68l-139 -694q-15 -84 -15 -123q0 -182 207 -182q51 0 107.5 17t99 38t95 57.5t77 56t63.5 52.5l158 778h70l-209 -1030h-68l35 170q-51 -46 -111 -87t-154 -77.5t-181 -36.5q-126 0 -192 61t-66 167zM887 1386q0 -92 -52 -151t-145 -59
q-65 0 -98 36t-33 93q0 90 50 150.5t141 60.5q67 0 102 -35t35 -95zM698 1227q62 0 97.5 40.5t35.5 112.5q0 84 -90 84q-60 0 -92.5 -40t-32.5 -113q0 -84 82 -84z" />
    <glyph glyph-name="Uhungarumlaut" unicode="&#x170;" horiz-adv-x="1355" 
d="M1180 569q-33 -160 -80.5 -270.5t-119 -185.5t-169 -109.5t-229.5 -34.5q-119 0 -202.5 28t-130 81t-67 119t-20.5 153q0 102 31 250l180 889h73l-176 -868q-34 -163 -34 -269q0 -72 16.5 -126t55.5 -98t109.5 -66.5t172.5 -22.5q122 0 209 34t146.5 107t96.5 168.5
t66 237.5l184 903h74zM1389 1958l-363 -361h-68l310 361h121zM1038 1958l-360 -361h-68l308 361h120z" />
    <glyph glyph-name="uhungarumlaut" unicode="&#x171;" horiz-adv-x="1130" 
d="M113 197q0 58 18 153l137 680h68l-139 -694q-15 -84 -15 -123q0 -182 207 -182q51 0 107.5 17t99 38t95 57.5t77 56t63.5 52.5l158 778h70l-209 -1030h-68l35 170q-51 -46 -111 -87t-154 -77.5t-181 -36.5q-126 0 -192 61t-66 167zM1219 1569l-363 -361h-68l310 361h121z
M868 1569l-360 -361h-68l308 361h120z" />
    <glyph glyph-name="Uogonek" unicode="&#x172;" horiz-adv-x="1355" 
d="M1180 569q-64 -311 -195.5 -452.5t-378.5 -147.5q-55 -101 -55 -196q0 -54 31 -77.5t94 -23.5q57 0 180 47l14 -51q-112 -63 -227 -63q-86 0 -128 42t-42 113q0 90 64 211q-105 5 -180 35t-116.5 82t-60 116t-18.5 146q0 102 31 250l180 889h73l-176 -868
q-34 -163 -34 -269q0 -72 16.5 -126t55.5 -98t109.5 -66.5t172.5 -22.5q122 0 209 34t146.5 107t96.5 168.5t66 237.5l184 903h74z" />
    <glyph glyph-name="uogonek" unicode="&#x173;" horiz-adv-x="1130" 
d="M113 197q0 58 18 153l137 680h68l-139 -694q-15 -84 -15 -123q0 -182 207 -182q51 0 107.5 17t99 38t95 57.5t77 56t63.5 52.5l158 778h70l-209 -1030h-16q-72 -126 -72 -227q0 -54 31 -77.5t94 -23.5q57 0 180 47l14 -51q-112 -63 -227 -63q-86 0 -128 42t-42 113
q0 69 28 136t79 151l26 123q-51 -46 -111 -87t-154 -77.5t-181 -36.5q-126 0 -192 61t-66 167z" />
    <glyph glyph-name="Wcircumflex" unicode="&#x174;" horiz-adv-x="1759" 
d="M1903 1489l-676 -1489h-107l-153 1016l-576 -1016h-104l-51 1489h73l47 -1415l572 1011h104l152 -1009l643 1413h76zM1337 1597h-57l-156 275l-270 -275h-61l305 361h86z" />
    <glyph glyph-name="wcircumflex" unicode="&#x175;" horiz-adv-x="1380" 
d="M1421 1030l-442 -1030h-74l-178 725l-438 -725h-88l-37 1030h72l30 -940l432 717h78l176 -713l394 936h75zM1083 1208h-57l-156 275l-270 -275h-61l305 361h86z" />
    <glyph glyph-name="Ycircumflex" unicode="&#x176;" horiz-adv-x="1140" 
d="M1292 1489l-706 -879l-123 -610h-74l123 608l-356 881h77l326 -801l645 801h88zM1018 1597h-57l-156 275l-270 -275h-62l305 361h86z" />
    <glyph glyph-name="ycircumflex" unicode="&#x177;" horiz-adv-x="946" 
d="M997 1030l-641 -1104q-108 -187 -190 -254t-205 -67q-42 0 -83 8.5t-52 15.5l22 64q73 -25 132 -25q77 0 141.5 50.5t152.5 199.5l86 150l-233 962h72l215 -880l501 880h82zM856 1208h-57l-156 275l-270 -275h-62l305 361h86z" />
    <glyph glyph-name="Ydieresis" unicode="&#x178;" horiz-adv-x="1140" 
d="M1292 1489l-706 -879l-123 -610h-74l123 608l-356 881h77l326 -801l645 801h88zM657 1683q0 -42 -21.5 -64t-60.5 -22q-63 0 -63 56q0 84 82 84q63 0 63 -54zM987 1683q0 -42 -21.5 -64t-60.5 -22q-63 0 -63 56q0 84 82 84q63 0 63 -54z" />
    <glyph glyph-name="Zacute" unicode="&#x179;" horiz-adv-x="1134" 
d="M952 0h-985l10 55l1133 1364h-821l12 70h932l-6 -37l-1145 -1382h883zM1034 1958l-358 -361h-72l305 361h125z" />
    <glyph glyph-name="zacute" unicode="&#x17a;" horiz-adv-x="880" 
d="M846 -111l-15 -61h-67q-61 0 -109 17.5t-84.5 43t-77.5 51t-108.5 43t-157.5 17.5h-237l16 80l799 889h-631l14 61h713l-16 -74l-807 -895h125q109 0 190.5 -17.5t127 -43t81.5 -51t76 -43t88 -17.5h80zM813 1569l-358 -361h-72l305 361h125z" />
    <glyph glyph-name="Zdotaccent" unicode="&#x17b;" horiz-adv-x="1134" 
d="M952 0h-985l10 55l1133 1364h-821l12 70h932l-6 -37l-1145 -1382h883zM838 1683q0 -86 -80 -86q-30 0 -45 13.5t-15 44.5q0 84 80 84q32 0 46 -13.5t14 -42.5z" />
    <glyph glyph-name="zdotaccent" unicode="&#x17c;" horiz-adv-x="880" 
d="M846 -111l-15 -61h-67q-61 0 -109 17.5t-84.5 43t-77.5 51t-108.5 43t-157.5 17.5h-237l16 80l799 889h-631l14 61h713l-16 -74l-807 -895h125q109 0 190.5 -17.5t127 -43t81.5 -51t76 -43t88 -17.5h80zM633 1329q0 -86 -80 -86q-30 0 -44.5 13t-14.5 44q0 84 79 84
q32 0 46 -13t14 -42z" />
    <glyph glyph-name="Zcaron" unicode="&#x17d;" horiz-adv-x="1134" 
d="M952 0h-985l10 55l1133 1364h-821l12 70h932l-6 -37l-1145 -1382h883zM1102 1958l-299 -361h-86l-160 361h55l162 -275l264 275h64z" />
    <glyph glyph-name="zcaron" unicode="&#x17e;" horiz-adv-x="880" 
d="M846 -111l-15 -61h-67q-61 0 -109 17.5t-84.5 43t-77.5 51t-108.5 43t-157.5 17.5h-237l16 80l799 889h-631l14 61h713l-16 -74l-807 -895h125q109 0 190.5 -17.5t127 -43t81.5 -51t76 -43t88 -17.5h80zM870 1569l-299 -361h-86l-159 361h55l162 -275l264 275h63z" />
    <glyph glyph-name="florin" unicode="&#x192;" horiz-adv-x="829" 
d="M850 1477l-23 -62q-27 14 -40.5 20.5t-35 11.5t-46.5 5q-49 0 -72.5 -46.5t-57.5 -186.5l-45 -189h181l-11 -63h-184l-233 -1125q-11 -51 -23 -89t-32.5 -76.5t-51 -59t-70.5 -20.5q-74 0 -167 43l26 65q78 -37 135 -37q38 0 65 47.5t54 173.5l227 1078h-147l14 63h146
l69 289q14 57 32.5 96.5t35.5 59.5t41.5 30.5t39.5 12.5t40 2q65 0 133 -43z" />
    <glyph glyph-name="AEacute" unicode="&#x1fc;" horiz-adv-x="1759" 
d="M1499 0h-774l106 524h-530l-309 -524h-84l893 1489h999l-12 -70h-701l-120 -590h635l-15 -69h-635l-141 -690h700zM844 590l170 829h-176l-498 -829h504zM1477 1958l-359 -361h-71l305 361h125z" />
    <glyph glyph-name="aeacute" unicode="&#x1fd;" horiz-adv-x="1761" 
d="M1569 1569l-359 -361h-71l305 361h125zM1036 1030l-41 -196q157 227 422 227q86 0 149 -20.5t98 -56t51 -76t16 -87.5q0 -106 -56 -174.5t-190 -110t-361 -55.5l-198 -12q-4 -62 -4 -94q0 -159 78 -249.5t233 -90.5q76 0 139 22t133 72l37 -55q-139 -105 -323 -105
q-127 0 -219.5 68.5t-125.5 191.5l-45 -229h-55l27 178q-189 -209 -381 -209q-109 0 -185.5 56.5t-110.5 147t-34 206.5q0 94 21 188.5t66.5 184t109 158t156.5 110t202 41.5q156 0 318 -66l47 35h26zM948 932q-82 33 -148 49t-155 16t-167 -34.5t-134.5 -94.5t-97.5 -138.5
t-61.5 -168t-20.5 -182.5q0 -165 68 -254.5t198 -89.5q98 0 190.5 61t192.5 174zM1657 813q0 35 -11 65t-37 58t-78 44.5t-126 16.5q-175 0 -298.5 -124t-166.5 -320l-4 -25l164 11q309 19 433 79.5t124 194.5z" />
    <glyph glyph-name="Oslashacute" unicode="&#x1fe;" horiz-adv-x="1499" 
d="M1427 946q0 -147 -25.5 -283t-84.5 -264t-146 -222t-220.5 -151t-297.5 -57q-236 0 -372 146l-201 -230h-92l248 285q-103 147 -103 373q0 119 20 234.5t59 226t103 203.5t147 163.5t195.5 110t243.5 39.5q242 0 383 -154l172 199h94l-223 -254q100 -146 100 -365z
M211 551q0 -192 80 -320l942 1078q-121 141 -346 141q-151 0 -278.5 -70t-214 -190.5t-135 -285.5t-48.5 -353zM668 39q165 0 296 69.5t214 191.5t126.5 284.5t43.5 353.5q0 183 -74 311l-940 -1075q122 -135 334 -135zM1192 1958l-358 -361h-72l305 361h125z" />
    <glyph glyph-name="oslashacute" unicode="&#x1ff;" horiz-adv-x="1112" 
d="M1022 662q0 -97 -21 -194t-66 -187t-108.5 -159.5t-155.5 -111t-200 -41.5q-161 0 -266 97l-125 -142h-80l164 189q-76 107 -76 256q0 100 22 198t68.5 187.5t111 157.5t157 108.5t200.5 40.5q165 0 262 -94l123 139h80l-162 -186q72 -101 72 -258zM162 377
q0 -126 51 -209l649 743q-79 82 -227 82q-111 0 -202 -51.5t-149.5 -138t-90 -196.5t-31.5 -230zM485 37q88 0 164 35.5t130 96t93 140.5t57.5 169t18.5 181q0 126 -49 203l-647 -741q84 -84 233 -84zM979 1569l-358 -361h-72l305 361h125z" />
    <glyph glyph-name="Scommaaccent" unicode="&#x218;" horiz-adv-x="1259" 
d="M1081 436q0 -145 -70 -252t-187.5 -161t-266.5 -54q-86 0 -162.5 17.5t-131.5 46.5t-99.5 68t-72 78.5t-44.5 82.5l68 37q52 -116 165.5 -189t290.5 -73q86 0 162 24t136 70.5t95 123t35 173.5q0 48 -11 87t-35.5 70t-53 54.5t-73.5 45.5t-86 37.5t-101 35.5
q-59 19 -99.5 35t-90.5 39.5t-83 49.5t-63 60t-44.5 77.5t-14.5 94.5q0 126 68 219.5t179 140t248 46.5q184 0 299.5 -79.5t165.5 -201.5l-67 -35q-50 114 -149.5 181t-248.5 67q-190 0 -303.5 -90t-113.5 -240q0 -49 19 -89.5t46.5 -68.5t76 -54t91 -43t107.5 -38
q60 -20 103.5 -37.5t96 -43t88.5 -55t67.5 -67t47.5 -86t16 -104.5zM469 -139q0 35 21 57.5t61 22.5q38 0 56 -19t18 -49q0 -67 -39 -149t-74 -119h-66q73 82 86 192q-63 0 -63 64z" />
    <glyph glyph-name="scommaaccent" unicode="&#x219;" horiz-adv-x="911" 
d="M768 266q0 -144 -107.5 -220.5t-289.5 -76.5q-122 0 -215.5 43.5t-145.5 120.5l58 39q99 -137 307 -137q66 0 121.5 11.5t101.5 37t72 71.5t26 109q0 38 -16.5 69.5t-39 52.5t-67.5 44t-78.5 36.5t-95.5 35.5q-112 40 -177.5 101t-65.5 157q0 75 32 134t85 94.5t117 54
t134 18.5q104 0 195.5 -40t140.5 -114l-57 -39q-93 127 -287 127q-122 0 -204.5 -60.5t-82.5 -168.5q0 -130 199 -203q53 -19 78 -29t69 -29t65.5 -33.5t50.5 -37.5t42.5 -46t24 -54.5t10.5 -67.5zM272 -139q0 35 21 57.5t61 22.5q38 0 56 -19t18 -49q0 -67 -39 -149
t-74 -119h-65q73 82 86 192q-64 0 -64 64z" />
    <glyph glyph-name="uni021A" unicode="&#x21a;" horiz-adv-x="1079" 
d="M1247 1419h-499l-289 -1419h-74l289 1419h-500l12 70h1074zM311 -139q0 35 21 57.5t61 22.5q38 0 56 -19t18 -49q0 -67 -39 -149t-74 -119h-65q73 82 86 192q-64 0 -64 64z" />
    <glyph glyph-name="uni021B" unicode="&#x21b;" horiz-adv-x="673" 
d="M520 -4q-93 -27 -178 -27q-97 0 -147 38.5t-50 123.5q0 28 23 141l141 695h-217l12 63h218l69 318l80 53l-80 -371h273l-13 -63h-272l-141 -693q-19 -111 -19 -129q0 -54 29.5 -82t101.5 -28q86 0 156 24zM250 -139q0 35 21 57.5t61 22.5q38 0 56 -19t18 -49
q0 -67 -39 -149t-74 -119h-66q73 82 86 192q-63 0 -63 64z" />
    <glyph glyph-name="dotlessj" unicode="&#x237;" horiz-adv-x="518" 
d="M397 877l-196 -965q-34 -162 -105 -234.5t-215 -72.5q-48 0 -96.5 8.5t-71.5 19.5l29 64q64 -27 158 -27q59 0 99 16.5t67.5 55.5t44 88t32.5 127l181 895q18 85 18 109q0 36 -31 36q-39 0 -145 -67l-25 47q131 84 197 84q76 0 76 -80q0 -25 -17 -104z" />
    <glyph glyph-name="circumflex" unicode="&#x2c6;" horiz-adv-x="1024" 
d="M748 1208h-58l-155 275l-271 -275h-61l305 361h86z" />
    <glyph glyph-name="caron" unicode="&#x2c7;" horiz-adv-x="1024" 
d="M819 1569l-299 -361h-86l-160 361h56l162 -275l264 275h63z" />
    <glyph glyph-name="uni02C9" unicode="&#x2c9;" horiz-adv-x="1024" 
d="M791 1350h-578l18 88h578z" />
    <glyph glyph-name="breve" unicode="&#x2d8;" horiz-adv-x="1024" 
d="M813 1530q-126 -283 -338 -283q-58 0 -101 28t-64.5 73t-31.5 90.5t-10 91.5h51q15 -92 54 -138t123 -46q161 0 254 184h63z" />
    <glyph glyph-name="dotaccent" unicode="&#x2d9;" horiz-adv-x="1024" 
d="M573 1329q0 -86 -79 -86q-31 0 -45.5 13t-14.5 44q0 84 80 84q32 0 45.5 -13t13.5 -42z" />
    <glyph glyph-name="ring" unicode="&#x2da;" horiz-adv-x="1024" 
d="M674 1386q0 -92 -52 -151t-145 -59q-65 0 -98 36t-33 93q0 90 50 150.5t141 60.5q67 0 102 -35t35 -95zM485 1227q62 0 97.5 40.5t35.5 112.5q0 84 -90 84q-60 0 -92.5 -40t-32.5 -113q0 -84 82 -84z" />
    <glyph glyph-name="ogonek" unicode="&#x2db;" horiz-adv-x="1024" 
d="M731 -332q-112 -63 -227 -63q-86 0 -128 42t-42 113q0 51 20 109.5t40.5 95.5t58.5 98h69q-32 -52 -52.5 -90t-39 -94.5t-18.5 -105.5q0 -54 31 -77.5t94 -23.5q57 0 180 47z" />
    <glyph glyph-name="tilde" unicode="&#x2dc;" horiz-adv-x="1024" 
d="M852 1511q-50 -245 -213 -245q-26 0 -48.5 7t-43.5 24t-32.5 28.5t-32.5 37t-27 32.5q-47 51 -88 51q-29 0 -54 -19t-41 -49t-26 -57.5t-15 -54.5h-63q54 245 223 245q43 0 75.5 -21t65.5 -60q4 -5 19.5 -23t21 -24t19 -19t22.5 -18.5t22 -10t26 -4.5q24 0 44.5 13.5
t33 31t24.5 46t17 46t12 43.5h59z" />
    <glyph glyph-name="hungarumlaut" unicode="&#x2dd;" horiz-adv-x="1024" 
d="M881 1569l-363 -361h-67l309 361h121zM530 1569l-360 -361h-68l308 361h120z" />
    <glyph glyph-name="uni0394" unicode="&#x394;" horiz-adv-x="1306" 
d="M1200 0h-1180v47l539 1415h107l534 -1415v-47zM1104 68l-486 1300h-18l-487 -1300h991z" />
    <glyph glyph-name="uni03A9" unicode="&#x3a9;" horiz-adv-x="1507" 
d="M756 1419q-170 0 -300.5 -80t-201 -222.5t-70.5 -325.5q0 -84 14 -160.5t34.5 -135t55.5 -116.5t63.5 -95t74.5 -81.5t72 -66.5t71 -58v-78h-460v66h368q-371 271 -371 716q0 154 47 285.5t131.5 224.5t205.5 145t264 52q191 0 338 -89.5t227 -250.5t80 -367
q0 -445 -371 -716h369v-66h-461v78q45 36 71 58t72 66.5t74.5 81.5t63.5 95t55.5 116.5t34.5 135t14 160.5q0 277 -157.5 452.5t-407.5 175.5z" />
    <glyph glyph-name="uni03BC" unicode="&#x3bc;" horiz-adv-x="1157" 
d="M866 0h-71l28 143q-181 -174 -368 -174q-89 0 -157 29.5t-136 99.5l-101 -493h-71l289 1425h71l-172 -846q67 -80 134 -110.5t155 -30.5q169 0 373 184l164 803h71z" />
    <glyph glyph-name="pi" unicode="&#x3c0;" horiz-adv-x="1413" 
d="M1264 57l16 -53q-36 -16 -98 -16q-108 0 -162.5 67t-54.5 181v733h-525v-713q0 -143 -24 -256h-82q24 104 24 260v709q-131 -4 -239 -43l-23 57q111 47 269 47h919v-61h-240v-725q0 -195 164 -195q20 0 56 8z" />
    <glyph glyph-name="Wgrave" unicode="&#x1e80;" horiz-adv-x="1759" 
d="M1903 1489l-676 -1489h-107l-153 1016l-576 -1016h-104l-51 1489h73l47 -1415l572 1011h104l152 -1009l643 1413h76zM1190 1597h-62l-219 361h115z" />
    <glyph glyph-name="wgrave" unicode="&#x1e81;" horiz-adv-x="1380" 
d="M1421 1030l-442 -1030h-74l-178 725l-438 -725h-88l-37 1030h72l30 -940l432 717h78l176 -713l394 936h75zM948 1208h-61l-219 361h114z" />
    <glyph glyph-name="Wacute" unicode="&#x1e82;" horiz-adv-x="1759" 
d="M1903 1489l-676 -1489h-107l-153 1016l-576 -1016h-104l-51 1489h73l47 -1415l572 1011h104l152 -1009l643 1413h76zM1321 1958l-358 -361h-72l305 361h125z" />
    <glyph glyph-name="wacute" unicode="&#x1e83;" horiz-adv-x="1380" 
d="M1421 1030l-442 -1030h-74l-178 725l-438 -725h-88l-37 1030h72l30 -940l432 717h78l176 -713l394 936h75zM1133 1569l-359 -361h-72l306 361h125z" />
    <glyph glyph-name="Wdieresis" unicode="&#x1e84;" horiz-adv-x="1759" 
d="M1903 1489l-676 -1489h-107l-153 1016l-576 -1016h-104l-51 1489h73l47 -1415l572 1011h104l152 -1009l643 1413h76zM987 1683q0 -42 -21.5 -64t-60.5 -22q-63 0 -63 56q0 84 82 84q63 0 63 -54zM1317 1683q0 -42 -21.5 -64t-60.5 -22q-64 0 -64 56q0 84 82 84
q64 0 64 -54z" />
    <glyph glyph-name="wdieresis" unicode="&#x1e85;" horiz-adv-x="1380" 
d="M1421 1030l-442 -1030h-74l-178 725l-438 -725h-88l-37 1030h72l30 -940l432 717h78l176 -713l394 936h75zM725 1329q0 -42 -21.5 -64t-60.5 -22q-63 0 -63 55q0 84 82 84q63 0 63 -53zM1055 1329q0 -42 -21.5 -64t-60.5 -22q-64 0 -64 55q0 84 82 84q64 0 64 -53z" />
    <glyph glyph-name="Ygrave" unicode="&#x1ef2;" horiz-adv-x="1140" 
d="M1292 1489l-706 -879l-123 -610h-74l123 608l-356 881h77l326 -801l645 801h88zM852 1597h-61l-220 361h115z" />
    <glyph glyph-name="ygrave" unicode="&#x1ef3;" horiz-adv-x="946" 
d="M997 1030l-641 -1104q-108 -187 -190 -254t-205 -67q-42 0 -83 8.5t-52 15.5l22 64q73 -25 132 -25q77 0 141.5 50.5t152.5 199.5l86 150l-233 962h72l215 -880l501 880h82zM702 1208h-61l-219 361h115z" />
    <glyph glyph-name="endash" unicode="&#x2013;" horiz-adv-x="1024" 
d="M1028 479h-1046l14 74h1046z" />
    <glyph glyph-name="emdash" unicode="&#x2014;" horiz-adv-x="2048" 
d="M2052 479h-2070l14 74h2070z" />
    <glyph glyph-name="quoteleft" unicode="&#x2018;" horiz-adv-x="268" 
d="M332 1176q0 -35 -21 -57.5t-61 -22.5q-36 0 -55 20t-19 53q0 73 46.5 172t115.5 179h65q-41 -46 -84 -129t-51 -152q64 0 64 -63z" />
    <glyph glyph-name="quoteright" unicode="&#x2019;" horiz-adv-x="268" 
d="M219 1440q0 35 21 57.5t61 22.5q36 0 55 -20.5t19 -53.5q0 -73 -46.5 -171.5t-115.5 -178.5h-66q42 47 85 129.5t51 150.5q-64 0 -64 64z" />
    <glyph glyph-name="quotesinglbase" unicode="&#x201a;" horiz-adv-x="268" 
d="M-31 39q0 35 21 57.5t61 22.5q36 0 55 -20.5t19 -53.5q0 -73 -46.5 -171.5t-115.5 -178.5h-65q41 47 84 129t51 151q-64 0 -64 64z" />
    <glyph glyph-name="quotedblleft" unicode="&#x201c;" horiz-adv-x="624" 
d="M332 1176q0 -35 -21 -57.5t-61 -22.5q-36 0 -55 20t-19 53q0 73 46.5 172t115.5 179h65q-41 -46 -84 -129t-51 -152q64 0 64 -63zM688 1176q0 -35 -21 -57.5t-61 -22.5q-36 0 -55 20t-19 53q0 73 46.5 172t115.5 179h66q-41 -46 -84 -129t-51 -152q63 0 63 -63z" />
    <glyph glyph-name="quotedblright" unicode="&#x201d;" horiz-adv-x="624" 
d="M575 1440q0 35 21 57.5t61 22.5q36 0 55 -20.5t19 -53.5q0 -73 -46.5 -171.5t-115.5 -178.5h-65q41 47 84 129t51 151q-64 0 -64 64zM219 1440q0 35 21 57.5t61 22.5q36 0 55 -20.5t19 -53.5q0 -73 -46.5 -171.5t-115.5 -178.5h-66q42 47 85 129.5t51 150.5q-64 0 -64 64
z" />
    <glyph glyph-name="quotedblbase" unicode="&#x201e;" horiz-adv-x="624" 
d="M326 39q0 35 21 57.5t61 22.5q36 0 54.5 -20t18.5 -54q0 -73 -46.5 -171.5t-115.5 -178.5h-65q41 47 84 129t51 151q-63 0 -63 64zM-31 39q0 35 21 57.5t61 22.5q36 0 55 -20.5t19 -53.5q0 -73 -46.5 -171.5t-115.5 -178.5h-65q41 47 84 129t51 151q-64 0 -64 64z" />
    <glyph glyph-name="dagger" unicode="&#x2020;" horiz-adv-x="978" 
d="M979 885l-393 22l-240 -1302h-110l294 1302l-399 -22l19 98l391 -25l88 562h104l-139 -562l403 25z" />
    <glyph glyph-name="daggerdbl" unicode="&#x2021;" horiz-adv-x="997" 
d="M829 61l-405 25l-76 -481h-102l125 481l-406 -25l21 99l395 -23l61 424l113 428l-408 -22l19 98l399 -25l72 480h102l-121 -480l414 25l-18 -98l-404 22l-65 -428l-109 -424l414 23z" />
    <glyph glyph-name="bullet" unicode="&#x2022;" horiz-adv-x="602" 
d="M500 748q0 -84 -57 -142.5t-140 -58.5t-142 59t-59 142t58.5 139.5t142.5 56.5q83 0 140 -56.5t57 -139.5z" />
    <glyph glyph-name="ellipsis" unicode="&#x2026;" horiz-adv-x="1814" 
d="M211 76q0 -90 -94 -90q-31 0 -49.5 13t-18.5 38q0 92 94 92q68 0 68 -53zM895 76q0 -90 -94 -90q-31 0 -49.5 13t-18.5 38q0 92 94 92q68 0 68 -53zM1577 76q0 -90 -94 -90q-31 0 -49.5 13t-18.5 38q0 92 94 92q68 0 68 -53z" />
    <glyph glyph-name="perthousand" unicode="&#x2030;" horiz-adv-x="2787" 
d="M1583 1489l-1130 -1798h-72l1130 1798h72zM889 1196q0 -88 -13 -172t-46 -167t-82 -144.5t-126.5 -99.5t-175.5 -38q-146 0 -224.5 89.5t-78.5 242.5q0 94 13 178t45.5 165.5t82 140t128.5 94t180 35.5q149 0 223 -91.5t74 -232.5zM449 637q83 0 149 34.5t107 90
t68 130.5t37.5 149.5t10.5 154.5q0 53 -11.5 97t-37 82.5t-73.5 60.5t-115 22q-81 0 -145.5 -31.5t-106 -83.5t-69 -123.5t-39 -148.5t-11.5 -162q0 -112 59 -192t177 -80zM1786 281q0 -88 -13 -172t-46 -167t-82 -144.5t-126.5 -99.5t-175.5 -38q-146 0 -224.5 89.5
t-78.5 242.5q0 94 13 178t45.5 165t82 139.5t128.5 94t180 35.5q77 0 135 -25.5t93 -71t52 -102.5t17 -124zM1346 -279q83 0 149 34.5t107 90t68 131t37.5 150t10.5 154.5q0 53 -11.5 97t-37 82.5t-73.5 60.5t-115 22q-81 0 -145.5 -31.5t-106 -83.5t-69 -123.5t-39 -148.5
t-11.5 -162q0 -112 59 -192.5t177 -80.5zM2644 281q0 -89 -13 -172.5t-45.5 -166.5t-81.5 -144.5t-126.5 -99.5t-175.5 -38q-146 0 -225 89.5t-79 242.5q0 94 13 178t45.5 165t82 139.5t128.5 94t180 35.5q77 0 135 -25.5t93 -71t52 -102.5t17 -124zM2204 -279
q83 0 149 34.5t107 90t68 131t37.5 150t10.5 154.5q0 53 -11.5 97t-37 82.5t-73.5 60.5t-115 22q-81 0 -145.5 -31.5t-106 -83.5t-69 -123.5t-39 -148.5t-11.5 -162q0 -112 59 -192.5t177 -80.5z" />
    <glyph glyph-name="guilsinglleft" unicode="&#x2039;" horiz-adv-x="612" 
d="M453 53h-84l-297 465l487 463h94l-489 -471z" />
    <glyph glyph-name="guilsinglright" unicode="&#x203a;" horiz-adv-x="612" 
d="M160 981h84l297 -465l-488 -463h-94l490 471z" />
    <glyph glyph-name="fraction" unicode="&#x2044;" horiz-adv-x="223" 
d="M731 1489l-1165 -1798h-78l1165 1798h78z" />
    <glyph glyph-name="zero.superior" unicode="&#x2070;" horiz-adv-x="860" 
d="M838 1196q0 -85 -12 -165t-44 -163.5t-81.5 -145t-130.5 -101t-185 -39.5q-156 0 -231.5 93.5t-75.5 244.5q0 90 12 171t43.5 161.5t81 138t130 93.5t183.5 36q156 0 233 -92t77 -232zM397 641q81 0 145.5 31t106.5 82.5t70 124t39.5 151t11.5 166.5q0 120 -63 192
t-191 72q-99 0 -172.5 -42.5t-115.5 -119t-61.5 -171t-19.5 -209.5q0 -135 63 -206t187 -71z" />
    <glyph glyph-name="i.superior" unicode="&#x2071;" horiz-adv-x="434" 
d="M270 600h-57l131 643q14 77 14 78q0 29 -24 29q-30 0 -121 -54l-20 43q64 39 101 55.5t66 16.5q58 0 58 -61q0 -18 -12 -88zM492 1628q0 -67 -62 -67q-43 0 -43 43q0 65 57 65q48 0 48 -41z" />
    <glyph glyph-name="four.superior" unicode="&#x2074;" horiz-adv-x="800" 
d="M793 848h-150l-55 -273h-58l56 273h-482l11 51l628 621h45l-135 -621h150zM596 899l115 516l-525 -516h410z" />
    <glyph glyph-name="five.superior" unicode="&#x2075;" horiz-adv-x="776" 
d="M770 918q0 -111 -55 -188t-145 -112.5t-208 -35.5q-111 0 -190 38.5t-113 90.5l64 28q74 -104 239 -104q57 0 106.5 8.5t93.5 29t75.5 51.5t49.5 79t18 110q0 177 -240 177q-59 0 -139 -19.5t-140 -48.5h-12l168 477h498l-13 -59h-450l-123 -346q113 45 231 45
q128 0 206.5 -57.5t78.5 -163.5z" />
    <glyph glyph-name="six.superior" unicode="&#x2076;" horiz-adv-x="854" 
d="M844 940q0 -161 -108.5 -259.5t-280.5 -98.5q-154 0 -240 81t-86 236q0 87 21.5 174t66.5 167.5t107 143t149.5 99.5t188.5 37q150 0 245 -72l-49 -49q-74 61 -209 61q-84 0 -155 -31t-123 -86.5t-89 -125.5t-61 -156q177 104 346 104q129 0 203 -60.5t74 -164.5z
M459 641q138 0 227.5 75.5t89.5 209.5q0 182 -233 182q-151 0 -334 -111q-12 -49 -12 -102q0 -116 61.5 -185t200.5 -69z" />
    <glyph glyph-name="seven.superior" unicode="&#x2077;" horiz-adv-x="755" 
d="M872 1427l-593 -845h-76l604 858h-518l-27 -131h-59l39 190h645z" />
    <glyph glyph-name="eight.superior" unicode="&#x2078;" horiz-adv-x="851" 
d="M809 868q0 -72 -34 -129t-90.5 -90t-123.5 -50t-139 -17q-154 0 -239 62.5t-85 158.5q0 60 27 108.5t75 80.5t101.5 53t118.5 34q-92 31 -142.5 78.5t-50.5 124.5q0 64 31 112t84 74.5t114 39t130 12.5q141 0 218 -58t77 -141q0 -175 -285 -246q106 -32 159.5 -81
t53.5 -126zM813 1313q0 69 -61.5 110t-178.5 41q-125 0 -201.5 -43.5t-76.5 -134.5q0 -64 48 -106t167 -80q66 15 114.5 31t94.5 41t70 60.5t24 80.5zM434 641q76 0 144 23t115.5 75t47.5 123q0 28 -8 51t-27 41.5t-36 31t-50 26.5t-52.5 21t-59.5 20q-56 -11 -98 -22
t-90.5 -31.5t-80 -45t-52.5 -62.5t-21 -85q0 -73 70 -119.5t198 -46.5z" />
    <glyph glyph-name="nine.superior" unicode="&#x2079;" horiz-adv-x="851" 
d="M182 1167q0 160 112 256.5t284 96.5q149 0 229 -87.5t80 -230.5q0 -87 -20.5 -174t-63.5 -167.5t-103.5 -142.5t-147 -99t-187.5 -37q-163 0 -256 77l53 50q79 -70 213 -70q84 0 156 32.5t123 88t85.5 124t51.5 146.5q-146 -98 -328 -98q-126 0 -203.5 62t-77.5 173z
M563 1460q-136 0 -224.5 -74.5t-88.5 -211.5q0 -185 233 -185q168 0 322 107q8 39 8 98q0 266 -250 266z" />
    <glyph glyph-name="parenleft.superior" unicode="&#x207d;" horiz-adv-x="516" 
d="M434 344h-72q-95 129 -145.5 255.5t-50.5 274.5q0 255 123 476.5t362 435.5h76q-504 -439 -504 -895q0 -282 211 -547z" />
    <glyph glyph-name="parenright.superior" unicode="&#x207e;" horiz-adv-x="516" 
d="M242 1786h71q96 -129 146.5 -256t50.5 -275q0 -255 -123 -476t-362 -435h-76q504 439 504 895q0 282 -211 547z" />
    <glyph glyph-name="n.superior" unicode="&#x207f;" horiz-adv-x="925" 
d="M778 600h-57l96 475q17 91 17 121q0 160 -162 160q-154 0 -361 -172l-116 -584h-58l160 786h57l-24 -129q192 154 356 154q101 0 155 -54t54 -151q0 -36 -10 -88z" />
    <glyph glyph-name="zero.inferior" unicode="&#x2080;" horiz-adv-x="860" 
d="M756 352q0 -85 -12 -165t-44 -163.5t-81.5 -145t-130.5 -101t-185 -39.5q-156 0 -231.5 93.5t-75.5 244.5q0 90 12 171t43.5 161.5t81 138t130 93.5t183.5 36q156 0 233 -92t77 -232zM315 -203q81 0 145.5 31t106.5 82.5t70 124t39.5 151t11.5 166.5q0 120 -63 192
t-191 72q-99 0 -172.5 -42.5t-115 -119t-61 -171t-19.5 -209.5q0 -135 63 -206t186 -71z" />
    <glyph glyph-name="one.inferior" unicode="&#x2081;" horiz-adv-x="626" 
d="M473 -240h-471l10 52h224l147 723q-137 -95 -270 -119l10 51q199 61 328 213h22l-176 -868h186z" />
    <glyph glyph-name="two.inferior" unicode="&#x2082;" horiz-adv-x="815" 
d="M637 -240h-692l14 68q242 160 369 246q76 52 121 84t95 73.5t76 74t43 71t17 78.5q0 78 -55 125t-166 47q-101 0 -176.5 -36.5t-147.5 -105.5l-39 41q150 154 367 154q132 0 207 -59.5t75 -155.5q0 -36 -12 -71.5t-27.5 -64.5t-47 -63t-55 -56t-68 -55.5t-69 -50.5
l-73.5 -51q-62 -42 -109 -73t-121 -78.5t-130 -83.5h616z" />
    <glyph glyph-name="three.inferior" unicode="&#x2083;" horiz-adv-x="782" 
d="M692 66q0 -153 -109.5 -239.5t-277.5 -86.5q-104 0 -181.5 39.5t-117.5 105.5l53 37q81 -125 258 -125q61 0 113.5 14.5t97 44t70 82.5t25.5 123q0 170 -242 170q-72 0 -148 -22l5 18l462 375h-518l11 57h600l-11 -59l-397 -321q10 2 33 2q128 0 201 -58t73 -157z" />
    <glyph glyph-name="four.inferior" unicode="&#x2084;" horiz-adv-x="800" 
d="M709 2h-150l-55 -272h-58l56 272h-482l11 51l628 621h46l-136 -621h150zM512 53l115 516l-525 -516h410z" />
    <glyph glyph-name="five.inferior" unicode="&#x2085;" horiz-adv-x="776" 
d="M678 61q0 -111 -55 -188t-145 -112t-208 -35q-111 0 -190 38.5t-113 90.5l64 28q74 -104 239 -104q57 0 106 8.5t93.5 29t75.5 51.5t49 79t18 110q0 176 -239 176q-59 0 -139.5 -19t-139.5 -48h-12l168 477h498l-13 -59h-450l-123 -346q113 45 231 45q128 0 206.5 -58
t78.5 -164z" />
    <glyph glyph-name="six.inferior" unicode="&#x2086;" horiz-adv-x="854" 
d="M762 96q0 -161 -108.5 -259.5t-280.5 -98.5q-154 0 -240 81t-86 236q0 87 21.5 174t66.5 167.5t107 143t149.5 99.5t188.5 37q150 0 245 -72l-49 -49q-74 61 -209 61q-84 0 -155 -31t-123 -86.5t-89 -125.5t-61 -156q179 105 346 105q129 0 203 -61t74 -165zM377 -203
q138 0 227.5 75.5t89.5 209.5q0 182 -233 182q-152 0 -334 -110q-12 -49 -12 -103q0 -116 61.5 -185t200.5 -69z" />
    <glyph glyph-name="seven.inferior" unicode="&#x2087;" horiz-adv-x="755" 
d="M793 588l-594 -846h-76l604 858h-518l-27 -131h-59l39 190h645z" />
    <glyph glyph-name="eight.inferior" unicode="&#x2088;" horiz-adv-x="851" 
d="M748 31q0 -72 -34 -129t-90.5 -90.5t-124 -50.5t-139.5 -17q-154 0 -238.5 62.5t-84.5 158.5q0 60 27 108.5t74.5 81t101 53.5t118.5 34q-92 31 -142 78t-50 124q0 64 31 112t83.5 74.5t113.5 39t130 12.5q141 0 218 -58t77 -141q0 -175 -284 -245q106 -32 159.5 -81
t53.5 -126zM752 475q0 70 -61.5 111t-178.5 41q-125 0 -202 -43.5t-77 -134.5q0 -64 48.5 -106.5t167.5 -80.5q66 15 114.5 31t94.5 41t70 60.5t24 80.5zM373 -197q76 0 144 23.5t115.5 75.5t47.5 123q0 28 -8 51t-27.5 41.5t-35.5 30.5t-50.5 26t-52.5 20.5t-60 20.5
q-56 -11 -98 -22t-90.5 -31.5t-80 -45t-52.5 -62.5t-21 -85q0 -73 70.5 -119.5t198.5 -46.5z" />
    <glyph glyph-name="nine.inferior" unicode="&#x2089;" horiz-adv-x="851" 
d="M90 322q0 160 111.5 256t283.5 96q149 0 229.5 -87.5t80.5 -230.5q0 -110 -33.5 -217.5t-96.5 -198.5t-165.5 -147.5t-227.5 -56.5q-162 0 -256 78l54 49q79 -70 213 -70q84 0 156 32.5t122.5 88t85 124t51.5 146.5q-146 -98 -327 -98q-126 0 -203.5 62.5t-77.5 173.5z
M471 614q-136 0 -224.5 -74.5t-88.5 -211.5q0 -185 233 -185q168 0 322 107q8 39 8 98q0 266 -250 266z" />
    <glyph glyph-name="parenleft.inferior" unicode="&#x208d;" horiz-adv-x="516" 
d="M350 -258h-71q-96 129 -146.5 256t-50.5 274q0 255 123 476.5t362 435.5h76q-504 -439 -504 -895q0 -282 211 -547z" />
    <glyph glyph-name="parenright.inferior" unicode="&#x208e;" horiz-adv-x="516" 
d="M162 1184h71q96 -129 146.5 -256t50.5 -275q0 -255 -123 -476t-362 -435h-76q504 439 504 895q0 282 -211 547z" />
    <glyph glyph-name="Euro" unicode="&#x20ac;" horiz-adv-x="1226" 
d="M104 831l39 66h88q26 103 66 192t100.5 169.5t136 137.5t176.5 90.5t218 33.5q164 0 269.5 -70t152.5 -176l-64 -33q-24 45 -53.5 79.5t-72 65.5t-103 47.5t-135.5 16.5q-124 0 -228 -43t-178 -120.5t-125.5 -174.5t-81.5 -215h744l-33 -66h-727q-18 -101 -23 -165h668
l-33 -66h-639v-53q0 -230 111.5 -369t314.5 -139q80 0 153 22t108 42.5t85 56.5l33 -62q-87 -62 -178 -95.5t-225 -33.5q-215 0 -347.5 154.5t-132.5 415.5v61h-122l40 66h87q12 110 24 165h-113z" />
    <glyph glyph-name="afii61289" unicode="&#x2113;" horiz-adv-x="921" 
d="M731 152l47 -39q-22 -29 -40 -48.5t-47 -44.5t-65 -38t-77 -13q-55 0 -94 16t-61.5 41.5t-35 66.5t-16.5 80.5t-4 94.5v267q-3 -3 -152 -166l-43 49l195 213v522q0 170 45 253t143 83q91 0 130.5 -60t39.5 -149q0 -132 -54.5 -286t-154.5 -287q-62 -84 -77 -101v-348
q0 -110 28.5 -166.5t110.5 -56.5q58 0 99.5 31.5t82.5 85.5zM623 1270q0 74 -25.5 115.5t-75.5 41.5q-112 0 -112 -280v-436q15 17 55 77q158 241 158 482z" />
    <glyph glyph-name="trademark" unicode="&#x2122;" horiz-adv-x="1449" 
d="M1430 774h-66v610l-213 -405h-70l-202 412v-617h-66v715h88l217 -438l230 438h82v-715zM623 1427h-213v-653h-68v653h-215v62h496v-62z" />
    <glyph glyph-name="Omega" unicode="&#x2126;" horiz-adv-x="1507" 
d="M756 1419q-170 0 -300.5 -80t-201 -222.5t-70.5 -325.5q0 -84 14 -160.5t34.5 -135t55.5 -116.5t63.5 -95t74.5 -81.5t72 -66.5t71 -58v-78h-460v66h368q-371 271 -371 716q0 154 47 285.5t131.5 224.5t205.5 145t264 52q191 0 338 -89.5t227 -250.5t80 -367
q0 -445 -371 -716h369v-66h-461v78q45 36 71 58t72 66.5t74.5 81.5t63.5 95t55.5 116.5t34.5 135t14 160.5q0 277 -157.5 452.5t-407.5 175.5z" />
    <glyph glyph-name="estimated" unicode="&#x212e;" horiz-adv-x="1384" 
d="M1309 625h-963v-430q142 -142 342 -142q160 0 269 73.5t194 211.5q15 -8 40.5 -23.5t35.5 -21.5q-50 -76 -100.5 -130.5t-115 -99t-145.5 -66.5t-178 -22q-181 0 -321 88.5t-213.5 236.5t-73.5 327q0 181 72.5 328t213.5 235t326 88q187 0 328 -89t213.5 -235.5
t75.5 -328.5zM1036 705v352q-68 66 -158.5 104.5t-187.5 38.5q-209 0 -344 -141v-354h690z" />
    <glyph glyph-name="onethird" unicode="&#x2153;" horiz-adv-x="2000" 
d="M1638 1489l-1165 -1798h-78l1166 1798h77zM659 600h-471l11 51h223l147 723q-137 -95 -270 -119l10 52q199 61 328 213h22l-176 -869h187zM1835 -10q0 -153 -109.5 -239.5t-277.5 -86.5q-103 0 -181 40t-118 106l53 36q81 -125 258 -125q61 0 113.5 14.5t96.5 44.5
t69.5 83t25.5 123q0 170 -241 170q-69 0 -148 -23l4 19l463 374h-518l10 58h600l-10 -60l-397 -321q10 2 33 2q128 0 201 -58t73 -157z" />
    <glyph glyph-name="twothirds" unicode="&#x2154;" horiz-adv-x="2000" 
d="M1638 1489l-1165 -1798h-78l1166 1798h77zM754 600h-693l15 68q260 172 368 245q77 52 121.5 84t95 74t76 74t43 70.5t17.5 78.5q0 78 -55.5 125t-166.5 47q-101 0 -176 -36t-147 -105l-39 41q150 154 367 154q132 0 207 -59.5t75 -155.5q0 -36 -12 -71.5t-27.5 -64.5
t-47 -63t-55 -56t-68 -55.5t-69 -50.5l-73.5 -51q-65 -45 -360 -236h616zM1845 -10q0 -153 -109.5 -239.5t-277.5 -86.5q-103 0 -181 40t-118 106l53 36q81 -125 258 -125q61 0 113.5 14.5t97 44.5t70 83t25.5 123q0 170 -242 170q-69 0 -148 -23l5 19l462 374h-518l11 58
h600l-11 -60l-397 -321q10 2 33 2q128 0 201 -58t73 -157z" />
    <glyph glyph-name="oneeighth" unicode="&#x215b;" horiz-adv-x="2000" 
d="M1638 1489l-1165 -1798h-78l1166 1798h77zM631 600h-471l10 51h223l148 723q-137 -94 -271 -119l11 52q198 61 327 213h23l-176 -869h186zM1849 -49q0 -72 -34 -129t-90.5 -90.5t-123.5 -50.5t-139 -17q-154 0 -238.5 62.5t-84.5 158.5q0 60 27 108.5t74.5 81t101 53.5
t118.5 34q-91 31 -141.5 78t-50.5 125q0 64 31 111.5t83.5 74t113.5 39t130 12.5q141 0 218 -58t77 -141q0 -174 -285 -245q106 -32 159.5 -81t53.5 -126zM1853 395q0 70 -61 111t-178 41q-125 0 -202 -43.5t-77 -134.5q0 -64 48 -106.5t167 -80.5q66 15 114.5 31t94.5 41
t70 60.5t24 80.5zM1475 -276q76 0 144 23t115.5 75t47.5 123q0 28 -8 51t-27.5 41.5t-35.5 30.5t-50.5 26t-52.5 20.5t-60 20.5q-56 -11 -98 -22t-90.5 -31.5t-80 -45t-52.5 -62.5t-21 -85q0 -73 70.5 -119t198.5 -46z" />
    <glyph glyph-name="threeeighths" unicode="&#x215c;" horiz-adv-x="2000" 
d="M1638 1489l-1165 -1798h-78l1166 1798h77zM760 907q0 -153 -109.5 -239t-277.5 -86q-104 0 -181.5 39.5t-117.5 105.5l53 37q81 -125 258 -125q61 0 113.5 14.5t96.5 44t69.5 82.5t25.5 123q0 170 -241 170q-72 0 -148 -22l4 18l463 375h-518l10 57h600l-10 -59
l-397 -322q10 2 32 2q128 0 201.5 -58t73.5 -157zM1851 -49q0 -72 -34 -129t-90.5 -90.5t-123.5 -50.5t-139 -17q-154 0 -238.5 62.5t-84.5 158.5q0 60 27 108.5t74.5 81t101 53.5t118.5 34q-91 31 -141.5 78t-50.5 125q0 64 31 111.5t83.5 74t113.5 39t130 12.5
q141 0 218 -58t77 -141q0 -174 -285 -245q106 -32 159.5 -81t53.5 -126zM1855 395q0 70 -61 111t-178 41q-125 0 -202 -43.5t-77 -134.5q0 -64 48 -106.5t167 -80.5q66 15 114.5 31t94.5 41t70 60.5t24 80.5zM1477 -276q76 0 144 23t115.5 75t47.5 123q0 28 -8 51
t-27.5 41.5t-35.5 30.5t-50.5 26t-52.5 20.5t-60 20.5q-56 -11 -98 -22t-90.5 -31.5t-80 -45t-52.5 -62.5t-21 -85q0 -73 70.5 -119t198.5 -46z" />
    <glyph glyph-name="fiveeighths" unicode="&#x215d;" horiz-adv-x="2000" 
d="M1638 1489l-1165 -1798h-78l1166 1798h77zM788 918q0 -111 -55 -188t-144.5 -112.5t-207.5 -35.5q-111 0 -190 38.5t-113 90.5l63 28q74 -104 240 -104q57 0 106 8.5t93.5 29t75.5 51.5t49 79t18 110q0 177 -240 177q-59 0 -138.5 -19.5t-139.5 -48.5h-12l167 477h498
l-12 -59h-451l-123 -346q113 45 232 45q128 0 206 -57.5t78 -163.5zM1835 -49q0 -72 -34 -129t-90.5 -90.5t-123.5 -50.5t-139 -17q-154 0 -239 62.5t-85 158.5q0 60 27 108.5t75 81t101.5 53.5t118.5 34q-92 31 -142.5 78.5t-50.5 124.5q0 64 31 111.5t84 74t114 39
t130 12.5q141 0 218 -58t77 -141q0 -174 -285 -245q106 -32 159.5 -81t53.5 -126zM1839 395q0 70 -61.5 111t-178.5 41q-125 0 -201.5 -43.5t-76.5 -134.5q0 -64 48 -106.5t167 -80.5q66 15 114.5 31t94.5 41t70 60.5t24 80.5zM1460 -276q76 0 144 23t115.5 75t47.5 123
q0 28 -8 51t-27 41.5t-35.5 31t-50.5 26t-52.5 20.5t-59.5 20q-56 -11 -98 -22t-90.5 -31.5t-80 -45t-52.5 -62.5t-21 -85q0 -73 70 -119t198 -46z" />
    <glyph glyph-name="seveneighths" unicode="&#x215e;" horiz-adv-x="2000" 
d="M1638 1489l-1165 -1798h-78l1166 1798h77zM981 1427l-594 -845h-76l604 858h-518l-26 -131h-60l39 190h645zM1880 -49q0 -72 -34 -129t-90.5 -90.5t-123.5 -50.5t-139 -17q-154 0 -239 62.5t-85 158.5q0 60 27 108.5t75 81t101.5 53.5t118.5 34q-92 31 -142.5 78.5
t-50.5 124.5q0 64 31 111.5t84 74t114 39t130 12.5q141 0 218 -58t77 -141q0 -174 -285 -245q106 -32 159.5 -81t53.5 -126zM1884 395q0 70 -61 111t-178 41q-125 0 -202 -43.5t-77 -134.5q0 -64 48 -106.5t167 -80.5q66 15 114.5 31t94.5 41t70 60.5t24 80.5zM1505 -276
q76 0 144 23t115.5 75t47.5 123q0 28 -8 51t-27 41.5t-35.5 31t-50.5 26t-52.5 20.5t-59.5 20q-56 -11 -98 -22t-90.5 -31.5t-80 -45t-52.5 -62.5t-21 -85q0 -73 70 -119t198 -46z" />
    <glyph glyph-name="partialdiff" unicode="&#x2202;" horiz-adv-x="1224" 
d="M1100 1030q0 -197 -53 -407q-25 -95 -60.5 -184t-88 -174t-114.5 -148t-144 -101.5t-171 -38.5q-156 0 -253 104.5t-97 278.5q0 149 48.5 277t128 212.5t181.5 132.5t209 48q225 0 324 -203q12 71 12 209q0 202 -89.5 311t-252.5 109q-111 0 -205 -51l-22 53
q44 26 110 44t133 18q183 0 293.5 -128t110.5 -362zM991 733v10q-45 107 -117.5 167.5t-193.5 60.5q-93 0 -180.5 -47t-153.5 -127.5t-105.5 -195.5t-39.5 -243q0 -145 74 -231t198 -86q176 0 315.5 187t202.5 505z" />
    <glyph glyph-name="Delta" unicode="&#x2206;" horiz-adv-x="1306" 
d="M1200 0h-1180v47l539 1415h107l534 -1415v-47zM1104 68l-486 1300h-18l-487 -1300h991z" />
    <glyph glyph-name="product" unicode="&#x220f;" horiz-adv-x="1542" 
d="M1339 -494h-79v1889h-984v-1889h-81v1956h1144v-1956z" />
    <glyph glyph-name="summation" unicode="&#x2211;" horiz-adv-x="1349" 
d="M1350 -494h-1237v25l772 963l-717 931v37h1124v-65h-1013l696 -901l-742 -924h1117v-66z" />
    <glyph glyph-name="minus" unicode="&#x2212;" horiz-adv-x="1329" 
d="M1178 551h-1026v63h1026v-63z" />
    <glyph glyph-name="uni2215" unicode="&#x2215;" horiz-adv-x="223" 
d="M731 1489l-1165 -1798h-78l1165 1798h78z" />
    <glyph glyph-name="uni2219" unicode="&#x2219;" horiz-adv-x="448" 
d="M315 600q0 -90 -94 -90q-67 0 -67 51q0 92 94 92q67 0 67 -53z" />
    <glyph glyph-name="radical" unicode="&#x221a;" horiz-adv-x="1097" 
d="M625 57l405 1463h66l-432 -1551h-76l-328 779l-121 -74l-22 45l182 108z" />
    <glyph glyph-name="infinity" unicode="&#x221e;" horiz-adv-x="1689" 
d="M846 653q77 123 183.5 199t217.5 76q151 0 238.5 -90.5t87.5 -229.5q0 -144 -86 -236.5t-234 -92.5q-228 0 -409 278q-77 -122 -184 -198t-218 -76q-151 0 -238 90t-87 229q0 145 86 237.5t233 92.5q229 0 410 -279zM811 606q-71 117 -171.5 191.5t-197.5 74.5
q-130 0 -196 -72t-66 -196q0 -117 75 -190.5t185 -73.5q204 0 371 266zM879 604q71 -117 171 -191.5t197 -74.5q130 0 196 72t66 196q0 117 -75 190.5t-185 73.5q-203 0 -370 -266z" />
    <glyph glyph-name="integral" unicode="&#x222b;" horiz-adv-x="1019" 
d="M872 1548l-16 -61q-40 16 -90 16q-108 0 -162.5 -66t-54.5 -186v-1421q0 -153 -78 -236t-209 -83q-67 0 -117 16q2 6 7.5 27t7.5 34q47 -14 94 -14q107 0 161 64t54 186v1427q0 146 77 230t212 84q52 0 114 -17z" />
    <glyph glyph-name="approxequal" unicode="&#x2248;" horiz-adv-x="1329" 
d="M1186 891v-74q-121 -125 -273 -125q-57 0 -129.5 26t-130 58t-125 58t-114.5 26q-87 0 -151 -33.5t-128 -99.5v78q125 115 273 115q58 0 130.5 -26.5t130.5 -58.5t127 -58.5t119 -26.5q80 0 144.5 36t126.5 105zM1186 453v-74q-121 -125 -273 -125q-57 0 -129.5 26
t-130 58t-125 58t-114.5 26q-87 0 -151 -33.5t-128 -99.5v78q124 114 273 114q58 0 130.5 -26.5t130.5 -58.5t127 -58.5t119 -26.5q80 0 144.5 36.5t126.5 105.5z" />
    <glyph glyph-name="notequal" unicode="&#x2260;" horiz-adv-x="1329" 
d="M1178 326h-629l-156 -279h-71l155 279h-325v63h360l217 387h-577v64h612l170 303h72l-170 -303h342v-64h-377l-217 -387h594v-63z" />
    <glyph glyph-name="lessequal" unicode="&#x2264;" horiz-adv-x="1329" 
d="M1178 176l-1026 414v26l1026 414v-69l-912 -359l912 -356v-70zM1178 0h-1026v63h1026v-63z" />
    <glyph glyph-name="greaterequal" unicode="&#x2265;" horiz-adv-x="1329" 
d="M1178 590l-1026 -414v70l911 356l-911 359v69l1026 -414v-26zM1178 0h-1026v63h1026v-63z" />
    <glyph glyph-name="lozenge" unicode="&#x25ca;" horiz-adv-x="1189" 
d="M588 1462h45l450 -731l-450 -731h-45l-449 729zM1012 731l-402 653l-403 -653l401 -653z" />
    <glyph glyph-name="zero.fitted" unicode="&#xe097;" horiz-adv-x="1179" 
d="M1120 1073q0 -118 -16.5 -245t-50.5 -260.5t-96.5 -255t-145.5 -201.5q-69 -68 -163 -105t-199 -37q-196 0 -294 113.5t-98 318.5q0 166 27 335.5t94.5 343t167.5 280.5q147 160 371 160q202 0 302.5 -117t100.5 -330zM457 39q173 0 301 125q94 92 160.5 254.5t94 325.5
t27.5 317q0 189 -77 289t-248 100q-182 0 -305 -129q-136 -145 -204.5 -399.5t-68.5 -509.5q0 -373 320 -373z" />
    <glyph glyph-name="two.fitted" unicode="&#xe098;" horiz-adv-x="1015" 
d="M801 0h-905l14 70q153 130 347.5 288t305 251t180.5 165q98 101 141.5 188t43.5 193q0 143 -82.5 221t-233.5 78q-119 0 -219.5 -47t-199.5 -141l-48 51q94 92 206.5 147.5t269.5 55.5q100 0 175.5 -28.5t120.5 -79t67 -114.5t22 -139q0 -124 -50.5 -224.5t-167.5 -217.5
q-71 -70 -169 -152.5t-295 -241.5t-312 -253h803z" />
    <glyph glyph-name="three.fitted" unicode="&#xe099;" horiz-adv-x="1079" 
d="M934 514q0 -248 -149 -396.5t-408 -148.5q-132 0 -238.5 52.5t-173.5 154.5l66 41q118 -178 352 -178q216 0 343.5 124.5t127.5 344.5q0 145 -93 227t-261 82q-62 0 -148 -14l4 18l619 598h-703l15 70h794l-14 -70l-553 -540q196 0 308 -102t112 -263z" />
    <glyph glyph-name="four.fitted" unicode="&#xe09a;" horiz-adv-x="1062" 
d="M932 373h-176l-84 -404h-70l84 404h-706l12 67l907 1080h90l-221 -1080h176zM698 440l199 977l-819 -977h620z" />
    <glyph glyph-name="five.fitted" unicode="&#xe09b;" horiz-adv-x="1069" 
d="M924 522q0 -253 -154.5 -403t-419.5 -150q-66 0 -125.5 14t-101 35t-77 49.5t-56.5 52t-37 48.5l63 43q113 -172 336 -172q231 0 362.5 126.5t131.5 342.5q0 149 -86 234t-254 85q-193 0 -350 -116h-23l229 778h687l-15 -70h-626l-172 -600q137 74 294 74
q180 0 287 -102.5t107 -268.5z" />
    <glyph glyph-name="six.fitted" unicode="&#xe09c;" horiz-adv-x="1181" 
d="M819 1452q-120 0 -228.5 -61.5t-188.5 -164t-137.5 -227t-86.5 -260.5q98 84 225 131.5t252 47.5q186 0 292 -103t106 -280q0 -119 -32 -220t-95 -179.5t-167 -122.5t-239 -44q-208 0 -327 142t-119 376q0 110 23.5 228t67 233.5t111 218.5t149 182t188 125t221.5 46
q211 0 329 -127l-57 -52q-100 111 -287 111zM633 848q-126 0 -250.5 -53.5t-220.5 -143.5q-10 -85 -10 -151q0 -93 22 -174t67 -146t121 -103t175 -38q108 0 192.5 37.5t137 104t79.5 153.5t27 190q0 71 -18 128t-56.5 102t-106 69.5t-159.5 24.5z" />
    <glyph glyph-name="seven.fitted" unicode="&#xe09d;" horiz-adv-x="1017" 
d="M1100 1419l-883 -1450h-90l891 1450h-733l-47 -227h-70l59 297h887z" />
    <glyph glyph-name="eight.fitted" unicode="&#xe09e;" horiz-adv-x="1134" 
d="M201 1128q0 124 68 214.5t177.5 134t245.5 43.5q189 0 295.5 -90.5t106.5 -227.5q0 -69 -24 -127.5t-61.5 -99.5t-96 -77t-115.5 -59.5t-131 -47.5q315 -133 315 -371q0 -208 -155.5 -329.5t-395.5 -121.5q-195 0 -312.5 95.5t-117.5 244.5q0 83 27 152.5t69 117.5
t109 90t130 69t148 55q-50 21 -95 50t-89.5 70.5t-71 97t-26.5 117.5zM78 322q0 -129 97.5 -208t258.5 -79q92 0 175 23.5t149 68t104.5 116t38.5 160.5q0 126 -83 213.5t-243 145.5q-60 -19 -100.5 -33.5t-97 -39t-95 -47.5t-80 -57.5t-66.5 -71.5t-41.5 -86t-16.5 -105z
M1016 1190q0 120 -81.5 192t-244.5 72q-63 0 -121 -11t-111 -35.5t-92 -60.5t-62 -90t-23 -120q0 -96 65 -172t232 -142q44 14 64 20.5t64.5 23t67.5 27.5t61.5 31t59.5 37.5t47.5 43.5t40 52.5t23.5 60.5t10 71z" />
    <glyph glyph-name="nine.fitted" unicode="&#xe09f;" horiz-adv-x="1181" 
d="M356 37q120 0 228.5 61.5t188.5 164t137.5 227t86.5 260.5q-98 -84 -225 -131.5t-252 -47.5q-185 0 -291 102.5t-106 280.5q0 95 19.5 178.5t61.5 155t103.5 123t150 80.5t197.5 29q208 0 327.5 -142.5t119.5 -376.5q0 -132 -32.5 -274.5t-98.5 -277.5t-155 -242
t-212.5 -172.5t-261.5 -65.5q-212 0 -330 127l58 51q99 -110 286 -110zM543 641q126 0 250.5 53.5t220.5 143.5q10 85 10 151q0 93 -22 174t-67 146t-121 103t-175 38q-108 0 -192.5 -37.5t-137 -104t-79.5 -153.5t-27 -190q0 -71 18 -128t56.5 -102t106 -69.5t159.5 -24.5z
" />
    <glyph glyph-name="zero.taboldstyle" unicode="&#xe100;" 
d="M1094 770q0 -97 -14 -190t-42.5 -184t-78 -167.5t-115 -135t-158 -91.5t-203.5 -33q-207 0 -307 115t-100 309q0 116 19.5 226t66 215.5t115.5 183.5t175 126t238 48q197 0 300.5 -117t103.5 -305zM504 39q94 0 172 30.5t132.5 84.5t95.5 123.5t64.5 153t34.5 167.5
t11 172q0 165 -84 258.5t-248 93.5q-112 0 -203.5 -44t-150.5 -115.5t-98.5 -167t-56.5 -193t-17 -199.5q0 -364 348 -364z" />
    <glyph glyph-name="one.taboldstyle" unicode="&#xe101;" 
d="M829 0h-608l15 63h288l197 967q-61 -51 -156 -93t-192 -65l12 66q255 74 410 260h36l-233 -1135h246z" />
    <glyph glyph-name="two.taboldstyle" unicode="&#xe102;" 
d="M938 0h-907l14 70q54 36 231.5 154.5t262.5 176.5q86 60 143 101.5t111 87t86 81t57 75t35 79t10 84.5q0 99 -72 158t-209 59q-130 0 -225.5 -45t-181.5 -127l-47 52q84 84 192.5 135t266.5 51q163 0 258.5 -75t95.5 -202q0 -69 -21.5 -128.5t-67.5 -115t-98 -101
t-133 -105.5q-228 -170 -577 -395h788z" />
    <glyph glyph-name="three.taboldstyle" unicode="&#xe103;" 
d="M948 201q0 -248 -149 -394.5t-408 -146.5q-132 0 -238 52.5t-173 154.5l65 41q118 -178 352 -178q217 0 344 122.5t127 342.5q0 145 -92.5 225t-261.5 80q-55 0 -147 -15l4 19l614 588h-702l14 69h795l-15 -69l-549 -531q197 0 308.5 -99.5t111.5 -260.5z" />
    <glyph glyph-name="four.taboldstyle" unicode="&#xe104;" 
d="M967 63h-176l-84 -403h-70l84 403h-707l13 68l907 1079h90l-221 -1079h176zM733 131l199 977l-819 -977h620z" />
    <glyph glyph-name="five.taboldstyle" unicode="&#xe105;" 
d="M975 207q0 -252 -153.5 -399.5t-418.5 -147.5q-66 0 -125.5 14t-101 35t-77 49.5t-56.5 52t-37 48.5l64 43q113 -172 336 -172q232 0 361.5 124t129.5 339q0 148 -86 231.5t-254 83.5q-192 0 -350 -117h-23l228 770h686l-15 -69h-626l-170 -592q135 73 295 73
q180 0 286.5 -100.5t106.5 -265.5z" />
    <glyph glyph-name="six.taboldstyle" unicode="&#xe106;" 
d="M838 1452q-120 0 -228.5 -61.5t-188.5 -164t-137.5 -227t-86.5 -260.5q98 84 225 131.5t252 47.5q185 0 291 -102.5t106 -280.5q0 -95 -19.5 -178.5t-61.5 -155t-103.5 -123t-150 -80.5t-197.5 -29q-208 0 -327.5 142t-119.5 376q0 110 23.5 228t67 233.5t111 218.5
t149 182t188 125t221.5 46q212 0 330 -127l-58 -52q-100 111 -286 111zM651 848q-126 0 -250.5 -53.5t-220.5 -143.5q-10 -85 -10 -151q0 -93 22 -174t67 -146t121 -103t175 -38q108 0 192.5 37.5t137 104t79.5 153.5t27 190q0 71 -18 128t-56.5 102t-106 69.5t-159.5 24.5z
" />
    <glyph glyph-name="seven.taboldstyle" unicode="&#xe107;" 
d="M1128 1092l-874 -1432h-90l883 1432h-734l-47 -228h-69l59 297h887z" />
    <glyph glyph-name="eight.taboldstyle" unicode="&#xe108;" 
d="M260 1128q0 124 68.5 214.5t178 134t245.5 43.5q189 0 295 -90.5t106 -227.5q0 -69 -24 -127.5t-61.5 -99.5t-96 -77t-115.5 -59.5t-131 -47.5q315 -133 315 -371q0 -208 -155.5 -329.5t-395.5 -121.5q-195 0 -312.5 95.5t-117.5 244.5q0 70 17.5 129.5t52.5 105.5
t76.5 82.5t100.5 67.5t113 53.5t124 45.5q-50 21 -95.5 50t-90 70.5t-71 97t-26.5 117.5zM137 322q0 -129 98 -208t259 -79q92 0 175 23.5t149 68t104.5 116t38.5 160.5q0 126 -83 213.5t-243 145.5q-60 -19 -100.5 -33.5t-97.5 -39t-95 -47.5t-80 -57.5t-67 -71.5
t-41.5 -86t-16.5 -105zM1075 1190q0 120 -81 192t-244 72q-63 0 -121.5 -11t-111.5 -35.5t-92 -60.5t-62 -90t-23 -120q0 -96 65 -172t232 -142q44 14 64 20.5t64.5 23t67.5 27.5t61.5 31t59.5 37.5t47.5 43.5t40 52.5t23.5 60.5t10 71z" />
    <glyph glyph-name="nine.taboldstyle" unicode="&#xe109;" 
d="M324 -272q158 0 291.5 95t219 248.5t123.5 344.5q-97 -82 -223 -128t-250 -46q-185 0 -292 105.5t-107 279.5q0 91 19 172.5t61 153.5t103 124.5t150 82.5t197 30q202 0 323.5 -135t121.5 -381q0 -137 -29 -277.5t-90.5 -273t-147.5 -235.5t-210 -165.5t-267 -62.5
q-107 0 -195.5 41t-137.5 92l51 51q116 -116 289 -116zM508 311q118 0 244 52.5t221 138.5q10 88 10 164q0 98 -22 178.5t-66.5 143t-118 97.5t-170.5 35q-108 0 -193.5 -38t-138.5 -103.5t-80.5 -150t-27.5 -181.5q0 -72 17 -130t55 -105.5t106.5 -74t163.5 -26.5z" />
    <glyph glyph-name="zero.denominator" unicode="&#xe10a;" horiz-adv-x="860" 
d="M735 279q0 -85 -12 -165t-44 -164t-81 -145.5t-130 -101t-185 -39.5q-156 0 -232 93.5t-76 244.5q0 90 12 171t44 161.5t81.5 138t130 93.5t183.5 36q156 0 232.5 -91.5t76.5 -231.5zM295 -276q81 0 145.5 31t106.5 82.5t70 124t39.5 151t11.5 166.5q0 120 -63 192
t-191 72q-99 0 -172.5 -42.5t-115.5 -119t-61.5 -171.5t-19.5 -210q0 -134 63 -205t187 -71z" />
    <glyph glyph-name="one.denominator" unicode="&#xe10b;" horiz-adv-x="626" 
d="M410 -315h-471l10 51h223l147 723q-137 -95 -270 -119l10 51q199 61 328 213h23l-177 -868h187z" />
    <glyph glyph-name="two.denominator" unicode="&#xe10c;" horiz-adv-x="815" 
d="M578 -315h-693l15 67q203 134 368 246q77 52 121.5 84t95 74t76 74t43 70.5t17.5 78.5q0 78 -55.5 125t-166.5 47q-101 0 -176 -36t-147 -105l-39 41q149 153 366 153q132 0 207.5 -59.5t75.5 -155.5q0 -36 -12 -71.5t-27.5 -64.5t-47 -63t-55 -56t-68 -55.5t-69 -50.5
l-73.5 -51q-61 -42 -110 -74t-120.5 -77.5t-130.5 -83.5h617z" />
    <glyph glyph-name="three.denominator" unicode="&#xe10d;" horiz-adv-x="782" 
d="M629 -10q0 -153 -109.5 -239.5t-277.5 -86.5q-103 0 -181 40t-118 106l53 36q81 -125 258 -125q61 0 113.5 14.5t96.5 44.5t69.5 83t25.5 123q0 170 -242 170q-68 0 -147 -23l4 19l463 374h-518l10 58h600l-10 -60l-397 -321q10 2 32 2q128 0 201.5 -58t73.5 -157z" />
    <glyph glyph-name="four.denominator" unicode="&#xe10e;" horiz-adv-x="800" 
d="M631 -70h-150l-55 -272h-57l55 272h-481l10 52l629 620h45l-135 -620h149zM434 -18l115 516l-524 -516h409z" />
    <glyph glyph-name="five.denominator" unicode="&#xe10f;" horiz-adv-x="776" 
d="M631 2q0 -111 -55 -188t-145 -112.5t-208 -35.5q-111 0 -190 38.5t-113 90.5l64 29q75 -105 239 -105q72 0 131.5 14.5t108 45.5t75.5 87t27 132q0 176 -239 176q-59 0 -139 -19.5t-140 -48.5h-12l168 478h497l-12 -60h-450l-123 -346q113 45 231 45q128 0 206.5 -57.5
t78.5 -163.5z" />
    <glyph glyph-name="six.denominator" unicode="&#xe110;" horiz-adv-x="854" 
d="M680 25q0 -161 -108.5 -260t-280.5 -99q-154 0 -240 81t-86 237q0 87 21.5 174t66.5 167.5t107 142.5t149.5 99t188.5 37q150 0 245 -72l-49 -49q-75 62 -209 62q-164 0 -271 -110.5t-157 -289.5q179 105 346 105q129 0 203 -60.5t74 -164.5zM295 -274q139 0 228 75
t89 209q0 183 -233 183q-151 0 -334 -111q-12 -49 -12 -102q0 -116 61.5 -185t200.5 -69z" />
    <glyph glyph-name="seven.denominator" unicode="&#xe111;" horiz-adv-x="755" 
d="M715 512l-594 -846h-76l604 858h-518l-27 -131h-59l39 191h645z" />
    <glyph glyph-name="eight.denominator" unicode="&#xe112;" horiz-adv-x="851" 
d="M664 -49q0 -72 -34 -129t-90.5 -90.5t-124 -50.5t-139.5 -17q-154 0 -238.5 62.5t-84.5 158.5q0 60 27 108.5t74.5 81t101 53.5t118.5 34q-91 31 -141.5 78t-50.5 125q0 64 31 111.5t83.5 74t113.5 39t130 12.5q141 0 218 -58t77 -141q0 -175 -284 -245
q106 -32 159.5 -81t53.5 -126zM668 395q0 70 -61.5 111t-178.5 41q-125 0 -201.5 -43.5t-76.5 -134.5q0 -64 48 -106.5t167 -80.5q66 15 114.5 31t94.5 41t70 60.5t24 80.5zM289 -276q76 0 144 23t115.5 75t47.5 123q0 28 -8 51t-27.5 41.5t-35.5 30.5t-50.5 26t-52.5 20.5
t-60 20.5q-56 -11 -98 -22t-90.5 -31.5t-80 -45t-52.5 -62.5t-21 -85q0 -73 70.5 -119t198.5 -46z" />
    <glyph glyph-name="nine.denominator" unicode="&#xe113;" horiz-adv-x="851" 
d="M25 250q0 160 111.5 256t283.5 96q149 0 229 -87t80 -230q0 -87 -20.5 -174t-63.5 -167.5t-103.5 -143t-147 -99.5t-187.5 -37q-162 0 -256 78l53 49q79 -70 213 -70q84 0 156 32.5t123 88.5t85.5 124.5t51.5 146.5q-147 -99 -328 -99q-126 0 -203 62t-77 174zM406 543
q-136 0 -225 -75t-89 -212q0 -184 234 -184q168 0 321 106q8 39 8 98q0 267 -249 267z" />
    <glyph glyph-name="zero.numerator" unicode="&#xe11e;" horiz-adv-x="860" 
d="M899 1196q0 -85 -12 -165t-44 -163.5t-81.5 -145t-130.5 -101t-185 -39.5q-156 0 -231.5 93.5t-75.5 244.5q0 90 12 171t44 161.5t81.5 138t130 93.5t183.5 36q106 0 177.5 -46t101.5 -117t30 -161zM459 641q81 0 145.5 31t106.5 82.5t69.5 124t39 151t11.5 166.5
q0 121 -62.5 192.5t-190.5 71.5q-99 0 -172.5 -42.5t-115.5 -119t-61.5 -171t-19.5 -209.5q0 -135 63 -206t187 -71z" />
    <glyph glyph-name="one.numerator" unicode="&#xe11f;" horiz-adv-x="626" 
d="M557 600h-471l10 51h223l148 723q-137 -95 -270 -119l10 52q199 61 328 213h22l-176 -869h186z" />
    <glyph glyph-name="two.numerator" unicode="&#xe120;" horiz-adv-x="815" 
d="M748 600h-693l15 68q260 172 368 245q77 52 121.5 84t95 74t76 74t43 70.5t17.5 78.5q0 78 -55.5 125t-166.5 47q-101 0 -176 -36t-147 -105l-39 41q150 154 366 154q132 0 207.5 -59.5t75.5 -155.5q0 -36 -12 -71.5t-27.5 -64.5t-47 -63t-55 -56t-68 -55.5t-69 -50.5
l-73.5 -51q-48 -33 -361 -236h617z" />
    <glyph glyph-name="three.numerator" unicode="&#xe121;" horiz-adv-x="782" 
d="M784 907q0 -153 -109.5 -239t-277.5 -86q-104 0 -181.5 39.5t-117.5 105.5l54 37q81 -125 258 -125q61 0 113.5 14.5t96.5 44t69.5 82.5t25.5 123q0 170 -242 170q-71 0 -147 -22l4 18l463 375h-519l11 57h600l-11 -59l-397 -322q10 2 33 2q128 0 201 -58t73 -157z" />
    <glyph glyph-name="four.numerator" unicode="&#xe122;" horiz-adv-x="800" 
d="M793 848h-150l-55 -273h-58l56 273h-482l11 51l628 621h45l-135 -621h150zM596 899l115 516l-525 -516h410z" />
    <glyph glyph-name="five.numerator" unicode="&#xe123;" horiz-adv-x="776" 
d="M788 918q0 -111 -55 -188t-144.5 -112.5t-207.5 -35.5q-111 0 -190 38.5t-113 90.5l63 28q74 -104 240 -104q57 0 106 8.5t93.5 29t75.5 51.5t49 79t18 110q0 177 -240 177q-59 0 -138.5 -19.5t-139.5 -48.5h-12l167 477h498l-12 -59h-451l-123 -346q113 45 232 45
q128 0 206 -57.5t78 -163.5z" />
    <glyph glyph-name="six.numerator" unicode="&#xe124;" horiz-adv-x="854" 
d="M844 940q0 -161 -108.5 -259.5t-280.5 -98.5q-154 0 -240 81t-86 236q0 87 21.5 174t66.5 167.5t107 143t149.5 99.5t188.5 37q150 0 245 -72l-49 -49q-74 61 -209 61q-84 0 -155 -31t-123 -86.5t-89 -125.5t-61 -156q177 104 346 104q129 0 203 -60.5t74 -164.5z
M459 641q138 0 227.5 75.5t89.5 209.5q0 182 -233 182q-151 0 -334 -111q-12 -49 -12 -102q0 -116 61.5 -185t200.5 -69z" />
    <glyph glyph-name="seven.numerator" unicode="&#xe125;" horiz-adv-x="755" 
d="M872 1427l-593 -845h-76l604 858h-518l-27 -131h-59l39 190h645z" />
    <glyph glyph-name="eight.numerator" unicode="&#xe126;" horiz-adv-x="851" 
d="M825 868q0 -72 -34 -129t-90.5 -90t-123.5 -50t-139 -17q-154 0 -238.5 62.5t-84.5 158.5q0 60 27 108.5t74.5 80.5t101 53t118.5 34q-91 31 -141.5 78t-50.5 125q0 64 31 112t83.5 74.5t113.5 39t130 12.5q141 0 218 -58t77 -141q0 -175 -285 -246q106 -32 159.5 -81
t53.5 -126zM829 1313q0 70 -61 110.5t-178 40.5q-125 0 -202 -43.5t-77 -134.5q0 -64 48 -106t167 -80q66 15 114.5 31t94.5 41t70 60.5t24 80.5zM451 641q76 0 144 23t115.5 75t47.5 123q0 24 -7.5 45t-17.5 36t-30.5 30t-35.5 24.5t-45 21t-46.5 17.5t-51.5 17
q-56 -11 -98 -22t-90.5 -31.5t-80 -45t-52.5 -62.5t-21 -85q0 -73 70.5 -119.5t198.5 -46.5z" />
    <glyph glyph-name="nine.numerator" unicode="&#xe127;" horiz-adv-x="851" 
d="M182 1167q0 160 112 256.5t284 96.5q149 0 229 -87.5t80 -230.5q0 -87 -20.5 -174t-63.5 -167.5t-103.5 -142.5t-147 -99t-187.5 -37q-163 0 -256 77l53 50q79 -70 213 -70q84 0 156 32.5t123 88t85.5 124t51.5 146.5q-146 -98 -328 -98q-126 0 -203.5 62t-77.5 173z
M563 1460q-136 0 -224.5 -74.5t-88.5 -211.5q0 -185 233 -185q168 0 322 107q8 39 8 98q0 266 -250 266z" />
    <glyph glyph-name="commaaccent" unicode="&#xf6c3;" horiz-adv-x="522" 
d="M201 -139q0 35 21 57.5t61 22.5q37 0 55 -19t18 -49q0 -67 -38.5 -149t-73.5 -119h-66q73 82 86 192q-63 0 -63 64z" />
    <glyph glyph-name="one.fitted" unicode="&#xf6dc;" horiz-adv-x="878" 
d="M608 0h-608l12 63h289l260 1272q-62 -46 -157.5 -88t-190.5 -63l12 63q126 36 238.5 108t181.5 165h27l-297 -1457h246z" />
    <glyph glyph-name="a.superior" unicode="&#xf6e9;" horiz-adv-x="864" 
d="M928 1393l-162 -789h-43l12 133q-151 -155 -307 -155q-125 0 -189.5 88.5t-64.5 222.5q0 95 28.5 186.5t81.5 167t138.5 122t189.5 46.5q120 0 246 -49l51 27h19zM754 815l100 500q-118 47 -240 47q-114 0 -203 -67t-134.5 -173t-45.5 -229q0 -112 53.5 -185t151.5 -73
q145 0 318 180z" />
    <glyph glyph-name="b.superior" unicode="&#xf6ea;" horiz-adv-x="923" 
d="M922 1120q0 -99 -29.5 -194.5t-85 -174.5t-145 -127.5t-199.5 -48.5q-131 0 -258 52l-49 -37h-13l234 1147h57l-92 -457q77 66 150 98.5t157 32.5q137 0 205 -79t68 -212zM471 631q90 0 164.5 41.5t122.5 110t74 152.5t26 173q0 246 -215 246q-147 0 -311 -142l-111 -530
q112 -51 250 -51z" />
    <glyph glyph-name="d.superior" unicode="&#xf6eb;" horiz-adv-x="923" 
d="M776 600h-43l10 119q-63 -63 -143.5 -103.5t-165.5 -40.5q-132 0 -201 90.5t-69 225.5q0 100 32 193.5t89.5 166t144.5 116.5t188 44q135 0 254 -61l78 389h58zM760 799l100 493q-113 64 -242 64q-118 0 -208.5 -65.5t-136.5 -170.5t-46 -229q0 -48 11 -91t34.5 -82
t66.5 -62t101 -23q94 0 167 42t153 124z" />
    <glyph glyph-name="e.superior" unicode="&#xf6ec;" horiz-adv-x="835" 
d="M209 905q0 -120 67 -198t183 -78q124 0 225 67l27 -45q-117 -76 -265 -76q-138 0 -216 92t-78 238q0 100 27.5 189t81 161t142.5 114t203 42q110 0 183 -52.5t73 -146.5q0 -35 -11.5 -64.5t-28.5 -51.5t-46.5 -40t-54.5 -29.5t-64.5 -21t-64.5 -14.5t-66 -9.5t-58.5 -5.5
t-51.5 -3l-205 -12q-2 -18 -2 -56zM217 1014l164 8q94 4 162.5 14t130 29.5t93.5 55.5t32 87q0 74 -56 113t-149 39q-146 0 -247.5 -93.5t-129.5 -252.5z" />
    <glyph glyph-name="l.superior" unicode="&#xf6ee;" horiz-adv-x="411" 
d="M371 637v-49q-47 -13 -99 -13q-68 0 -103.5 32t-35.5 93q0 33 10 88l189 924l65 45l-192 -952q-12 -67 -12 -94q0 -46 23.5 -65t80.5 -19q29 0 74 10z" />
    <glyph glyph-name="m.superior" unicode="&#xf6ef;" horiz-adv-x="1400" 
d="M1223 600h-56l97 473q18 88 18 141q0 144 -133 144q-70 0 -145.5 -41.5t-172.5 -124.5l-122 -592h-56l97 473q20 110 20 144q0 70 -29 105.5t-98 35.5q-142 0 -328 -168l-120 -590h-58l160 786h57l-26 -131q88 73 165 114.5t162 41.5q167 0 179 -164q101 85 175 124.5
t152 39.5q89 0 135.5 -47.5t46.5 -136.5q0 -41 -14 -113z" />
    <glyph glyph-name="o.superior" unicode="&#xf6f0;" horiz-adv-x="901" 
d="M911 1092q0 -106 -26.5 -197.5t-78.5 -164t-138 -114t-197 -41.5q-157 0 -238 89t-81 235q0 80 16.5 154t52 139.5t87 114t126.5 76.5t166 28q149 0 230 -88.5t81 -230.5zM477 627q94 0 166.5 36t116.5 99.5t66 145t22 177.5q0 54 -12.5 99.5t-40.5 85.5t-80.5 63
t-124.5 23q-119 0 -206 -62.5t-129 -163t-42 -223.5q0 -128 63.5 -204t200.5 -76z" />
    <glyph glyph-name="r.superior" unicode="&#xf6f1;" horiz-adv-x="546" 
d="M694 1384l-37 -61q-27 12 -57 12q-126 0 -287 -155l-116 -580h-58l160 786h57l-28 -137q147 150 295 150q37 0 71 -15z" />
    <glyph glyph-name="s.superior" unicode="&#xf6f2;" horiz-adv-x="747" 
d="M686 821q0 -115 -95.5 -180.5t-228.5 -65.5q-194 0 -284 134l55 32q75 -116 232 -116q112 0 188 50.5t76 137.5q0 26 -12.5 48.5t-30 37.5t-48 30t-55 24.5t-63.5 24t-62 23.5q-78 32 -121.5 73.5t-43.5 107.5q0 110 85 169.5t209 59.5q83 0 157 -31.5t124 -95.5l-49 -31
q-81 107 -234 107q-97 0 -166 -42.5t-69 -129.5q0 -16 4 -30.5t13.5 -27t18 -22.5t26 -20.5t29 -17t34.5 -16t35.5 -14.5t39 -14.5t37.5 -13.5q44 -16 75 -31t61.5 -38t46.5 -53.5t16 -68.5z" />
    <glyph glyph-name="t.superior" unicode="&#xf6f3;" horiz-adv-x="548" 
d="M371 625q58 0 116 16l5 -47q-59 -19 -132 -19q-82 0 -123.5 32t-41.5 102q0 36 8 77l112 547h-168l11 51h168l61 299l66 39l-68 -338h240l-11 -51h-239l-109 -532q-10 -52 -10 -84q0 -45 25.5 -68.5t89.5 -23.5z" />
    <glyph glyph-name="h.superior" unicode="&#xf700;" horiz-adv-x="925" 
d="M778 600h-57l96 475q17 91 17 121q0 160 -162 160q-154 0 -361 -172l-116 -584h-58l232 1139h57l-96 -482q192 154 356 154q101 0 155 -54t54 -151q0 -36 -10 -88z" />
    <glyph glyph-name="uniF8FF" unicode="&#xf8ff;" horiz-adv-x="1024" 
d="M-113 0l275 1362h973l-277 -1362h-971zM299 1266l229 -498l433 498h-662zM223 1178l-203 -992q0 -1 108 123t216 249l109 124zM1001 1178l-432 -496l230 -498zM723 98l-229 496l-433 -496h662z" />
    <glyph glyph-name="I.alt" horiz-adv-x="456" 
d="M156 0h-74l301 1489h74z" />
    <glyph glyph-name="IJ.alt" horiz-adv-x="1089" 
d="M156 0h-74l301 1489h74zM780 -37q-17 -84 -43 -145t-68.5 -111.5t-108.5 -76t-154 -25.5q-118 0 -211 55l41 64q78 -50 176 -50q136 0 200.5 74t98.5 242l305 1499h74z" />
    <glyph glyph-name="Iacute.alt" horiz-adv-x="456" 
d="M156 0h-74l301 1489h74zM823 1958l-358 -361h-72l305 361h125z" />
    <glyph glyph-name="Ibreve.alt" horiz-adv-x="456" 
d="M156 0h-74l301 1489h74zM772 1880q-126 -283 -338 -283q-58 0 -101 28t-64.5 73t-31.5 90.5t-10 91.5h52q15 -92 53.5 -138t122.5 -46q161 0 254 184h63z" />
    <glyph glyph-name="Icircumflex.alt" horiz-adv-x="456" 
d="M156 0h-74l301 1489h74zM709 1597h-58l-155 275l-271 -275h-61l305 361h86z" />
    <glyph glyph-name="Idieresis.alt" horiz-adv-x="456" 
d="M156 0h-74l301 1489h74zM342 1683q0 -42 -21.5 -64t-60.5 -22q-63 0 -63 56q0 84 82 84q63 0 63 -54zM672 1683q0 -42 -21.5 -64t-60.5 -22q-64 0 -64 56q0 84 82 84q64 0 64 -54z" />
    <glyph glyph-name="Idotaccent.alt" horiz-adv-x="456" 
d="M156 0h-74l301 1489h74zM518 1683q0 -86 -80 -86q-30 0 -44.5 13.5t-14.5 44.5q0 84 80 84q32 0 45.5 -13t13.5 -43z" />
    <glyph glyph-name="Igrave.alt" horiz-adv-x="456" 
d="M156 0h-74l301 1489h74zM461 1597h-62l-219 361h115z" />
    <glyph glyph-name="Imacron.alt" horiz-adv-x="456" 
d="M156 0h-74l301 1489h74zM725 1698h-578l19 88h577z" />
    <glyph glyph-name="Iogonek.alt" horiz-adv-x="456" 
d="M399 -332q-112 -63 -227 -63q-86 0 -128 42t-42 113q0 102 80 240l301 1489h74l-301 -1489q-76 -124 -76 -227q0 -54 31 -77.5t94 -23.5q57 0 180 47z" />
    <glyph glyph-name="Itilde.alt" horiz-adv-x="456" 
d="M156 0h-74l301 1489h74zM801 1855q-50 -245 -213 -245q-26 0 -48.5 7t-44 24.5t-32.5 28t-32.5 37t-27.5 32.5q-47 51 -88 51q-38 0 -68.5 -34t-45 -71t-21.5 -75h-63q54 245 223 245q43 0 75.5 -21t65.5 -60q5 -6 19.5 -23t21 -24t19 -19.5t22 -18t22 -10t25.5 -4.5
q24 0 44.5 13.5t33 31t24.5 46t17 46t12 43.5h60z" />
    <glyph glyph-name="J.alt" horiz-adv-x="503" 
d="M195 -37q-17 -84 -43 -145t-69 -111.5t-109 -76t-154 -25.5q-118 0 -211 55l41 64q78 -50 176 -50q136 0 200.5 74t98.5 242l305 1499h74z" />
    <glyph glyph-name="Jcircumflex.alt" horiz-adv-x="503" 
d="M195 -37q-17 -84 -43 -145t-69 -111.5t-109 -76t-154 -25.5q-118 0 -211 55l41 64q78 -50 176 -50q136 0 200.5 74t98.5 242l305 1499h74zM756 1599h-58l-155 275l-271 -275h-61l305 361h86z" />
    <glyph glyph-name="dotlessi.alt" horiz-adv-x="440" 
d="M152 0h-72l209 1030h71z" />
    <glyph glyph-name="eight.tab" 
d="M221 1128q0 124 68.5 214.5t178 134t245.5 43.5q189 0 295 -90.5t106 -227.5q0 -69 -24 -127.5t-61.5 -99.5t-96 -77t-115.5 -59.5t-131 -47.5q315 -133 315 -371q0 -139 -73 -242.5t-196.5 -156t-280.5 -52.5q-195 0 -313 95.5t-118 244.5q0 70 17.5 129.5t52.5 105.5
t76.5 82.5t100.5 67.5t113 53.5t124 45.5q-50 21 -95.5 50t-90 70.5t-71 97t-26.5 117.5zM98 322q0 -129 98 -208t259 -79q92 0 175 23.5t149 68t104.5 116t38.5 160.5q0 126 -83 213.5t-243 145.5q-60 -19 -100.5 -33.5t-97.5 -39t-95 -47.5t-80 -57.5t-67 -71.5t-41.5 -86
t-16.5 -105zM1036 1190q0 120 -81 192t-244 72q-63 0 -121.5 -11t-111.5 -35.5t-92 -60.5t-62 -90t-23 -120q0 -96 65 -172t232 -142q44 14 64 20.5t64.5 23t67.5 27.5t61.5 31t59.5 37.5t47.5 43.5t40 52.5t23.5 60.5t10 71z" />
    <glyph glyph-name="f_f_l.alt" horiz-adv-x="1599" 
d="M682 -68l211 1035h-483l-211 -1035q-19 -95 -52 -160.5t-78.5 -101t-95.5 -50.5t-114 -15q-96 0 -176 37l22 61q87 -37 168 -37q109 0 169 66.5t87 199.5l211 1035h-172l12 63h172l33 162q37 184 122 256t220 72q102 0 178 -35l-31 -55q-70 30 -165 30q-112 0 -169 -66
t-85 -202l-33 -162h483l33 162q19 95 53 160.5t80.5 101.5t98.5 51t118 15q124 0 256 -58l74 56l-309 -1518h-72l285 1409q-116 53 -238 53q-119 0 -182.5 -60t-93.5 -210l-33 -162h266l-12 -63h-266l-211 -1035q-19 -95 -52 -160.5t-78.5 -101t-95.5 -50.5t-114 -15
q-96 0 -176 37l22 61q87 -37 168 -37q109 0 169 66.5t87 199.5z" />
    <glyph glyph-name="f_l.alt" horiz-adv-x="1046" 
d="M756 0h-72l285 1409q-116 53 -238 53q-119 0 -182.5 -60t-93.5 -210l-33 -162h266l-12 -63h-266l-211 -1035q-19 -95 -52 -160.5t-78.5 -101t-95.5 -50.5t-114 -15q-96 0 -176 37l22 61q87 -37 168 -37q109 0 169 66.5t87 199.5l211 1035h-172l12 63h172l33 162
q19 95 53 160.5t80.5 101.5t98.5 51t118 15q124 0 256 -58l74 56z" />
    <glyph glyph-name="five.tab" 
d="M969 522q0 -253 -154.5 -403t-419.5 -150q-66 0 -125.5 14t-101 35t-77 49.5t-56.5 52t-37 48.5l63 43q113 -172 336 -172q231 0 362.5 126.5t131.5 342.5q0 149 -86 234t-254 85q-193 0 -350 -116h-23l230 778h686l-15 -70h-626l-172 -600q137 74 294 74
q180 0 287 -102.5t107 -268.5z" />
    <glyph glyph-name="four.tab" 
d="M961 373h-177l-84 -404h-69l84 404h-707l12 67l908 1080h90l-221 -1080h176zM727 440l199 977l-820 -977h621z" />
    <glyph glyph-name="fraction.tab" horiz-adv-x="223" 
d="M698 1489l-1134 -1489h-78l1135 1489h77z" />
    <glyph glyph-name="g.alt" horiz-adv-x="1124" 
d="M1053 1030l-207 -1030q-40 -199 -146.5 -297t-318.5 -98q-97 0 -190 22t-134 45l29 64q122 -64 303 -64q174 0 265 77t126 253l41 201q-180 -203 -397 -203q-156 0 -245 104t-89 275q0 94 21.5 189t67.5 184t110 157.5t157.5 110t202.5 41.5q168 0 330 -66l47 35h27z
M965 932q-162 65 -316 65q-114 0 -208.5 -54.5t-153.5 -143.5t-91 -197.5t-32 -222.5q0 -157 74 -235t196 -78q106 0 204 60.5t202 172.5z" />
    <glyph glyph-name="gbreve.alt" horiz-adv-x="1124" 
d="M1053 1030l-207 -1030q-40 -199 -146.5 -297t-318.5 -98q-97 0 -190 22t-134 45l29 64q122 -64 303 -64q174 0 265 77t126 253l41 201q-180 -203 -397 -203q-156 0 -245 104t-89 275q0 94 21.5 189t67.5 184t110 157.5t157.5 110t202.5 41.5q168 0 330 -66l47 35h27z
M965 932q-162 65 -316 65q-114 0 -208.5 -54.5t-153.5 -143.5t-91 -197.5t-32 -222.5q0 -157 74 -235t196 -78q106 0 204 60.5t202 172.5zM1012 1530q-126 -283 -338 -283q-58 0 -101 28t-64.5 73t-31.5 90.5t-10 91.5h51q15 -92 53.5 -138t122.5 -46q161 0 254 184h64z" />
    <glyph glyph-name="gcircumflex.alt" horiz-adv-x="1124" 
d="M1053 1030l-207 -1030q-40 -199 -146.5 -297t-318.5 -98q-97 0 -190 22t-134 45l29 64q122 -64 303 -64q174 0 265 77t126 253l41 201q-180 -203 -397 -203q-156 0 -245 104t-89 275q0 94 21.5 189t67.5 184t110 157.5t157.5 110t202.5 41.5q168 0 330 -66l47 35h27z
M965 932q-162 65 -316 65q-114 0 -208.5 -54.5t-153.5 -143.5t-91 -197.5t-32 -222.5q0 -157 74 -235t196 -78q106 0 204 60.5t202 172.5zM965 1208h-58l-155 275l-271 -275h-61l305 361h86z" />
    <glyph glyph-name="gcommaaccent.alt" horiz-adv-x="1124" 
d="M1053 1030l-207 -1030q-40 -199 -146.5 -297t-318.5 -98q-97 0 -190 22t-134 45l29 64q122 -64 303 -64q174 0 265 77t126 253l41 201q-180 -203 -397 -203q-156 0 -245 104t-89 275q0 94 21.5 189t67.5 184t110 157.5t157.5 110t202.5 41.5q168 0 330 -66l47 35h27z
M965 932q-162 65 -316 65q-114 0 -208.5 -54.5t-153.5 -143.5t-91 -197.5t-32 -222.5q0 -157 74 -235t196 -78q106 0 204 60.5t202 172.5zM754 1311q0 -35 -21 -57.5t-61 -22.5q-38 0 -56 18.5t-18 48.5q0 67 39 149.5t74 119.5h65q-73 -82 -86 -193q64 0 64 -63z" />
    <glyph glyph-name="gdotaccent.alt" horiz-adv-x="1124" 
d="M1053 1030l-207 -1030q-40 -199 -146.5 -297t-318.5 -98q-97 0 -190 22t-134 45l29 64q122 -64 303 -64q174 0 265 77t126 253l41 201q-180 -203 -397 -203q-156 0 -245 104t-89 275q0 94 21.5 189t67.5 184t110 157.5t157.5 110t202.5 41.5q168 0 330 -66l47 35h27z
M965 932q-162 65 -316 65q-114 0 -208.5 -54.5t-153.5 -143.5t-91 -197.5t-32 -222.5q0 -157 74 -235t196 -78q106 0 204 60.5t202 172.5zM770 1329q0 -86 -80 -86q-30 0 -44.5 13t-14.5 44q0 84 80 84q32 0 45.5 -13t13.5 -42z" />
    <glyph glyph-name="i.alt" horiz-adv-x="440" 
d="M152 0h-72l209 1030h71zM440 1346q0 -80 -69 -80q-28 0 -41 12t-13 39q0 78 70 78q53 0 53 -49z" />
    <glyph glyph-name="i.dot" horiz-adv-x="497" 
d="M201 0h-68l172 850q19 89 19 108q0 20 -6.5 29.5t-24.5 9.5q-40 0 -146 -67l-24 47q131 84 196 84q76 0 76 -80q0 -30 -16 -104zM467 1346q0 -80 -70 -80q-28 0 -40.5 12t-12.5 39q0 78 70 78q53 0 53 -49z" />
    <glyph glyph-name="iacute.alt" horiz-adv-x="440" 
d="M152 0h-72l209 1030h71zM729 1569l-358 -361h-72l305 361h125z" />
    <glyph glyph-name="ibreve.alt" horiz-adv-x="440" 
d="M152 0h-72l209 1030h71zM692 1530q-126 -283 -338 -283q-58 0 -101 28t-64.5 73t-31.5 90.5t-10 91.5h52q15 -92 53.5 -138t122.5 -46q161 0 254 184h63z" />
    <glyph glyph-name="icircumflex.alt" horiz-adv-x="440" 
d="M152 0h-72l209 1030h71zM643 1208h-57l-156 275l-270 -275h-62l305 361h86z" />
    <glyph glyph-name="idieresis.alt" horiz-adv-x="440" 
d="M152 0h-72l209 1030h71zM281 1329q0 -42 -21.5 -64t-60.5 -22q-64 0 -64 55q0 84 82 84q64 0 64 -53zM610 1329q0 -42 -21.5 -64t-60.5 -22q-63 0 -63 55q0 84 82 84q63 0 63 -53z" />
    <glyph glyph-name="igrave.alt" horiz-adv-x="440" 
d="M152 0h-72l209 1030h71zM387 1208h-61l-220 361h115z" />
    <glyph glyph-name="ij.alt" horiz-adv-x="933" 
d="M152 0h-72l209 1030h71zM440 1346q0 -80 -69 -80q-28 0 -41 12t-13 39q0 78 70 78q53 0 53 -49zM854 1030l-229 -1118q-34 -162 -105 -234.5t-215 -72.5q-48 0 -96.5 8.5t-71.5 19.5l29 64q64 -27 158 -27q59 0 99 16.5t67.5 55.5t44 88t32.5 127l217 1073h70zM930 1346
q0 -80 -70 -80q-28 0 -40.5 12t-12.5 39q0 78 70 78q53 0 53 -49z" />
    <glyph glyph-name="imacron.alt" horiz-adv-x="440" 
d="M152 0h-72l209 1030h71zM651 1350h-577l18 88h578z" />
    <glyph glyph-name="iogonek.alt" horiz-adv-x="440" 
d="M152 0q-74 -126 -74 -227q0 -54 31 -77.5t94 -23.5q57 0 180 47l14 -51q-112 -63 -227 -63q-86 0 -128 42t-42 113q0 102 80 240l209 1030h71zM440 1346q0 -80 -69 -80q-28 0 -41 12t-13 39q0 78 70 78q53 0 53 -49z" />
    <glyph glyph-name="itilde.alt" horiz-adv-x="448" 
d="M152 0h-72l209 1030h71zM719 1511q-50 -245 -213 -245q-26 0 -48.5 7t-43.5 24t-32.5 28.5t-32.5 37t-27 32.5q-47 51 -89 51q-38 0 -68.5 -34t-45 -71t-21.5 -75h-63q54 245 223 245q43 0 75.5 -21t65.5 -60q5 -6 19.5 -23t21 -24t19 -19.5t22 -18t22 -10t25.5 -4.5
q24 0 44.5 13.5t33 31t24.5 46t17 46t12 43.5h60z" />
    <glyph glyph-name="j.alt" horiz-adv-x="489" 
d="M410 1030l-230 -1118q-34 -162 -104.5 -234.5t-214.5 -72.5q-48 0 -96.5 8.5t-71.5 19.5l28 64q65 -27 158 -27q112 0 162.5 65.5t81.5 221.5l217 1073h70zM485 1346q0 -80 -69 -80q-28 0 -41 12t-13 39q0 78 70 78q53 0 53 -49z" />
    <glyph glyph-name="jcircumflex.alt" horiz-adv-x="489" 
d="M182 -88q-22 -108 -58 -173t-100.5 -99.5t-162.5 -34.5q-47 0 -95 8.5t-71 19.5l33 66q69 -29 149 -29q112 0 163 63t83 224l217 1073h70zM662 1208h-58l-155 275l-271 -275h-61l305 361h86z" />
    <glyph glyph-name="l.alt" horiz-adv-x="452" 
d="M158 0h-72l299 1473l86 63z" />
    <glyph glyph-name="lacute.alt" horiz-adv-x="452" 
d="M158 0h-72l299 1473l86 63zM827 1958l-358 -361h-72l305 361h125z" />
    <glyph glyph-name="lcaron.alt" horiz-adv-x="452" 
d="M158 0h-72l299 1473l86 63zM530 1440q0 35 21 57.5t61 22.5q36 0 55 -20.5t19 -53.5q0 -73 -46.5 -171.5t-115.5 -178.5h-65q41 47 84 129t51 151q-64 0 -64 64z" />
    <glyph glyph-name="lcommaaccent.alt" horiz-adv-x="452" 
d="M158 0h-72l299 1473l86 63zM23 -139q0 36 20.5 58t60.5 22q38 0 56 -19t18 -49q0 -67 -38.5 -149t-73.5 -119h-66q73 82 86 192q-63 0 -63 64z" />
    <glyph glyph-name="ldot.alt" horiz-adv-x="452" 
d="M158 0h-72l299 1473l86 63zM557 674q0 -86 -80 -86q-30 0 -44.5 13t-14.5 44q0 84 80 84q32 0 45.5 -13t13.5 -42z" />
    <glyph glyph-name="lslash.alt" horiz-adv-x="452" 
d="M158 0h-72l131 647l-205 -164l17 82l204 164l152 744l86 63l-152 -737l199 157l-16 -82l-199 -157z" />
    <glyph glyph-name="nine.tab" 
d="M356 37q120 0 228.5 61.5t188.5 164t137.5 227t86.5 260.5q-98 -84 -225 -131.5t-252 -47.5q-185 0 -291 102.5t-106 280.5q0 95 19.5 178.5t61.5 155t103.5 123t150 80.5t197.5 29q208 0 327.5 -142.5t119.5 -376.5q0 -132 -32.5 -274.5t-98.5 -277.5t-155 -242
t-212.5 -172.5t-261.5 -65.5q-212 0 -330 127l58 51q99 -110 286 -110zM543 641q126 0 250.5 53.5t220.5 143.5q10 85 10 151q0 93 -22 174t-67 146t-121 103t-175 38q-108 0 -192.5 -37.5t-137 -104t-79.5 -153.5t-27 -190q0 -71 18 -128t56.5 -102t106 -69.5t159.5 -24.5z
" />
    <glyph glyph-name="one.tab" 
d="M770 0h-608l12 63h289l260 1272q-62 -46 -157.5 -88t-190.5 -63l12 63q126 36 238.5 108t181.5 165h27l-297 -1457h245z" />
    <glyph glyph-name="periodcentered.tab" horiz-adv-x="448" 
d="M307 780q0 -90 -94 -90q-31 0 -49.5 13t-18.5 38q0 93 95 93q67 0 67 -54z" />
    <glyph glyph-name="seven.tab" 
d="M1176 1419l-883 -1450h-90l891 1450h-734l-47 -227h-69l59 297h887z" />
    <glyph glyph-name="six.tab" 
d="M819 1452q-120 0 -228.5 -61.5t-188.5 -164t-137.5 -227t-86.5 -260.5q98 84 225 131.5t252 47.5q186 0 292 -103t106 -280q0 -119 -32 -220t-95 -179.5t-167 -122.5t-239 -44q-208 0 -327 142t-119 376q0 110 23.5 228t67 233.5t111 218.5t149 182t188 125t221.5 46
q211 0 329 -127l-57 -52q-100 111 -287 111zM633 848q-126 0 -250.5 -53.5t-220.5 -143.5q-10 -85 -10 -151q0 -93 22 -174t67 -146t121 -103t175 -38q108 0 192.5 37.5t137 104t79.5 153.5t27 190q0 71 -18 128t-56.5 102t-106 69.5t-159.5 24.5z" />
    <glyph glyph-name="three.tab" 
d="M989 514q0 -248 -149 -396.5t-408 -148.5q-132 0 -238.5 52.5t-173.5 154.5l66 41q118 -178 352 -178q216 0 343.5 124.5t127.5 344.5q0 145 -93 227t-261 82q-61 0 -147 -14l4 18l618 598h-702l14 70h795l-15 -70l-553 -540q196 0 308 -102t112 -263z" />
    <glyph glyph-name="threeeighths.tab" horiz-adv-x="2000" 
d="M799 963q0 -99 -51.5 -170t-133 -104.5t-182.5 -33.5q-196 0 -268 123l57 37q58 -100 211 -100q135 0 218 59t83 178q0 78 -55 118t-156 40q-70 0 -153 -18l4 20l415 334h-456l10 57h539l-11 -57l-358 -289q12 2 31 2q117 0 186.5 -53.5t69.5 -142.5zM1614 1489
l-1139 -1489h-76l1139 1489h76zM1780 244q0 -67 -31 -120t-83 -84.5t-114 -48t-129 -16.5q-141 0 -217 57.5t-76 147.5q0 56 24.5 101.5t67.5 75.5t92 49.5t107 31.5q-83 30 -129.5 74.5t-46.5 116.5q0 59 29.5 103t78.5 68.5t105 36t117 11.5q133 0 201.5 -52.5
t68.5 -131.5q0 -165 -262 -228q98 -31 147.5 -76t49.5 -116zM1782 657q0 65 -53.5 102.5t-165.5 37.5q-111 0 -182.5 -40.5t-71.5 -125.5q0 -59 43.5 -97t152.5 -73q61 14 104 28.5t86 37.5t65 55.5t22 74.5zM1436 31q70 0 132 22t105 70.5t43 114.5q0 31 -13 56t-29 40.5
t-50 32t-55.5 24t-65.5 21.5q-51 -10 -89.5 -20.5t-82.5 -29t-72.5 -41.5t-47.5 -58.5t-19 -78.5q0 -69 63 -111t181 -42z" />
    <glyph glyph-name="two.tab" 
d="M907 0h-905l14 70q154 131 348 288t305 250.5t181 165.5q98 101 141 188t43 193q0 143 -82 221t-233 78q-119 0 -220 -47t-200 -141l-47 51q94 93 206 148t269 55q100 0 175.5 -28.5t120.5 -79t67 -114.5t22 -139q0 -124 -50 -224.5t-167 -217.5q-71 -70 -169 -152.5
t-295 -241.5t-312 -253h803z" />
    <glyph glyph-name="zero.tab" 
d="M1120 1073q0 -118 -16.5 -245t-50.5 -260.5t-96.5 -255t-145.5 -201.5q-69 -68 -163 -105t-199 -37q-196 0 -294 113.5t-98 318.5q0 166 27 335.5t94.5 343t167.5 280.5q147 160 371 160q202 0 302.5 -117t100.5 -330zM457 39q173 0 301 125q94 92 160.5 254.5t94 325.5
t27.5 317q0 189 -77 289t-248 100q-182 0 -305 -129q-136 -145 -204.5 -399.5t-68.5 -509.5q0 -373 320 -373z" />
    <glyph glyph-name="dollar.alt" 
d="M362 -256l58 285q-149 20 -244.5 95.5t-134.5 170.5l65 35q40 -90 122 -153.5t204 -82.5l135 670q-76 26 -129 50.5t-105.5 63t-80 92t-27.5 120.5q0 118 64 205.5t167.5 130t231.5 42.5h25l41 203h63l-43 -209q133 -19 219 -89t127 -167l-63 -32q-85 195 -295 223
l-119 -580q63 -23 108.5 -43t97 -52t83.5 -67.5t53 -86t21 -109.5q0 -203 -137.5 -319.5t-350.5 -116.5h-37l-55 -279h-64zM928 451q0 50 -15 90t-38.5 68.5t-64 53.5t-81 42.5t-100.5 37.5l-133 -655h34q64 0 122.5 13.5t109 42.5t87.5 71t58 102.5t21 133.5zM299 1098
q0 -53 21 -94.5t63.5 -71.5t87.5 -50.5t113 -43.5l114 565h-10q-178 0 -283.5 -82.5t-105.5 -222.5z" />
    <glyph glyph-name="percent.alt" horiz-adv-x="2009" 
d="M1624 1489l-1139 -1489h-77l1138 1489h78zM870 1221q0 -78 -11 -152t-40.5 -151t-74 -134t-119 -93t-168.5 -36q-143 0 -212 86t-69 226q0 83 11 157t40 148.5t74 127.5t118.5 86.5t168.5 33.5q142 0 212 -85t70 -214zM467 715q73 0 131.5 28t96 75.5t62.5 113.5
t35.5 137t10.5 152q0 108 -56 173.5t-172 65.5q-72 0 -128.5 -26t-94 -70.5t-62.5 -107.5t-35.5 -134.5t-10.5 -154.5q0 -121 57 -186.5t166 -65.5zM1858 543q0 -78 -11 -152t-40.5 -151t-74.5 -134t-119.5 -93t-168.5 -36q-143 0 -212 86t-69 226q0 83 11 157t40 148.5
t74 127.5t118.5 86.5t168.5 33.5q142 0 212.5 -85t70.5 -214zM1454 37q73 0 131.5 28t96 75.5t62.5 113.5t35.5 137t10.5 152q0 108 -55.5 173.5t-171.5 65.5q-89 0 -155 -38.5t-103.5 -108t-55.5 -155.5t-18 -191q0 -121 57 -186.5t166 -65.5z" />
    <glyph glyph-name="perthousand.alt" horiz-adv-x="2797" 
d="M1624 1489l-1139 -1489h-77l1138 1489h78zM870 1221q0 -78 -11 -152t-40.5 -151t-74 -134t-119 -93t-168.5 -36q-143 0 -212 86t-69 226q0 83 11 157t40 148.5t74 127.5t118.5 86.5t168.5 33.5q142 0 212 -85t70 -214zM467 715q73 0 131.5 28t96 75.5t62.5 113.5
t35.5 137t10.5 152q0 108 -56 173.5t-172 65.5q-72 0 -128.5 -26t-94 -70.5t-62.5 -107.5t-35.5 -134.5t-10.5 -154.5q0 -121 57 -186.5t166 -65.5zM1858 543q0 -78 -11 -152t-40.5 -151t-74.5 -134t-119.5 -93t-168.5 -36q-143 0 -212 86t-69 226q0 83 11 157t40 148.5
t74 127.5t118.5 86.5t168.5 33.5q142 0 212.5 -85t70.5 -214zM1454 37q73 0 131.5 28t96 75.5t62.5 113.5t35.5 137t10.5 152q0 108 -55.5 173.5t-171.5 65.5q-89 0 -155 -38.5t-103.5 -108t-55.5 -155.5t-18 -191q0 -121 57 -186.5t166 -65.5zM2646 543q0 -78 -11 -152
t-40.5 -151t-74.5 -134t-119.5 -93t-168.5 -36q-143 0 -211.5 86t-68.5 226q0 83 11 157t39.5 148.5t73.5 127.5t118.5 86.5t168.5 33.5q142 0 212.5 -85t70.5 -214zM2243 37q91 0 158 42t104.5 115t55 160t17.5 189q0 108 -55.5 173.5t-171.5 65.5q-89 0 -155 -38.5
t-103.5 -108t-55.5 -155.5t-18 -191q0 -121 57.5 -186.5t166.5 -65.5z" />
    <glyph glyph-name="onequarter.alt" horiz-adv-x="2000" 
d="M1686 225h-136l-51 -248h-57l51 248h-430l10 51l551 566h51l-114 -563h135zM1503 279l94 460l-450 -460h356zM1618 1489l-1139 -1489h-76l1139 1489h76zM674 678h-434l12 53h203l133 653q-46 -37 -114 -67.5t-132 -42.5l10 51q176 56 299 195h25l-160 -789h170z" />
    <glyph glyph-name="onehalf.alt" horiz-adv-x="2000" 
d="M1583 1489l-1139 -1489h-75l1138 1489h76zM639 678h-434l12 53h203l133 653q-46 -37 -114 -67.5t-132 -42.5l10 51q176 56 299 195h25l-160 -789h170zM1724 0h-647l15 61q41 27 164 104.5t182 117.5q173 116 249 191.5t76 160.5q0 71 -50.5 112t-153.5 41
q-95 0 -165.5 -33t-136.5 -96l-34 41q138 142 340 142q123 0 192.5 -55t69.5 -144q0 -46 -19.5 -90.5t-46.5 -79t-74.5 -75t-84 -66t-95.5 -64.5q-57 -39 -101.5 -67t-111.5 -69t-121 -75h566z" />
    <glyph glyph-name="threequarters.alt" horiz-adv-x="2000" 
d="M799 963q0 -99 -51.5 -170t-133 -104.5t-182.5 -33.5q-196 0 -268 123l57 37q58 -100 211 -100q135 0 218 59t83 178q0 78 -55 118t-156 40q-70 0 -153 -18l4 20l415 334h-456l10 57h539l-11 -57l-358 -289q12 2 31 2q117 0 186.5 -53.5t69.5 -142.5zM1698 225h-131
l-51 -248h-62l51 248h-434l10 51l555 566h56l-115 -563h131zM1516 279l92 456l-449 -456h357zM1675 1489l-1138 -1489h-76l1138 1489h76z" />
    <glyph glyph-name="onethird.alt" horiz-adv-x="2000" 
d="M1620 1489l-1139 -1489h-75l1138 1489h76zM676 678h-434l12 53h203l133 653q-46 -37 -114 -67.5t-132 -42.5l10 51q176 56 299 195h25l-160 -789h170zM1788 289q0 -99 -51.5 -170t-133 -104t-182.5 -33q-196 0 -268 122l57 37q58 -100 211 -100q135 0 218 59.5t83 178.5
q0 78 -54.5 117.5t-156.5 39.5q-71 0 -153 -18l4 20l416 334h-457l10 57h539l-10 -57l-359 -289q12 2 31 2q117 0 186.5 -53.5t69.5 -142.5z" />
    <glyph glyph-name="twothirds.alt" horiz-adv-x="2000" 
d="M1620 1489l-1139 -1489h-75l1138 1489h76zM1788 289q0 -99 -51.5 -170t-133 -104t-182.5 -33q-196 0 -268 122l57 37q58 -100 211 -100q135 0 218 59.5t83 178.5q0 78 -54.5 117.5t-156.5 39.5q-71 0 -153 -18l4 20l416 334h-457l10 57h539l-10 -57l-359 -289q12 2 31 2
q117 0 186.5 -53.5t69.5 -142.5zM705 674h-648l15 61q42 28 165 104.5t181 116.5q173 116 249 192t76 161q0 71 -50.5 112t-153.5 41q-95 0 -164.5 -33t-136.5 -96l-35 41q138 142 340 142q123 0 192.5 -55t69.5 -144q0 -46 -19.5 -90.5t-46.5 -79t-74.5 -75t-84 -66
t-95.5 -64.5q-57 -39 -100.5 -66.5t-112.5 -70t-120 -74.5h565z" />
    <glyph glyph-name="oneeighth.alt" horiz-adv-x="2000" 
d="M1614 1489l-1139 -1489h-76l1139 1489h76zM670 678h-434l12 53h203l133 653q-46 -37 -114 -67.5t-132 -42.5l10 51q176 56 299 195h25l-160 -789h170zM1780 244q0 -67 -31 -120t-83 -84.5t-114 -48t-129 -16.5q-141 0 -217 57.5t-76 147.5q0 56 24.5 101.5t67.5 75.5
t92 49.5t107 31.5q-83 30 -129.5 74.5t-46.5 116.5q0 59 29.5 103t78.5 68.5t105 36t117 11.5q133 0 201.5 -52.5t68.5 -131.5q0 -165 -262 -228q98 -31 147.5 -76t49.5 -116zM1782 657q0 65 -53.5 102.5t-165.5 37.5q-111 0 -182.5 -40.5t-71.5 -125.5q0 -59 43.5 -97
t152.5 -73q61 14 104 28.5t86 37.5t65 55.5t22 74.5zM1436 31q70 0 132 22t105 70.5t43 114.5q0 31 -13 56t-29 40.5t-50 32t-55.5 24t-65.5 21.5q-51 -10 -89.5 -20.5t-82.5 -29t-72.5 -41.5t-47.5 -58.5t-19 -78.5q0 -69 63 -111t181 -42z" />
    <glyph glyph-name="threeeighths.alt" horiz-adv-x="2000" 
d="M799 963q0 -99 -51.5 -170t-133 -104.5t-182.5 -33.5q-196 0 -268 123l57 37q58 -100 211 -100q135 0 218 59t83 178q0 78 -55 118t-156 40q-70 0 -153 -18l4 20l415 334h-456l10 57h539l-11 -57l-358 -289q12 2 31 2q117 0 186.5 -53.5t69.5 -142.5zM1614 1489
l-1139 -1489h-76l1139 1489h76zM1780 244q0 -67 -31 -120t-83 -84.5t-114 -48t-129 -16.5q-141 0 -217 57.5t-76 147.5q0 56 24.5 101.5t67.5 75.5t92 49.5t107 31.5q-83 30 -129.5 74.5t-46.5 116.5q0 59 29.5 103t78.5 68.5t105 36t117 11.5q133 0 201.5 -52.5
t68.5 -131.5q0 -165 -262 -228q98 -31 147.5 -76t49.5 -116zM1782 657q0 65 -53.5 102.5t-165.5 37.5q-111 0 -182.5 -40.5t-71.5 -125.5q0 -59 43.5 -97t152.5 -73q61 14 104 28.5t86 37.5t65 55.5t22 74.5zM1436 31q70 0 132 22t105 70.5t43 114.5q0 31 -13 56t-29 40.5
t-50 32t-55.5 24t-65.5 21.5q-51 -10 -89.5 -20.5t-82.5 -29t-72.5 -41.5t-47.5 -58.5t-19 -78.5q0 -69 63 -111t181 -42z" />
    <glyph glyph-name="fiveeighths.alt" horiz-adv-x="2000" 
d="M1614 1489l-1139 -1489h-76l1139 1489h76zM1780 244q0 -67 -31 -120t-83 -84.5t-114 -48t-129 -16.5q-141 0 -217 57.5t-76 147.5q0 56 24.5 101.5t67.5 75.5t92 49.5t107 31.5q-83 30 -129.5 74.5t-46.5 116.5q0 59 29.5 103t78.5 68.5t105 36t117 11.5
q133 0 201.5 -52.5t68.5 -131.5q0 -165 -262 -228q98 -31 147.5 -76t49.5 -116zM1782 657q0 65 -53.5 102.5t-165.5 37.5q-111 0 -182.5 -40.5t-71.5 -125.5q0 -59 43.5 -97t152.5 -73q61 14 104 28.5t86 37.5t65 55.5t22 74.5zM1436 31q70 0 132 22t105 70.5t43 114.5
q0 31 -13 56t-29 40.5t-50 32t-55.5 24t-65.5 21.5q-51 -10 -89.5 -20.5t-82.5 -29t-72.5 -41.5t-47.5 -58.5t-19 -78.5q0 -69 63 -111t181 -42zM821 973q0 -151 -113 -234.5t-282 -83.5q-94 0 -167.5 34.5t-104.5 80.5l67 31q25 -39 83.5 -63.5t133.5 -24.5q62 0 117 14.5
t101 43.5t73 80t27 118q0 79 -53 115t-156 36q-55 0 -129.5 -16t-126.5 -41h-17l152 438h459l-13 -59h-409q-79 -217 -109 -307q98 39 224 39q115 0 179 -52.5t64 -148.5z" />
    <glyph glyph-name="seveneighths.alt" horiz-adv-x="2000" 
d="M1565 1489l-1139 -1489h-76l1139 1489h76zM1780 244q0 -67 -31 -120t-83 -84.5t-114 -48t-129 -16.5q-141 0 -217 57.5t-76 147.5q0 56 24.5 101.5t67.5 75.5t92 49.5t107 31.5q-83 30 -129.5 74.5t-46.5 116.5q0 59 29.5 103t78.5 68.5t105 36t117 11.5
q133 0 201.5 -52.5t68.5 -131.5q0 -165 -262 -228q98 -31 147.5 -76t49.5 -116zM1782 657q0 65 -53.5 102.5t-165.5 37.5q-111 0 -182.5 -40.5t-71.5 -125.5q0 -59 43.5 -97t152.5 -73q61 14 104 28.5t86 37.5t65 55.5t22 74.5zM1436 31q70 0 132 22t105 70.5t43 114.5
q0 31 -13 56t-29 40.5t-50 32t-55.5 24t-65.5 21.5q-51 -10 -89.5 -20.5t-82.5 -29t-72.5 -41.5t-47.5 -58.5t-19 -78.5q0 -69 63 -111t181 -42zM985 1434l-543 -779h-75l551 787h-463l-25 -119h-59l37 178h591z" />
    <glyph glyph-name="plus.alt" horiz-adv-x="1329" 
d="M1178 735h-482v-481h-63v481h-481v64h481v481h63v-481h482v-64z" />
    <glyph glyph-name="minus.alt" horiz-adv-x="1329" 
d="M1206 735h-1026v64h1026v-64z" />
    <glyph glyph-name="multiply.alt" horiz-adv-x="1329" 
d="M1114 365l-45 -46l-405 404l-402 -404l-45 46l404 401l-402 401l45 45l400 -401l401 401l45 -45l-401 -401z" />
    <glyph glyph-name="less.alt" horiz-adv-x="1329" 
d="M1116 293l-1026 461v26l1026 459v-70l-911 -403l911 -404v-69z" />
    <glyph glyph-name="greater.alt" horiz-adv-x="1329" 
d="M1219 754l-1026 -461v69l911 404l-911 403v70l1026 -459v-26z" />
    <glyph glyph-name="logicalnot.alt" horiz-adv-x="1329" 
d="M1178 510h-64v451h-962v63h1026v-514z" />
    <glyph glyph-name="equal.alt" horiz-adv-x="1329" 
d="M1178 961h-1026v63h1026v-63zM1178 510h-1026v63h1026v-63z" />
    <glyph glyph-name="divide.alt" horiz-adv-x="1329" 
d="M735 1204q0 -41 -15.5 -57.5t-53.5 -16.5q-25 0 -40.5 6t-22 18.5t-8 22.5t-1.5 27q0 39 14 56.5t58 17.5q25 0 40 -6t21 -19.5t7 -22t1 -26.5zM1178 735h-1026v64h1026v-64zM735 330q0 -41 -15.5 -57.5t-53.5 -16.5q-25 0 -40.5 6t-22 18.5t-8 22.5t-1.5 27q0 39 14 56
t58 17q25 0 40 -6t21 -19t7 -22t1 -26z" />
    <glyph glyph-name="plusminus.alt" horiz-adv-x="1329" 
d="M1178 709h-482v-383h-63v383h-481v63h481v436h63v-436h482v-63zM1178 184h-1026v64h1026v-64z" />
    <glyph glyph-name="periodcentered.alt" horiz-adv-x="448" 
d="M307 780q0 -90 -94 -90q-31 0 -49.5 13t-18.5 38q0 93 95 93q67 0 67 -54z" />
    </font>
</defs>
</svg>
